/* XPM */
static char *out[] = {
/* columns rows colors chars-per-pixel */
"64 64 224 2 ",
"   c None",
".  c #191E30",
"X  c #1E2435",
"o  c #1E262F",
"O  c #262A3B",
"+  c #252938",
"@  c #2D3338",
"#  c #31343C",
"$  c #353C39",
"%  c #222A2F",
"&  c #3C473A",
"*  c #3C513E",
"=  c #424D3A",
"-  c #45533B",
";  c #485739",
":  c #5A6C3B",
">  c #54653C",
",  c #4E6037",
"<  c #65773C",
"1  c #2D3646",
"2  c #323445",
"3  c #3B394D",
"4  c #373848",
"5  c #3E3C51",
"6  c #343E51",
"7  c #2D2F42",
"8  c #413E53",
"9  c #403D40",
"0  c #364749",
"q  c #3A4853",
"w  c #3D5558",
"e  c #3E564D",
"r  c #444645",
"t  c #534D4A",
"y  c #445A46",
"u  c #545A49",
"i  c #424055",
"p  c #454958",
"a  c #42595D",
"s  c #455757",
"d  c #575855",
"f  c #655A53",
"g  c #4B6549",
"h  c #546945",
"j  c #496859",
"k  c #546C54",
"l  c #5A7C5A",
"z  c #567758",
"x  c #5C7B4E",
"c  c #677A45",
"v  c #666558",
"b  c #736756",
"n  c #677657",
"m  c #717753",
"M  c #4C546A",
"N  c #485865",
"B  c #545D73",
"V  c #50586A",
"C  c #4C6A6C",
"Z  c #496564",
"A  c #586568",
"S  c #4C7468",
"D  c #547768",
"F  c #586679",
"G  c #4E7273",
"H  c #537374",
"J  c #567A7B",
"K  c #5A7D7D",
"L  c #537976",
"P  c #4D6C70",
"I  c #646A67",
"U  c #777567",
"Y  c #676D74",
"T  c #737A7A",
"R  c #6D767A",
"E  c #857859",
"W  c #877C67",
"Q  c #6E833F",
"!  c #72843F",
"~  c #5C825E",
"^  c #6C8344",
"/  c #6A884C",
"(  c #738441",
")  c #738B43",
"_  c #74884A",
"`  c #7A9647",
"'  c #63855B",
"]  c #658A5C",
"[  c #6A8D5C",
"{  c #688753",
"}  c #6D935D",
"|  c #6C945A",
" . c #739A5B",
".. c #799C5B",
"X. c #749458",
"o. c #7CA35D",
"O. c #7EA85D",
"+. c #77A45F",
"@. c #5D8463",
"#. c #5B8567",
"$. c #5C8672",
"%. c #57857A",
"&. c #498367",
"*. c #648B63",
"=. c #758568",
"-. c #699765",
";. c #759D68",
":. c #628677",
">. c #689676",
",. c #77A467",
"<. c #78A578",
"1. c #6FA06A",
"2. c #839D4B",
"3. c #849549",
"4. c #829E59",
"5. c #89A34B",
"6. c #88A74D",
"7. c #9CB94F",
"8. c #9AB64F",
"9. c #8DAC56",
"0. c #82A55B",
"q. c #85AA5C",
"w. c #8BAC5B",
"e. c #89A656",
"r. c #93AD51",
"t. c #92AE5A",
"y. c #99AF58",
"u. c #8EB256",
"i. c #8DB159",
"p. c #94B454",
"a. c #9BB654",
"s. c #9DB850",
"d. c #94B259",
"f. c #9BB359",
"g. c #90AB4E",
"h. c #A1B654",
"j. c #A2B852",
"k. c #A6B756",
"l. c #998566",
"z. c #888673",
"x. c #8D9172",
"c. c #B69D76",
"v. c #A59472",
"b. c #8EAB69",
"n. c #BCA578",
"m. c #B1A775",
"M. c #A49F5C",
"N. c #C8A977",
"B. c #C5A777",
"V. c #5D6E85",
"C. c #587E80",
"Z. c #637385",
"A. c #6D7B8A",
"S. c #747E86",
"D. c #5B8484",
"F. c #5E8B8B",
"G. c #5C8983",
"H. c #5C9292",
"J. c #628D8D",
"K. c #678B86",
"L. c #7B8488",
"P. c #669A87",
"I. c #74948E",
"U. c #639494",
"Y. c #669C9C",
"T. c #6A9E9E",
"R. c #689894",
"E. c #709894",
"W. c #6CA19A",
"Q. c #77A898",
"!. c #73A58A",
"~. c #5994A0",
"^. c #669EA3",
"/. c #6CA2A2",
"(. c #69A2A9",
"). c #71A6A5",
"_. c #74ABAB",
"`. c #74A9A9",
"'. c #7BB2B3",
"]. c #79B1AE",
"[. c #828C8D",
"{. c #8A9494",
"}. c #969D98",
"|. c #97998F",
" X c #A49F85",
".X c #8FA696",
"XX c #ABA486",
"oX c #BAAF8B",
"OX c #979DA6",
"+X c #88ABA2",
"@X c #8CB5AD",
"#X c #8BB3AA",
"$X c #91B5AA",
"%X c #88B9B6",
"&X c #96BEB4",
"*X c #9DA7AA",
"=X c #A2AAAB",
"-X c #ABB3B5",
";X c #B5BBBA",
":X c #D5BC88",
">X c #C9BD92",
",X c #C7B589",
"<X c #96C2B9",
"1X c #A4CCBE",
"2X c #A0C4B6",
"3X c #D8C38E",
"4X c #DBC896",
"5X c #CDC397",
"6X c #E2CE9A",
"7X c #DBD0A3",
"8X c #D0CAAE",
"9X c #EDDEA9",
"0X c #E6D8A4",
"qX c #EFE1AB",
"wX c #F1E5B6",
"eX c #A9D6C9",
"rX c #B5DECE",
"tX c #AAC9C1",
"yX c #BDE7D4",
"uX c #BAE0CF",
"iX c #9ECDC4",
"pX c #CFD2D6",
"aX c #F4EBC8",
"sX c #F9F5E9",
/* pixels */
"                                                                                                                                ",
"                                                                                                                                ",
"                                                                                                                                ",
"                                                                                                                                ",
"                                                                                                                                ",
"                                                                                                                                ",
"                                                                                                                                ",
"                                                                                                                                ",
"                                                                                                                                ",
"                                                                                                                                ",
"                                                                                                                                ",
"                                                                                                                                ",
"                                                                                                                                ",
"                                                                                                                                ",
"                    y x ' D D ] -.*.| [ ] | X.X. .} -.;.;.-.!.<.,.;.;.*.@.| ..X.[ ..[ -.-.-.*.l k h x g                         ",
"                e h n w.y.w.4.q.q.9.u.q.0.9.p.p.p.9.{ _ _ ' ..b.d.d.d.,.0.u.u.u.9.a.t.q.w.w.0...| X.O.[ z                       ",
"                y { 0.f.h.h.a.d.p.a.h.a.p.p.7.p.r.c = d A N v _ 2.a.a.p.p.p.8.8.a.j.a.a.a.f.p.u.9.9.q.+.D                       ",
"                e { 9.h.a.a.p.p.p.a.a.p.a.p.p.u.< 2 3 V V.B B B v e.p.7.8.p.u.u.a.s.j.a.a.p.u.p.p.w.+. .z                       ",
"                j ] d.h.f.a.a.a.p.p.9.p.8.7.p.u.= 3 M V.V.F B B F c u.7.7.p.u.p.8.a.j.a.7.a.a.u.i.O.-.| z                       ",
"                z ,.w.a.h.j.j.a.f.f.f.s.7.7.8.2.$ 3 M B B V.F M B d s.7.7.7.p.p.p.p.8.s.s.j.a.d.f.f.9.O.#.                      ",
"                :.<.,.O.d.p.7.s.a.a.a.a.7.7.8.! 9 8 8 7 4 M V.B M p a.a.7.7.p.8.p.u.u.8.j.j.8.8.a.s.f.,.$.J                     ",
"                :.1.+.O.u.u.7.s.p.u.u.p.p.u.` , # 8 8 7 X 2 V.V.p 1 d.a.8.u.u.p.p.u.u.8.7.s.8.p.u.p.t.,.P.%.                    ",
"                :.+.,.d.a.a.a.a.p.8.7.p.p.^ * $ + 3 8 3 # X M B 8 = c r.p.u.u.p.a.a.7.a.8.g.5.t.p.a.a.q.#.Z                     ",
"                @.O.u.p.d.p.a.p.p.7.j.s.a.; 2 q 7 2 8 9 W b p i f v.oXM.p.f.h.j.7.s.7.9.b..Xx.5.a.h.k...~ y                     ",
"                } q.d.a.p.p.a.a.p.p.u.8.8.& 4 i 4 4 2 # l.,Xm.XXB.6X:XB.5.a.j.s.s.a.y.|.*X}.=.2.p.d.h.4.] k                     ",
"                l o.4.d.p.u.p.p.7.p.p.p.8.> 4 i 8 i r W b b v.>X0X9X0X3X3.p.p.p.y.y.b.-X=X{.=.2.8.t.w...' z                     ",
"                k ~ ] 0.a.7.p.p.u.p.u.u.p.` $ 2 8 2 v c.c.n.7X0X9XU XX0Xm.6.8.8.s.f.;XtX-X{.=.` p.u.d.e.| j                     ",
"                e ~  .w.a.j.h.p.p.s.j.p.p.8.Q $ X X W B.N.:XqXqX9XW f 0XE ) 8.8.p.x.=X-X=XT x 6.j.a.k.e.' Z                     ",
"                Z #.| d.j.a.p.p.p.a.a.a.a.9.` 2.c % v.N.N.6XqXqX9Xv.+ z.@ ) p.p.b.=XOX*X{.A ^ p.a.h.f.X.S Z                     ",
"                a @. .i.h.a.p.p.u.a.d.p.5.h 4 : 6.r n.N.3XoXr + O o . + u h 9.0.n }.}.=XR h 6.u.p.f.a.9.{ 0                     ",
"                j -.+.u.k.k.k.j.d.d.d.p.; @ OXL.= d c.N.N.:X4X,XW d o W ,Xu Q ^ i {.[.{.k c s.d.u.i.0.0.x e                     ",
"                S -.+.O.f.h.a.a.a.h.h.j.; z.I -X;X3 f l.N.N.N.:X6X0X+ 6XB.m < h I [.T T u 3.p.f.d.,. .*.x e                     ",
"                S &.-.-.| +.i.u.p.u.8.7.- Y }. XpXsXpX=XY Y t N.B.4X+ 4XB.E : = L.L.[.A > 7.j.s.p.u.i.,.<.K                     ",
"                %.&.-.,.q.u.a.8.u.u.u.d.- Y A.V.|.0XwXaXsXpXt N.B.4X# 4XW @ = A L.T T u ! j.h.a.f.f.a.0.D P                     ",
"                S ] i.f.a.a.a.a.8.7.7.s.- Y A.Z.[.7XqXqXaX*X4 c.c.4XoXm.+ 7 O p p A A h j.h.f.p.j.j.h...z e                     ",
"                l | d.f.u.p.f.d.u.7.a.a.; T L.Z.[.>X0X9XwXOXO X t W W i M X M 5 O 4 $ ; ) p.p.u.a.h.h.t.X.j                     ",
"                ] | 0.a.p.p.p.a.8.p.u.p.- XX7X|.|.B.:XwXqXZ.1 V.M 6 6 V 1 + $ 2 9 O + 2 e Q 8.a.p.p.h.f...l                     ",
"                z [ o.u.p.p.p.p.p.p.p.p.;  X0X3X>X|.XX5X4XF O i M V M 8 3 7 b b 9 # 2 5 s ^ p.p.p.p.f.t.-.z                     ",
"                l ,.i.d.j.s.f.p.u.7.p.u._ m >X6X:XS.V.V.I M O i 8 8 8 8 3 + $ E h < ; & h r.p.p.p.a.f.t.} S                     ",
"                z  .o.u.p.h.s.p.p.j.k.s.f.c XX0X7XS.V.V.T M O 3 3 3 3 2 + 7 # = ` s.s.7.k.h.p.p.j.k.f.o.@.Z                     ",
"                D *.,.f.f.a.8.p.p.f.f.p.a.g./ XXoXA.V.L.A q @ @ # # @ o % & ; ` 7.s.s.a.a.p.p.p.p.u.O.,.-.G                     ",
"                $.} d.k.f.a.a.a.p.p.d.p.7.7.2.c U R L.U @ - : > h : : ; o : 6.u.p.a.j.a.s.7.7.u.i.,.| | #.j                     ",
"                C | w.h.7.s.j.j.f.f.a.s.7.7.8.) & V z.$ = ! ! ( ^ ( ( < & < ` a.p.p.p.s.j.k.h.d.d.i.w.o.] j                     ",
"                g } 4.d.k.s.s.7.p.f.s.j.s.a.a.p.< n r ; Q ! ( ( ( ( ( ! ! ) 6.d.p.u.p.s.s.h.h.f.f.h.f.O.z 0                     ",
"                y { ..9.f.h.s.a.u.d.f.f.f.p.f.f.p.` / ) ` ! ! ^ ^ ^ ) ) ` 5.u.p.p.i.d.a.j.k.h.f.i.9.u.o.g 1                     ",
"                0 g X.e.w.w.w.e.q.w.i.q.0.q.9.d.p.9.q.e.2._ m { { / X.e.e.q.p.p.i.q.t.i.d.f.9.X.[ |  .{ j 0                     ",
"                q P @.>.!.!.>.] #.-.-.] ~ @. . .+.+.<.b.<.*.$.#.*.#.*.[ | X.0...} @.,.;.,.<.>.#.$.&.~ S G w                     ",
"                w E.U.(.%X'.R.G.%.%.:.G.G.L z D $.P.Q.Q.).E._.G %.W.H.&.%.*.k D G.F.!.P.P.Q._.].].).U.J.G 6                     ",
"                0 D.T.`._._._.).D.J.`.`.).U.C Z D././._.].'.'.G J._.).W.^.D.N H /./._.^.C.J.'.'.'._._.T.w X                     ",
"                0 Z %.T.T.^.).T.J J ^.)./.^.J Z F.^.Y./././.^.C.L Y.T.T./.H.Z C.T.T./.U.P G Y./.W.Y.Y.J 6                       ",
"                F q H U.Y.T.Y.Y.L P F.Y.T.Y.J C F.Y.Y.^.Y.Y.^.G P Y.Y.^.T.F.w L Y.Y.Y.D.N H U.Y.T.T.T.J w                       ",
"                I.0 K ^././.^.U.L C F.Y.T.T.L N D.Y.Y.Y.Y.Y.U.G a E.)./.^.F.w C Y.Y.Y.D.w P U.Y.^./.).C.A                       ",
"                +Xs K T./.^.T.Y.D.H D.U./.`.C.a L U.T.T.Y.Y.Y.F.q F./.Y.^.U.C L Y.Y.Y.F.C D.Y.Y.T.T.R.C K                       ",
"                $Xs H U.T.Y.Y.Y.H.L D.Y.^./.C.a J._._.^.Y.Y.Y.J.q K Y.Y.Y.U.L F.Y.Y.Y.F.L J.Y.^.Y.Y.G.N K.                      ",
"                &XA C J.Y.Y.Y.Y.J.K F.Y.T.Y.J N K.).).^.Y.Y.Y.D.a L Y.Y.W.U.H D.Y.Y.Y.D.H F.Y.Y.Y.U.J C +X                      ",
"                  $XH L H.Y.U.Y.D.L F.Y.Y.Y.J Z H U.Y.Y.U.Y.U.F.Z H U.Y.Y.J.P C.Y.Y.U.L Z J U.T.Y.F.H K.1X                      ",
"                  pX<XK.G.G.U./.E.:.K J.J.U.K.K.H L F.H.%.J J K I.K.H.D.G.K I.I.D.F.C.K.I.K.D.D.G.J.I.<XyX                      ",
"                    <X%X#X@X<XeXeXiX$X#X@X&XiX<X#X+X+X+X{.+X+X<XrX1X$X#X#X&X1X&X#X+X$XeXrXtX<X@X@X%X<XrX                        ",
"                        ~.~.(.(.'.iXyXyXyXrX<X    ).%X%X_.(.~./.yXrXyXyXyXrX  ~.^.'.%XiX    `.^.(.).                            ",
"                                                                                                                                ",
"                                                                                                                                ",
"                                                                                                                                ",
"                                                                                                                                ",
"                                                                                                                                "
};
