/* XPM */
static char *out[] = {
/* columns rows colors chars-per-pixel */
"64 64 227 2 ",
"   c None",
".  c #171D2E",
"X  c #191F31",
"o  c #1D2335",
"O  c #1F2837",
"+  c #1B222F",
"@  c #252936",
"#  c #242A3C",
"$  c #252A38",
"%  c #2D3638",
"&  c #323939",
"*  c #20282F",
"=  c #3A4639",
"-  c #3D533E",
";  c #49573A",
":  c #4B553C",
">  c #54643B",
",  c #596B3C",
"<  c #5D733B",
"1  c #64793E",
"2  c #2D3545",
"3  c #323444",
"4  c #363549",
"5  c #3B3A4C",
"6  c #363A48",
"7  c #3D3C51",
"8  c #2A2F42",
"9  c #423F54",
"0  c #39464A",
"q  c #3A4656",
"w  c #3D5458",
"e  c #364C4D",
"r  c #484747",
"t  c #495A47",
"y  c #434055",
"u  c #464959",
"i  c #42595D",
"p  c #44575A",
"a  c #595756",
"s  c #52554B",
"d  c #685D50",
"f  c #4C6346",
"g  c #576947",
"h  c #5C794A",
"j  c #496858",
"k  c #586855",
"l  c #597B5A",
"z  c #567659",
"x  c #667944",
"c  c #67665B",
"v  c #677458",
"b  c #726950",
"n  c #494D62",
"m  c #4A5867",
"M  c #545D73",
"N  c #545E6C",
"B  c #4D6A6C",
"V  c #496564",
"C  c #576568",
"Z  c #4C7368",
"A  c #527568",
"S  c #4D6D71",
"D  c #586778",
"F  c #4E7275",
"G  c #527373",
"H  c #547B77",
"J  c #567A7B",
"K  c #5A7D7D",
"L  c #567475",
"P  c #656B6B",
"I  c #676C76",
"U  c #73797A",
"Y  c #71766F",
"T  c #82725A",
"R  c #8C7A65",
"E  c #72843F",
"W  c #6A813D",
"Q  c #5D835C",
"!  c #6C8243",
"~  c #698245",
"^  c #728443",
"/  c #768C43",
"(  c #768A4A",
")  c #7C994B",
"_  c #7A9448",
"`  c #658A5D",
"'  c #6B8E5C",
"]  c #658757",
"[  c #6D935C",
"{  c #6D945A",
"}  c #729356",
"|  c #739B5C",
" . c #799B5B",
".. c #74945B",
"X. c #788255",
"o. c #7CA35D",
"O. c #7CA75D",
"+. c #5D8463",
"@. c #5A8468",
"#. c #5C8673",
"$. c #578579",
"%. c #498367",
"&. c #628D63",
"*. c #628665",
"=. c #6B9C61",
"-. c #699567",
";. c #769E68",
":. c #628678",
">. c #679679",
",. c #7A8677",
"<. c #6FA06A",
"1. c #76A264",
"2. c #76A369",
"3. c #7AA776",
"4. c #84984A",
"5. c #829D58",
"6. c #898F57",
"7. c #85A34C",
"8. c #8BA64C",
"9. c #8AA84C",
"0. c #91AE4E",
"q. c #9BB94F",
"w. c #97B44F",
"e. c #82A55B",
"r. c #85AA5C",
"t. c #8CAC5B",
"y. c #88A655",
"u. c #92AC54",
"i. c #92AE5A",
"p. c #9CAF5A",
"a. c #8EB256",
"s. c #8CB159",
"d. c #94B454",
"f. c #9BB654",
"g. c #9DB850",
"h. c #93B159",
"j. c #9BB359",
"k. c #A1B654",
"l. c #A2B852",
"z. c #A6B757",
"x. c #87846C",
"c. c #978664",
"v. c #878773",
"b. c #869774",
"n. c #999579",
"m. c #92936F",
"M. c #B69D73",
"N. c #AB9771",
"B. c #8EAC64",
"V. c #BCA479",
"C. c #B7A26A",
"Z. c #A59B5F",
"A. c #C3A475",
"S. c #C8A876",
"D. c #C6AB7C",
"F. c #5D6E84",
"G. c #587E81",
"H. c #697788",
"J. c #6B7781",
"K. c #5B8484",
"L. c #5E8B8B",
"P. c #5D8985",
"I. c #55919E",
"U. c #5C9389",
"Y. c #618D8D",
"T. c #688B86",
"R. c #7A8489",
"E. c #669689",
"W. c #75958F",
"Q. c #639494",
"!. c #669C9C",
"~. c #6A9E9E",
"^. c #689996",
"/. c #709492",
"(. c #74A899",
"). c #70A492",
"_. c #5B97A2",
"`. c #649DA4",
"'. c #6CA2A2",
"]. c #6AA2A9",
"[. c #74AAAA",
"{. c #73A7A6",
"}. c #7BB2B2",
"|. c #78B0B0",
" X c #9A9988",
".X c #889191",
"XX c #949D9B",
"oX c #858D8B",
"OX c #8FA496",
"+X c #B9AC89",
"@X c #BAB396",
"#X c #ADAC8C",
"$X c #88ABA3",
"%X c #9BA4A3",
"&X c #8CB4AA",
"*X c #93B7AC",
"=X c #8BB9B3",
"-X c #87BBB8",
";X c #95BDB2",
":X c #A4AAAB",
">X c #ACB5B6",
",X c #AFB2B1",
"<X c #C6B68B",
"1X c #D4BA87",
"2X c #C4BA92",
"3X c #98C3B9",
"4X c #8CC0BB",
"5X c #A3C8BA",
"6X c #DBC997",
"7X c #D4C396",
"8X c #E3D29E",
"9X c #CCC7AB",
"0X c #E4D5A1",
"qX c #EDDEA9",
"wX c #E9D9A4",
"eX c #EFE1AB",
"rX c #F1E4B6",
"tX c #B6BFC0",
"yX c #A5CEC1",
"uX c #A8D3C6",
"iX c #B3DECD",
"pX c #B9E2CF",
"aX c #BDE8D4",
"sX c #9DCDC5",
"dX c #F1EBD3",
"fX c #F2EFE5",
"gX c #C6DED6",
/* pixels */
"                                                                                                                                ",
"                                                                                                                                ",
"                                                                                                                                ",
"                                                                                                                                ",
"                                                                                                                                ",
"                                                                                                                                ",
"                                                                                                                                ",
"                                                                                                                                ",
"                                                                                                                                ",
"                                                                                                                                ",
"                                                                                                                                ",
"                                                                                                                                ",
"                                                                                                                                ",
"                                                                                                                                ",
"                                                                                                                                ",
"                  & t l ] *.+.*.-.-.[ ' ` {  .}  ...-.;.;.=.).3.2.;.;.-.*.'  .} '  .[ -.-.-.` v z g Q g                         ",
"                - f ] y.i.t.5.r.t.a.h.t.r.a.d.d.d.a.y.) ) r.B.B.h.h.h.O.O.a.a.d.a.j.i.t.t.t.e.o.} } O.' z                       ",
"                t ' o.g.k.k.f.h.d.g.l.f.d.d.d.d.f.x > k P v ^ 7.g.f.f.d.q.d.w.d.q.l.l.f.j.f.d.a.y.a.s.| l                       ",
"                t ] t.k.p.g.d.a.u.j.f.d.w.w.d.a.^ : 4 n D M C P ( j.d.q.w.d.a.a.d.q.l.f.f.d.d.a.d.s.o.{ z                       ",
"                j ' i.z.j.g.g.f.h.h.d.a.q.q.d.d.: 4 n M D D M D C v y.q.q.w.a.a.w.l.g.j.g.q.d.d.s.O.<.{ A                       ",
"                z 1.s.f.l.l.g.f.j.d.f.q.q.q.w.9.= 5 M F.F.F.M M N C ^ f.q.q.d.q.d.d.d.q.l.l.j.j.f.d.i.1.*.Z                     ",
"                :.3.2.O.d.f.f.q.f.q.f.q.q.q.q._ 9 7 m m n F.F.M n D g g.q.q.d.q.d.a.d.q.q.l.q.d.j.g.f.2.#.H                     ",
"                #.<.<.O.a.d.f.q.d.a.a.d.a.0.a.1 4 9 y 8 # 7 F.F.n N : d.w.a.d.a.d.a.d.d.q.q.f.a.a.h.a.2.>.J                     ",
"                #.O.O.d.j.j.f.f.q.d.q.q.a.O.> = # 9 9 4 X X n F.9 3 > g.a.a.a.d.d.f.q.f.g.d.4.0.d.g.f.r.@.j                     ",
"                +.O.s.d.d.d.f.d.a.f.g.f.w.! = 4 3 4 5 3 T : 9 y y c.Z.6.g.f.k.l.l.l.f.y.B.%Xb.} f.z.z. .Q t                     ",
"                ' r.j.f.d.d.f.f.q.d.a.q.q.< 0 9 4 4 3 6 A.M.R R N.1X6XC.0.g.l.g.g.g.d.b.%X%X,.( d.h.k.5.` j                     ",
"                l  . .h.f.a.a.d.d.d.d.q.w., 6 q 4 5 6 d 9 b v.<X8XqX8X1X4.d.d.d.d.f.p.:X,X%X,._ d.d.t. .` j                     ",
"                j ` ] r.w.w.d.h.a.a.s.s.d.E & 5 9 5 s M.N.<X8XqXqXn.<XwXZ.q.w.q.z.p. XtX>XXXY / a.a.d.u...j                     ",
"                p Q | t.f.g.k.d.d.q.l.j.d.d.> % 8 X x.S.S.1XqXeXqXY Y 0Xc.E q.w.u.B.:X:X,XoXk _ l.k.j.y.] V                     ",
"                V @.| h.z.f.f.d.q.g.g.f.9._ 9._ > o m.S.S.6XqXqXqXn.$ 2X0 7.q.d.u.b.%X%X%XP f 9.g.g.k.} A V                     ",
"                j Q =.s.k.k.d.d.a.j.d./ t 6 g ) 0.& V.S.1X+Xc P c r . @ & ; s.s.B..XXX%XR.k ~ a.h.j.p.t.] e                     ",
"                j =.=.h.z.z.l.l.j.a.h.t 5 ,XI g / c V.D.1XqXN.s . . . % +Xg ) 7.x J.XX:XU k 8.h.h.i.r.o.h 0                     ",
"                Z =.1.r.j.f.f.d.j.g.l.X.v.c :X:Xu 9 R S.S.S.1XwX6Xn.@ <XD.d E 4.r R..XR.C , j.j.u.O.| ` l t                     ",
"                Z %.&.=.=.o.s.a.d.d.f.x v.XXoX,XdXfX,XU I s A.S.D.8X@ 6XA.T < ! u oX,.J.s / g.l.d.a.s.1.>.K                     ",
"                $.%.=.r.r.d.g.j.d.a.a., v.R.F.R.6XrXdXfXgXa S.S.S.6X$ 6XN.r % t U U R.P , l.l.j.d.f.f.O.A A                     ",
"                Z Q t.j.j.f.g.j.d.q.g.h v.R.F.F.9XqXeXrX,X9 c.M.S.6Xx.<Xr O 2 2 C q P k / j.f.d.g.z.k. .l w                     ",
"                Q { s.j.a.d.f.h.h.w.f.1 n..XH.H.2X8XqXeX9Xq o u b V.+Xa 7 o q q $ 3 y - ~ 4.d.a.f.f.z.i.[ j                     ",
"                ` { r.j.d.d.d.g.q.d.a.1 m.8X@XR.#X<X8XqXXXn q 7 7 # # 7 # $ $ 8 4 3 @ # 6 t 7.w.q.d.z.j. .z                     ",
"                z [ O.h.d.d.a.d.d.d.d.) b 2X0X<X<X X2X9X Xm 4 y n n 9 9 9 5 r d d @ 8 4 w k 7.d.d.d.j.h.[ Z                     ",
"                z e.r.d.g.q.f.d.a.d.d.d.s v.0X1X<XH.F.D s n 4 y 9 9 9 9 9 3 @ r T > , : t ^ d.d.d.j.j.s.[ j                     ",
"                A  .O.h.d.l.l.h.q.f.z.l.y.X.+X8X@XR.F.H.k n % 4 4 4 4 3 % O % $ > 0.q.g.l.l.d.j.l.z.h.O.+.V                     ",
"                A &.o.j.f.f.d.d.d.j.d.q.q.) X.7XXXH.H.oXu 6 & & % & & ; + = = t 7.g.g.f.f.d.d.d.j.t.e.1.-.Z                     ",
"                #...i.k.j.g.g.f.d.d.j.d.q.q.W x.Y I R.c & > E 1 ~ ! W 1 = 1 ) a.d.g.l.g.g.f.f.h.a.o.| =.@.V                     ",
"                Z ' t.k.q.l.l.l.j.j.j.f.q.q.0.h s D U & ; 1 E ^ ~ ! E E E E 9.d.d.d.w.f.l.l.g.j.h.a.t.O.Q j                     ",
"                j { o.h.l.l.g.f.d.f.f.l.q.q.f.0.E v t > / / ^ ! ^ ! / / 4.7.d.w.j.s.d.f.q.l.k.p.j.j.j.r.z e                     ",
"                t ] } u.j.l.l.j.d.j.j.j.f.d.j.j.f.) _ 8.8.4.4.4._ ) 7.8.0.a.d.a.d.s.h.g.l.z.z.p.t.a.t.o.f #                     ",
"                0 f } y.r.r.i.r.O.t.t.r.r.e.a.h.d.t.s.d.p.5.5.e.O.r.t.u.u.t.a.h.a.e.u.h.d.j.r.} ] ' | ] j e                     ",
"                q A +.>.).).-.&.+.&.` &.+.Q .... .1.3.b.3.*.#.@.&.+.&.` '  .e. .` *.;.<.2.2.>.#.#.@.%.z F w                     ",
"                w ^./.{.}.}.!.T.$.K.K.T.$.$.Z Z #.E.(.(.{.(.[.S $.!.U.$.K #.z A T.U.).E.E.(.|.}.|.{.Q.Q.F 2                     ",
"                0 G.^.[.|.[.[.'.P.Y.{.[.'.!.S V K.~.(.[.|.}.}.F L.[.'.'.~.P.i F '.].[.'.K.L.|.}.|.[.[.~.i O                     ",
"                q V G.!.!.!.'.~.J K !.'.'.!.$.V L.'.~.'.'.'.`.G.J ^.^.'.~.Q.V K.!.~.'.L.B G !.'.~.~.^.J 0 +                     ",
"                L 0 G Q.!.!.`.^.G B L.!.!.!.G.B L.!.!.!.!.!.`.F S !.~.~.~.L.w G !.!.^.K.V S Q.!.~.~.~.J q                       ",
"                W.0 K {.'.'.!.^.G B L.!.~.`.F i K.I.!.!.Q.^.U.J w !.{.'.!.L.w S !.!.!.K.i S I.~.'.'.{.K G                       ",
"                $Xp K `.'.'.`.!.K.G K.!.'.[.K.i K ^.~.~.!.!.!.L.q P.~.~.!.Q.B J !.!.!.K.S K.~.^.!.~.Q.B K                       ",
"                *Xp G Q.!.~.!.!.Q.J K.!.'.'.K.w E.{.[.`.!.!.!.L.w J !.!.^.Q.J U.I.'.!.L.L L.!.!.!.!.P.V R.                      ",
"                ;XD B U.!.!.~.!.L.J L.!.!.!.J m K.{.{.~.!.`.^.L.p J !.!.~.Q.G P.!.!.!.K.G L.!.!.!.I.K V $X                      ",
"                  *XL L Y.Q.!.Q.K.J Y.!.!.!.L V G Q.!.!.Q.^.Q.Y.m A Q.~.!.L.A G.!.!.Y.G m J Q.~.^.Y.L T.5X                      ",
"                  pX3XT.T.P.^.`./.K K L.U.L./.T.L L Y.Y.$.K K K W.T.Y.K.K.K W.W.K.P.G.T.W.E.K.K.K.Y.W.3XaX                      ",
"                    3X=X&X=X3XuXiXyX*X*X;X3XyX3X*X$X$X(.$X$X$X3XpXyX=X&X*X3XyX-X&X$X;XuXiXuX3X*X=X=X3XiX                        ",
"                        I._.].].|.yXaXaXaXiX-X    ].=X-X].`.I.`.aXiXaXaXaXpX  I.`.}.-XsX      `.`.].                            ",
"                                                                                                                                ",
"                                                                                                                                ",
"                                                                                                                                ",
"                                                                                                                                "
};
