/* XPM */
static char *out[] = {
/* columns rows colors chars-per-pixel */
"64 64 221 2 ",
"   c None",
".  c #171D2E",
"X  c #1A1F31",
"o  c #1D2435",
"O  c #1D242F",
"+  c #26293C",
"@  c #2B2E3B",
"#  c #232837",
"$  c #2D3537",
"%  c #33393A",
"&  c #3A4737",
"*  c #414C3A",
"=  c #4A583A",
"-  c #56683A",
";  c #586B3B",
":  c #687B3D",
">  c #626F3F",
",  c #2B2F42",
"<  c #2C3543",
"1  c #333344",
"2  c #3A3C44",
"3  c #36364A",
"4  c #3B3A4E",
"5  c #333B4B",
"6  c #3E3C50",
"7  c #413F54",
"8  c #38454A",
"9  c #3C4756",
"0  c #3E535A",
"q  c #3C5553",
"w  c #34484B",
"e  c #494644",
"r  c #474A47",
"t  c #425A48",
"y  c #434155",
"u  c #454959",
"i  c #46565A",
"p  c #565A57",
"a  c #515C4C",
"s  c #4B6548",
"d  c #536243",
"f  c #586748",
"g  c #496758",
"h  c #556C57",
"j  c #587959",
"k  c #5D7C4E",
"l  c #677C44",
"z  c #67665B",
"x  c #697754",
"c  c #767C5A",
"v  c #6D6350",
"b  c #494E63",
"n  c #485765",
"m  c #545C69",
"M  c #545E74",
"N  c #496264",
"B  c #4C6A6C",
"V  c #486864",
"C  c #576A6A",
"Z  c #4C7368",
"A  c #557765",
"S  c #4E6E70",
"D  c #5A697E",
"F  c #576578",
"G  c #4E7475",
"H  c #537374",
"J  c #567B7B",
"K  c #597D7D",
"L  c #567775",
"P  c #676C67",
"I  c #747366",
"U  c #636B75",
"Y  c #6B747B",
"T  c #757B79",
"R  c #685F4E",
"E  c #86755C",
"W  c #8B7964",
"Q  c #72883F",
"!  c #67803D",
"~  c #5C825D",
"^  c #6D8342",
"/  c #68864C",
"(  c #728442",
")  c #758B46",
"_  c #7D9545",
"`  c #7A9549",
"'  c #63855B",
"]  c #658A5C",
"[  c #6A8D5C",
"{  c #658854",
"}  c #6D9156",
"|  c #6D945D",
" . c #6D985E",
".. c #72955C",
"X. c #749A5B",
"o. c #7A9D5B",
"O. c #769655",
"+. c #718F5C",
"@. c #7CA45D",
"#. c #7DA85E",
"$. c #7AA25C",
"%. c #5D8362",
"&. c #5B8468",
"*. c #5C8672",
"=. c #58847A",
"-. c #4C8267",
";. c #638D63",
":. c #648863",
">. c #699666",
",. c #759D68",
"<. c #618577",
"1. c #679777",
"2. c #778767",
"3. c #77A467",
"4. c #78A578",
"5. c #6FA06A",
"6. c #839C4A",
"7. c #869848",
"8. c #849A59",
"9. c #89A64C",
"0. c #9BB94F",
"q. c #97B34F",
"w. c #8CAB54",
"e. c #83A55B",
"r. c #85AB5C",
"t. c #8CAC5B",
"y. c #89A556",
"u. c #93AE5A",
"i. c #96AD56",
"p. c #8DB256",
"a. c #8DB059",
"s. c #94B553",
"d. c #9BB654",
"f. c #9DB850",
"g. c #93B259",
"h. c #9BB359",
"j. c #91AC4F",
"k. c #A1B654",
"l. c #A2B852",
"z. c #A6B656",
"x. c #989476",
"c. c #8F8D6D",
"v. c #AD976D",
"b. c #B69D73",
"n. c #AA9977",
"m. c #8DAC67",
"M. c #BCA378",
"N. c #B5A975",
"B. c #A69B5E",
"V. c #C8A876",
"C. c #C5A97A",
"Z. c #5E6E85",
"A. c #687788",
"S. c #747E85",
"D. c #5B8484",
"F. c #5E8B8A",
"G. c #5C8884",
"H. c #5B9295",
"J. c #618C8C",
"K. c #668A85",
"L. c #7C8586",
"P. c #65968A",
"I. c #74948D",
"U. c #639494",
"Y. c #669C9C",
"T. c #6A9E9E",
"R. c #679896",
"E. c #759B96",
"W. c #6CA19A",
"Q. c #77A898",
"!. c #73A58A",
"~. c #5995A1",
"^. c #669EA4",
"/. c #6CA2A2",
"(. c #6BA4AA",
"). c #71A5A5",
"_. c #74AAAB",
"`. c #75ABA8",
"'. c #7CB3B3",
"]. c #78B0AF",
"[. c #83898B",
"{. c #9B998A",
"}. c #8C9595",
"|. c #939D9C",
" X c #83A79E",
".X c #9AA791",
"XX c #A9A389",
"oX c #B8AB86",
"OX c #A9A895",
"+X c #88ADA4",
"@X c #9DA7A6",
"#X c #8BB5AD",
"$X c #89B1A8",
"%X c #92B6AB",
"&X c #87B9B5",
"*X c #96BFB5",
"=X c #B3B9BC",
"-X c #A8AFB1",
";X c #C5B68D",
":X c #D4BB87",
">X c #C6BD94",
",X c #98C2B8",
"<X c #A4CBBD",
"1X c #DAC897",
"2X c #D8C08E",
"3X c #E4D29D",
"4X c #DAD2AD",
"5X c #E4D6A3",
"6X c #E9DBA7",
"7X c #E1D9B5",
"8X c #EFE1AB",
"9X c #9FCFC6",
"0X c #A5CEC1",
"qX c #AAD7C9",
"wX c #B5DECC",
"eX c #BFC0C3",
"rX c #BCE7D3",
"tX c #B9E2CF",
"yX c #F1EBD0",
"uX c #DFE1E0",
"iX c #DFDFDE",
/* pixels */
"                                                                                                                                ",
"                                                                                                                                ",
"                                                                                                                                ",
"                                                                                                                                ",
"                                                                                                                                ",
"                                                                                                                                ",
"                                                                                                                                ",
"                                                                                                                                ",
"                                                                                                                                ",
"                                                                                                                                ",
"                                                                                                                                ",
"                                                                                                                                ",
"                                                                                                                                ",
"                                                                                                                                ",
"                  t k ' :.L :.>.>.| ] { [ X.} X.| >.,.,.1.4.4.,.,.,.>.j | o.} [ X.[ >.>.>.] j h s k s                           ",
"              & s x e.u.y.e.y.y.w.p.t.e.p.s.s.s.s.r.s.u.m.g.m.w.g.g.3.e.a.p.s.p.d.u.t.r.m.y.$.} O.$.} j                         ",
"              s } o.d.k.k.h.s.s.f.h.f.s.s.s.s.s.q.s._ ( ` 7.s.l.f.d.s.s.s.s.s.f.l.l.d.d.d.p.p.u.t.r.$.j                         ",
"              t { t.k.h.k.s.s.p.h.d.s.s.d.s.p.d.h.( = i h P x ) i.s.0.0.s.s.s.s.0.k.h.d.s.s.s.s.t.$. .A                         ",
"              g [ t.z.d.f.f.s.s.s.s.s.d.0.s.s.q.7.& 3 m D M M C x 9.0.0.s.s.s.s.f.k.d.f.d.s.s.t.r. . .j                         ",
"              h 3.t.h.f.l.k.k.h.h.h.f.f.0.0.s.d.; 4 b D Z.M M Z.F l 0.0.s.s.q.s.s.s.0.l.l.d.s.h.g.t.#.&.Z                       ",
"              <.4.3.#.s.d.q.f.q.d.q.f.f.0.q.0.0.* 4 b D Z.Z.M b F f k.f.d.s.q.s.p.p.0.0.f.0.s.d.f.d.3.*.J                       ",
"              <.5.5.#.s.s.f.f.s.p.s.s.s.p.s.s.9.% 4 y y b M Z.b M i s.s.p.s.s.s.p.s.q.0.f.0.s.p.g.g.3.1.=.                      ",
"              *.3.#.g.f.s.f.d.s.s.d.q.s.p.p.$.- % 7 7 , + 7 Z.Z.b 6 f.s.a.s.s.d.d.f.d.f.k.h.s.s.d.h.r.:.N                       ",
"              %.3.a.s.g.s.h.s.p.f.f.l.q.0.9.= $ + 7 7 4 X + M U 7 % ( s.d.k.d.f.l.f.s.s.u.8.8.j.l.k.,.] q                       ",
"              [ r.s.d.s.s.d.d.0.s.s.s.f.0.: & 4 < 3 6 1 E 7 y u y c.v.7.f.f.f.f.k.q.j.m..X|.2.6.s.k.8.] h                       ",
"              ~ $.@.i.d.s.p.s.s.s.s.s.s.s.; 4 4 , 1 1 2 V.b.W W b.V.2Xb.j.q.s.s.d.k.m..X@X|.2.6.s.u.O.] h                       ",
"              g ~ ' e.q.d.s.s.p.p.p.p.s.d.) r 6 1 7 2 p 7 v c.;X6X6X3X:X7.0.f.f.z.i..X=X-X|.I 6.t.s.t.+.g                       ",
"              q ~ X.t.d.l.k.g.s.l.f.f.s.q.j.* 4 7 4 p b.v.;X3X6X8Xn.;X5XB.0.s.f.i.m.*XeX-XS.x 9.k.h.t.' V                       ",
"              V &. .g.z.f.d.s.s.f.d.f.s.s.s.; $ + X c.C.V.:X8X8X8XI I 6Xc.Q s.f.h.x.@X@X@XU f d.d.h.O.A Z                       ",
"              g ~ X.t.h.k.s.s.p.h.h.s.q.9.; ^ ) = # c.V.V.1X8X8X8Xx.@ >X* O.p.s.m.@X|.@XL.a ^ s.h.h.y./ w                       ",
"              g >. .a.z.z.k.l.s.p.g.g._ & Y r l j.% M.C.:XoXz z z r . o $ = s.9.x |.|.@XY d w.a.s.r.$.x 8                       ",
"              Z >.$.t.h.k.f.h.d.k.l.l.: * C =XU = a C.C.:X6XXXe . . . @ oXR 6.` r }.|.}.C l s.a.$. .] ~ q                       ",
"              Z -.>.>.>.$.a.p.s.s.s.0.! N.XXU eX=X}.v E W E :X5X1X{.# ;XC.R ! : u [.L.T a _ k.s.p.t.3.4.K                       ",
"              G -.>.#.r.a.f.s.s.p.p.p.) I Y }.{.7XyXyXeX=Xm V.V.C.1X@ 1XM.E - s S.L.L.C - k.h.s.f.h.e.A B                       ",
"              Z ~ a.h.d.f.d.d.s.0.0.l._ 2.Y Z.Z.@X7X8XyXiXy b.V.V.1X% 1Xv.e $ 8 S.C L.z ) q.s.f.z.d.o.j q                       ",
"              j  .p.k.a.s.h.s.p.d.d.f._ c T A.Z.OX5X8X8XyXn W b.V.1XW ;Xr o , 1 8 i p - i.i.i.d.d.z.g...g                       ",
"              ]  .r.d.s.s.s.d.0.s.p.s._ c {.L.A.{.:X6X8X4XM o r I M.oXp u , 5 9 , 1 8 % = ` q.q.d.z.h.o.j                       ",
"              j ] @.g.s.s.p.p.s.s.s.s.j.a oX5XOXXXoX:X7X4XZ.5 9 3 # + u 5 , 2 2 2 @ # 3 n f q.s.s.d.u...h                       ",
"              j #.t.h.f.f.d.s.p.s.s.p.p.- c.5X2X:X[.}.OX1Xn + y y b y y 7 1 e v v $ % 8 i l s.s.h.h.t. .V                       ",
"              j  .@.p.s.k.k.s.s.l.l.l.d.7.c ;X5X:XA.Z.Z.p b + 7 7 7 7 7 3 # 1 e f Q l - ^ 9.d.l.z.h.e.&.Z                       ",
"              L ;.,.h.d.d.d.s.s.d.d.s.0.s.^ x.3X1XA.Z.A.T b # 3 4 1 1 % O @ 2 & _ f.d.d.s.s.s.s.p.r.3.;.Z                       ",
"              *...u.z.d.f.f.d.s.s.g.s.d.0.s.^ c.oXA.Z.[.u 8 % % % % & * O & = Q f.l.d.f.d.d.s.a.$.>.>.] V                       ",
"              Z [ t.z.f.l.k.k.d.h.h.d.f.0.0.9.f c D S.P $ = Q ( l ( Q : & ; 6.s.s.s.f.l.l.k.g.g.a.t.@.] g                       ",
"              s | $.i.z.l.f.d.d.d.d.l.l.0.s.0._ f u I * = : : ( ( : Q Q Q ) 9.s.p.s.f.f.l.k.h.d.f.h.e.j w                       ",
"              t { X.i.d.l.k.d.s.g.h.h.f.s.d.d.d.a.k f > ( ) ! ! ( ( ) ) ) @.s.s.a.g.f.f.z.z.s.t.a.t.$.s <                       ",
"              8 s } e.e.r.w.r.#.a.a.r.#.#.a.h.g.a.a.u.y.7./ / } } ) ` 9.9.s.s.t.e.g.g.g.h.u.O.[ | X.{ g w                       ",
"              w C &.<.!.!.>.;.%.>.;.%.%.~ ..X.o.X.3.m.4.:.=.&.;.&.;.[ [ X.e.o.| %.,.5.5.3.1.*.&.-.%.j G q                       ",
"              0 R.R.).&X&XR.G.=.=.G.1.G.L A Z *.P.Q.Q.`.E._.G =.R.F.=.=.&.j h F.P.!.P.P.Q._.].].).U.U.G 5                       ",
"              w Z.R._._._._./.F.J.)._.).Y.B N D././._.'.'.'.H F._./.Y./.F.i H ^.)._.^.D.J.].'.'._._.T.n o                       ",
"              8 N =.Y.Y././.^.K J T././.Y.=.V F.^.Y./././.^.Z.=.Y.Y././.U.N J Y.T.^.U.S S Y./.Y./.Y.J w o                       ",
"              U 9 S U.Y.Y.Y.Y.L B G.Y.Y.Y.Z.Z F.Y.Y.Y.Y.^.Y.G S R.T./.Y.F.0 L Y.Y.Y.F.N S U.Y.^.T.T.J 9                         ",
"              E.w K T.)./.Y.Y.J B F.Y./.^.L 0 G.Y.Y.Y.Y.Y.U.G i R.)./.W.H.0 B Y.Y.Y.D.0 B U.Y.W././.D.S                         ",
"              %Xi K T./.^.T.Y.D.H G.U./.).D.i K U.Y./.Y.Y.U.F.w G./.T.Y.U.B G Y.Y.Y.F.B D.Y.Y.Y.W.R.S K E.                      ",
"              %Xi H U.Y.Y.Y.T.H.G G.Y.Y./.D.i J._._./.Y.Y.Y.H.0 K Y.Y.Y.U.L F.Y.Y.Y.F.L H.Y.Y.Y.Y.D.n K.                        ",
"              <XH B F.Y.Y.Y.Y.J.J F.Y.Y.Y.Z.i G.)././.Y.Y.Y.D.0 J Y.Y./.R.H G.Y.Y.R.F.H F.Y.Y.Y.U.Z.Z  X                        ",
"                %XC L H.U.Y.U.G.J F.Y.Y.Y.=.N H U.Y.Y.U.Y.U.F.N B U.Y.Y.J.S J Y.Y.H.J n J U.^.Y.F.H K.<X                        ",
"                tX*XK.J.J.Y.T.E.<.Z.F.P.H.P.K.H G F.U.Z.K J K I.K.H.G.D.K I.I.G.F.D.<.I.I.A.D.F.J.I.,XrX                        ",
"                  ,X&X$X$X,X0XqX0X%X$X#X,X<X,X#X$X X XQ. X+X*XwX0X%X$X$X*X<X*X$X$X%X0XwX<X,X%X#X#X,XqX                          ",
"                      ~.~.(.(.].0XrXrXrXwX,X    ).&X&X_./.~.(.rXwXrXrXrXtX  ~.^.].&X9X    _.^.^.(.                              ",
"                                                                                                                                ",
"                                                                                                                                ",
"                                                                                                                                ",
"                                                                                                                                ",
"                                                                                                                                "
};
