/* XPM */
static char *out[] = {
/* columns rows colors chars-per-pixel */
"64 64 220 2 ",
"   c None",
".  c #181D2F",
"X  c #1D2434",
"o  c #1D242F",
"O  c #202535",
"+  c #252B35",
"@  c #252B3C",
"#  c #292B3E",
"$  c #31343D",
"%  c #353A3A",
"&  c #2A313A",
"*  c #3B4639",
"=  c #3C513E",
"-  c #424D38",
";  c #44533A",
":  c #495839",
">  c #56683B",
",  c #5B703D",
"<  c #64783C",
"1  c #626F3E",
"2  c #2C2E41",
"3  c #2C3645",
"4  c #323444",
"5  c #353549",
"6  c #3B3B4D",
"7  c #383B45",
"8  c #3E3C51",
"9  c #413E53",
"0  c #384549",
"q  c #394954",
"w  c #3D5558",
"e  c #3E564D",
"r  c #464A47",
"t  c #544E49",
"y  c #455847",
"u  c #55564A",
"i  c #434055",
"p  c #44485B",
"a  c #42595D",
"s  c #455759",
"d  c #575B53",
"f  c #675F51",
"g  c #576A45",
"h  c #5C784A",
"j  c #496859",
"k  c #546C53",
"l  c #5A7C5A",
"z  c #567758",
"x  c #4B6549",
"c  c #657B44",
"v  c #68675C",
"b  c #766A56",
"n  c #68775C",
"m  c #7B785B",
"M  c #747A45",
"N  c #494D63",
"B  c #495765",
"V  c #545C65",
"C  c #535C72",
"Z  c #4C6A6C",
"A  c #496564",
"S  c #576868",
"D  c #4C7468",
"F  c #547768",
"G  c #596779",
"H  c #4E7273",
"J  c #537374",
"K  c #567A7B",
"L  c #5A7D7D",
"P  c #537976",
"I  c #4D6C70",
"U  c #656B6B",
"Y  c #656D73",
"T  c #727571",
"R  c #867A65",
"E  c #71853F",
"W  c #6C813E",
"Q  c #5C825E",
"!  c #6D8243",
"~  c #6A8749",
"^  c #738441",
"/  c #738B44",
"(  c #76884A",
")  c #7B9648",
"_  c #62855B",
"`  c #658A5C",
"'  c #6A8D5C",
"]  c #668954",
"[  c #6D935D",
"{  c #6C945A",
"}  c #739A5B",
"|  c #799C5B",
" . c #749458",
".. c #7CA35D",
"X. c #7EA85D",
"o. c #77A45F",
"O. c #5D8463",
"+. c #5B8567",
"@. c #5C8672",
"#. c #57857A",
"$. c #498367",
"%. c #648B63",
"&. c #768669",
"*. c #699765",
"=. c #769B68",
"-. c #628677",
";. c #689676",
":. c #77A467",
">. c #78A578",
",. c #6FA06A",
"<. c #839D4B",
"1. c #85964B",
"2. c #829E57",
"3. c #85A24C",
"4. c #8BA74D",
"5. c #93AB4D",
"6. c #9BB94F",
"7. c #98B74F",
"8. c #82A55B",
"9. c #85AA5C",
"0. c #8BAC5B",
"q. c #8AA756",
"w. c #92AE5A",
"e. c #95AD54",
"r. c #8EB256",
"t. c #8DB159",
"y. c #94B554",
"u. c #9BB654",
"i. c #9DB850",
"p. c #94B259",
"a. c #9BB359",
"s. c #A1B654",
"d. c #A2B852",
"f. c #A6B756",
"g. c #878769",
"h. c #9A8566",
"j. c #888778",
"k. c #9B967D",
"l. c #909672",
"z. c #A59C7D",
"x. c #B99E72",
"c. c #B0966D",
"v. c #8DAB6A",
"b. c #BBA378",
"n. c #AEAD69",
"m. c #A69F5D",
"M. c #C8A977",
"N. c #C5A879",
"B. c #5D6D84",
"V. c #587E80",
"C. c #697788",
"Z. c #757E86",
"A. c #5B8484",
"S. c #5E8B8B",
"D. c #5C8983",
"F. c #5C9292",
"G. c #628D8D",
"H. c #678B86",
"J. c #7A8487",
"K. c #669A87",
"L. c #74948E",
"P. c #639494",
"I. c #669C9C",
"U. c #6A9E9E",
"Y. c #689894",
"T. c #738E93",
"R. c #6CA19A",
"E. c #77A898",
"W. c #73A58A",
"Q. c #5994A0",
"!. c #669EA3",
"~. c #6CA2A2",
"^. c #69A2A9",
"/. c #71A6A5",
"(. c #74ABAB",
"). c #74A9A9",
"_. c #7BB2B3",
"`. c #79B1AE",
"'. c #848B8B",
"]. c #8C9395",
"[. c #939D9D",
"{. c #929D97",
"}. c #888A93",
"|. c #88A59C",
" X c #B8AC86",
".X c #BBB69A",
"XX c #AFAB90",
"oX c #88ABA2",
"OX c #9BA5A8",
"+X c #8CB5AD",
"@X c #8BB3AA",
"#X c #91B5AA",
"$X c #88B9B6",
"%X c #96BEB4",
"&X c #9BA5B0",
"*X c #AAB3B3",
"=X c #C3B185",
"-X c #C8BE94",
";X c #D6BD8A",
":X c #96C2B9",
">X c #A3CBBD",
",X c #D9C28E",
"<X c #D9C593",
"1X c #D7C697",
"2X c #E3CF9B",
"3X c #DBD0A3",
"4X c #EDDEA9",
"5X c #E5D7A4",
"6X c #EFE1AB",
"7X c #EEE3B8",
"8X c #BCBEC2",
"9X c #A9D6C9",
"0X c #B5DECE",
"qX c #A4CEC1",
"wX c #BDE7D4",
"eX c #BAE0CF",
"rX c #9ECDC4",
"tX c #C9CACD",
"yX c #F5EDCB",
"uX c #F6F5F0",
/* pixels */
"                                                                                                                                ",
"                                                                                                                                ",
"                                                                                                                                ",
"                                                                                                                                ",
"                                                                                                                                ",
"                                                                                                                                ",
"                                                                                                                                ",
"                                                                                                                                ",
"                                                                                                                                ",
"                                                                                                                                ",
"                                                                                                                                ",
"                                                                                                                                ",
"                                                                                                                                ",
"                                                                                                                                ",
"                    y h %.n F ` *.%.{ ` _ { }  . .{ *.=.=.*.>.W.:.=.=.*.O.' | { '  .' *.*.;._ l k g h x                         ",
"                e g n 9.0.0.2.9.9.0.y.q.8.t.y.7.y.r.8.2.| v.0.t.w.p.t.:.8.r.y.r.r.a.e.0.0.0.9.| {  .X.' z                       ",
"                y ' ..a.s.s.a.y.y.i.i.u.y.y.7.y.a.<.> k n n ( 4.d.u.u.y.y.y.7.y.u.s.d.u.u.p.y.t.q.0.t.o.l                       ",
"                y ] q.s.a.u.y.y.y.a.u.p.u.y.y.y.4.: 4 p G C V U ) a.u.y.6.y.r.r.y.i.d.u.i.y.y.y.7.9.o.[ F                       ",
"                j ] t.f.u.i.i.u.y.p.y.y.6.6.y.r.< % 9 C B.C B.C u p.y.7.6.7.y.y.u.6.i.u.i.u.u.r.r.X.*.[ z                       ",
"                z :.0.i.f.d.s.u.p.a.a.u.6.6.7.y.> 9 N B.B.Y C B.C ) u.6.6.7.y.y.y.y.7.u.d.s.u.y.u.a.t.X.+.                      ",
"                -.>.:.X.y.y.u.u.u.u.u.6.6.6.7.7.- 9 p N C B.C N G g d.6.6.6.y.7.y.r.y.7.6.i.u.u.u.i.a.:.@.K                     ",
"                @.,.:.X.r.y.i.i.y.r.r.y.y.r.r.3.% 6 9 2 8 C B.N C y y.u.y.r.y.r.y.r.r.y.6.i.6.y.r.p.w.:.K.#.                    ",
"                -.o.X.p.u.u.i.u.y.7.y.i.y.r.c = # 6 9 5 O 5 B.B.p $ u.y.y.r.r.y.u.u.6.i.i.d.7.7.y.u.u.9.+.A                     ",
"                Q :.t.y.p.p.u.y.y.7.d.6.u.3.- 4 2 5 9 5 2 O C C 9 r M 5.y.u.s.d.i.d.6.r.9.k.v.3.u.s.s.| Q y                     ",
"                [ 9.p.u.y.y.u.y.y.y.y.y.7.c % 6 5 5 6 7 h.b i i v c.=Xm.7.u.6.d.i.i.e.l.OX{.&.3.y.a.f.2._ k                     ",
"                l ..8.p.y.y.y.y.y.7.y.7.7., 0 9 2 6 2 & h.=X=Xx.=X<X;XN.<.7.y.y.u.p.v.*XOX{.&.3.y.0.q.| _ z                     ",
"                j _ _ 8.y.i.y.r.r.r.r.r.y.< % 8 9 9 i R b f l.-X5X6X4X;X1.7.7.7.u.a..X*X*X].&.) y.r.p.q.{ j                     ",
"                e Q } 0.i.s.s.y.y.i.d.a.u.4.- 4 9 4 v M.x.=X2X4X6Xb XX2Xb.4.6.7.y.l.*X8X*XJ.n 4.d.d.s.q.` A                     ",
"                A +.{ p.s.u.7.y.y.i.u.u.u.r.) ; o . R N.N.;X4X6X6XR d 5Xm E 7.y.a.{.[.OX[.U h y.i.u.s. .D A                     ",
"                a Q } t.f.u.y.y.r.u.a.y.7.< % c < + XXM.M.<X6X6X6Xk.@ g.+ ) r.8.=.OX[.OXT k ) r.p.a.a.0.~ e                     ",
"                j o.*.r.f.f.f.d.p.p.w.y.> 0 ].d < - x.M.;X=X9 O O X . O d u 7.) 0 ].[.[.U c i.y.t.p.9...h 0                     ",
"                D *.o.9.a.s.i.a.u.s.s.d.; r J.tXY 7 x.N.M.;X4X Xd . o v ,Xy W g V J.T Z.d ^ p.u.p.o.*.' l e                     ",
"                D $.{ *.*.o.t.r.y.y.7.7.: T j.}.tX8X}.T t t b ;X5X5XO ;Xb.b , y T J.'.Y y 5.6.d.p.r.t.:.;.#.                    ",
"                #.$.*.:.t.y.u.y.r.r.r.p.y Y Z.}..X7XyXuXuXuXd N.M.1X@ 2XN.b > p '.Z.J.k E d.d.a.p.i.a.8.+.Z                     ",
"                D ` 0.a.y.u.u.u.7.7.i.i.; Y C.B.}.5X6X6XyX&Xt M.M.<X$ ;Xh.+ + V V U Y g 5.i.a.y.d.d.s.| z w                     ",
"                l { p.a.t.y.u.y.y.u.a.d.; T T.B.}.3X4X6X7X&X7 c.x.1X X X4 2 q 2 $ s 0 g 4.a.p.y.u.s.d.w. .j                     ",
"                _ [ 9.u.u.y.y.u.y.7.r.y.; z..XJ.}.b.2X4X6XZ.2 X r R R 6 N O 2 8 $ O o @ e / 7.u.y.y.f.a.| l                     ",
"                z ' o.r.y.p.r.y.y.y.y.y.; z.4X;X.XXX=X3X5XB.2 N p 5 4 p 3 4 t r % % 5 8 s c y.y.7.y.a.w.} j                     ",
"                l X.t.p.i.i.u.y.y.y.y.r.c g.3X<X;XZ.C.Z.k.B # 9 9 9 9 9 9 # % h.f * % r g <.y.y.p.u.a.0.*.j                     ",
"                l [ o.p.y.s.i.y.y.d.d.s.q.c  X5X1XZ.B.B.U N # 9 9 9 9 6 # # 4 ; < 6.4./ 5.d.p.y.d.f.a...%.A                     ",
"                J %...a.a.i.y.y.y.u.u.y.u.) 2.-X-XC.B.C.T p + $ 4 4 4 + o % = / 7.u.6.u.u.y.y.y.y.w.9.o.*.H                     ",
"                @.} w.s.u.u.u.u.p.p.y.y.u.6.) m l.C.Z.'.0 % : : - - : : o : ! r.y.i.d.u.i.u.7.y.r.o.*.*.+.j                     ",
"                D [ 0.s.d.d.d.d.u.p.a.u.6.6.y., y Y '.r % 1 E ^ ! ! E W * < ) y.y.y.u.7.d.d.s.a.p.t.0.X.` j                     ",
"                y { ..a.s.d.i.u.u.u.s.d.d.i.y.5.> v u * < E E < ^ ! E E E / 4.u.y.r.y.7.i.d.s.a.a.s.y.X.z 0                     ",
"                y Q ..0.a.s.s.u.y.y.a.a.a.p.u.u.4.c , / / / ^ ! ~ ! / / ) 3.y.r.y.t.p.u.d.f.f.y.0.t.t...x 3                     ",
"                0 x / 9.9.9.w.9.8.0.0.9.9.X.w.p.y.r.9.q.<.] M ] ] ~  .3.q.r.y.w.0.8.w.p.p.a.q. .] { } ] j q                     ",
"                q F F ;.W.W.*.%.+.*.*.' ` Q }  .| ,.>.v.v.@.@.+.' %.%.%.[ | 8.| ' O.:.,.:.:.;.@.P @.l D H w                     ",
"                a T.Y./.$X_.Y.A.#.#.#.G.#.P F D @.K.E.E.E.U.).H A.P.F.$.#.+.k F H.D.W.K.Y.E.(.`.`./.P.K.J 6                     ",
"                q L U.).`.).)./.S.G./.)./.Y.Z A A.~.~.).`._._.I G.(./.U.!.A.a K ~.^.).U.V.G.`._.`.(.(.U.a X                     ",
"                0 A V.I.I.U./.!.K K I./.!.!.K Z S.!.U.~.^.~.U.A.K Y.U.~.~.F.A V.U.R.!.P.I H I.^.R.I.I.K 5                       ",
"                J q J P.I.U.I.Y.P I S.I.U.U.K Z S.I.U.I.I.I.!.H Z Y.U.!.!.G.w J I.U.I.A.B J P.U.U.!.U.K w                       ",
"                L.0 V.U.~.!.!.I.P Z S.I.U.!.H a A.I.I.I.I.P.I.H a U./.!.I.S.w I I.U.I.A.a Z P.I.R.~.~.V.S                       ",
"                oXs L !.~.!.U.I.A.J A.P.~.).L a K P.U.U.I.I.P.S.q H.!.U.U.F.Z P I.I.I.A.Z A.I.I.!.U.Y.Z L                       ",
"                #Xs J P.U.I.U.I.S.K A.I.R.~.V.B G.).).!.U.I.U.F.q L I.U.U.P.P S.I.I.I.S.J F.I.!.U.I.D.B H.                      ",
"                %XU Z G.I.I.I.U.S.L S.I.!.I.K a A.)./.U.I.I.I.A.a P I.I.R.P.J S.I.!.I.A.J S.I.U.U.F.K Z oX                      ",
"                  #XJ J F.P.I.P.A.P F.I.I.I.K A J P.I.I.P.I.P.S.A H P.I.I.G.Z K I.I.F.P A K P.I.I.S.J H.>X                      ",
"                  0X%XH.H.S.P.U.L.H.K S.G.P.G.H.H K S.F.A.#.L L L.H.F.A.A.L L.L.A.A.A.H.L.H.H.V.S.G.L.:XwX                      ",
"                    :X$XoX$X:XqX9X>X+X@X+X:X>X:X@XoX|.oXE.|.|.:X0X>X#X@X@X%X>X%X@X@X+XqX0XqX:X+X+X$X:X0X                        ",
"                        Q.Q.^.^._.rXwXwXwX0X:X    ).$X$X).!.Q.^.wX0XwXwXwX0X  Q.!.(.:XqX    ).!.^.^.                            ",
"                                                                                                                                ",
"                                                                                                                                ",
"                                                                                                                                ",
"                                                                                                                                ",
"                                                                                                                                "
};
