/* XPM */
static char *out[] = {
/* columns rows colors chars-per-pixel */
"64 64 227 2 ",
"   c None",
".  c #191E30",
"X  c #1D2436",
"o  c #1E252F",
"O  c #262A3C",
"+  c #252939",
"@  c #2E343B",
"#  c #2D3635",
"$  c #30353B",
"%  c #363C3C",
"&  c #222A2F",
"*  c #3B4739",
"=  c #3C513E",
"-  c #46543B",
";  c #4B5D3B",
":  c #475537",
">  c #434F36",
",  c #5A6C3B",
"<  c #53643B",
"1  c #66783C",
"2  c #2D3746",
"3  c #333444",
"4  c #3B3A4E",
"5  c #363848",
"6  c #3C3D51",
"7  c #2D2E41",
"8  c #413E53",
"9  c #374648",
"0  c #3B4755",
"q  c #3D5558",
"w  c #3E564D",
"e  c #484845",
"r  c #524B48",
"t  c #465944",
"y  c #56594A",
"u  c #434054",
"i  c #444858",
"p  c #42595D",
"a  c #465658",
"s  c #565853",
"d  c #4B6549",
"f  c #546845",
"g  c #496859",
"h  c #536C55",
"j  c #5A7C5A",
"k  c #567758",
"l  c #5C7B4E",
"z  c #677A45",
"x  c #6A685E",
"c  c #677657",
"v  c #707055",
"b  c #474D62",
"n  c #495666",
"m  c #535C73",
"M  c #535B6E",
"N  c #466363",
"B  c #4C6A6C",
"V  c #4B6665",
"C  c #596667",
"Z  c #4C7468",
"A  c #547768",
"S  c #59667C",
"D  c #586A77",
"F  c #4E7273",
"G  c #537374",
"H  c #567A7B",
"J  c #5A7D7D",
"K  c #537976",
"L  c #4D6C70",
"P  c #646A67",
"I  c #757366",
"U  c #676D74",
"Y  c #737A7A",
"T  c #6D767A",
"R  c #61574D",
"E  c #84755A",
"W  c #857868",
"Q  c #907D60",
"!  c #72843F",
"~  c #6E813F",
"^  c #5C825E",
"/  c #6C8343",
"(  c #6A884C",
")  c #738441",
"_  c #748B44",
"`  c #748A4B",
"'  c #7A9547",
"]  c #62855B",
"[  c #658A5C",
"{  c #6A8D5C",
"}  c #668954",
"|  c #6D935C",
" . c #6C945A",
".. c #739A5B",
"X. c #799C5B",
"o. c #749458",
"O. c #7CA35D",
"+. c #7EA85D",
"@. c #77A45F",
"#. c #5D8463",
"$. c #5B8567",
"%. c #5C8672",
"&. c #57857A",
"*. c #498367",
"=. c #648B63",
"-. c #758568",
";. c #699765",
":. c #759D68",
">. c #628677",
",. c #689676",
"<. c #6FA06A",
"1. c #77A467",
"2. c #78A578",
"3. c #839E4C",
"4. c #829647",
"5. c #829E59",
"6. c #929850",
"7. c #84A34C",
"8. c #8BA84D",
"9. c #9BB94F",
"0. c #9AB64F",
"q. c #8DAC56",
"w. c #82A55B",
"e. c #85AA5C",
"r. c #8BAC5B",
"t. c #88A656",
"y. c #93AC51",
"u. c #92AE5A",
"i. c #99AF58",
"p. c #8EB256",
"a. c #8DB159",
"s. c #94B454",
"d. c #9BB654",
"f. c #9DB850",
"g. c #94B259",
"h. c #9BB359",
"j. c #93AE4F",
"k. c #A1B654",
"l. c #A2B852",
"z. c #A6B756",
"x. c #898673",
"c. c #8D8F6F",
"v. c #AB966C",
"b. c #B59C72",
"n. c #A59574",
"m. c #8EAB68",
"M. c #BCA57B",
"N. c #AFA473",
"B. c #A39A5E",
"V. c #C6A877",
"C. c #CDB17E",
"Z. c #5D6D84",
"A. c #587E80",
"S. c #637385",
"D. c #6D7B8A",
"F. c #747E86",
"G. c #5B8484",
"H. c #5E8B8B",
"J. c #5C8983",
"K. c #5C9292",
"L. c #628D8D",
"P. c #678B86",
"I. c #7B8488",
"U. c #669A87",
"Y. c #74948E",
"T. c #639494",
"R. c #669C9C",
"E. c #6A9E9E",
"W. c #689894",
"Q. c #709894",
"!. c #6CA19A",
"~. c #77A898",
"^. c #73A58A",
"/. c #5994A0",
"(. c #669EA3",
"). c #6CA2A2",
"_. c #69A2A9",
"`. c #71A6A5",
"'. c #74ABAB",
"]. c #74A9A9",
"[. c #7BB2B3",
"{. c #79B1AE",
"}. c #828C8D",
"|. c #8A9494",
" X c #969D98",
".X c #97998F",
"XX c #8FA696",
"oX c #ABA486",
"OX c #BAB08B",
"+X c #979DA6",
"@X c #88ABA2",
"#X c #8CB5AD",
"$X c #8BB3AA",
"%X c #91B5AA",
"&X c #88B9B6",
"*X c #96BEB4",
"=X c #9DA7AA",
"-X c #A2AAAB",
";X c #ABB3B5",
":X c #B5BBBA",
">X c #A29F8A",
",X c #C9B689",
"<X c #D5BB87",
"1X c #CABE93",
"2X c #96C2B9",
"3X c #A4CCBE",
"4X c #A0C4B6",
"5X c #DEC995",
"6X c #D9C797",
"7X c #CDC397",
"8X c #E4D29D",
"9X c #E1CD99",
"0X c #DBD0A3",
"qX c #D0CAAE",
"wX c #ECDEA9",
"eX c #E6D8A4",
"rX c #EFE1AB",
"tX c #F1E5B6",
"yX c #A9D6C9",
"uX c #B5DECE",
"iX c #AAC9C1",
"pX c #BDE7D4",
"aX c #BAE0CF",
"sX c #9ECDC4",
"dX c #CFD2D6",
"fX c #F4EBC8",
"gX c #F9F5E9",
/* pixels */
"                                                                                                                                ",
"                                                                                                                                ",
"                                                                                                                                ",
"                                                                                                                                ",
"                                                                                                                                ",
"                                                                                                                                ",
"                                                                                                                                ",
"                                                                                                                                ",
"                                                                                                                                ",
"                                                                                                                                ",
"                                                                                                                                ",
"                                                                                                                                ",
"                                                                                                                                ",
"                                                                                                                                ",
"                    t ^ ] A A [ ;.=. .[ ]  ...o...| ;.:.:.,.2.^.1.:.:.=.#. .X. .{ X.{ ;.;.;.=.j h f l d                         ",
"                w f c r.i.r.5.e.e.q.p.q.w.a.s.s.g.t.` ` ` | r.m.g.g.g.1.w.a.p.s.q.d.u.e.r.r.w.X. .o.+.{ k                       ",
"                w  .O.d.k.k.d.y.g.f.d.d.d.s.s.d.j.1 - a C x v ' s.d.d.s.s.s.0.s.d.l.f.d.d.d.g.a.q.q.e.@.A                       ",
"                t } q.k.i.d.s.s.g.d.d.s.s.s.p.s.z % 4 n Z.M M C z y.s.9.9.s.p.p.s.f.l.d.f.s.p.s.s.q.1...k                       ",
"                g { u.k.d.f.f.d.s.g.g.s.9.9.s.s.> 4 n S Z.S M Z.M z p.s.9.0.s.s.d.f.l.d.d.d.s.s.a.e... .j                       ",
"                h 1.r.f.z.l.k.d.s.h.d.d.9.9.0.7.% 8 M S S Z.m n S s 9.9.9.0.s.s.s.s.0.d.f.l.d.d.s.g.q.1.$.                      ",
"                >.2.1.+.s.d.f.d.d.0.d.9.9.9.9.! 8 8 u 8 b m Z.b m a l.f.9.0.s.s.s.a.s.0.9.l.0.d.d.f.h.1.%.H                     ",
"                >.<.1.+.p.s.s.f.s.p.p.s.s.p.7.< 3 8 8 O X 6 Z.Z.n u g.s.0.p.s.s.s.p.s.s.0.l.0.j.p.g.u.1.U.&.                    ",
"                %.@.+.g.d.d.d.d.s.0.d.d.p.t.< # O 8 8 5 . 7 m Z.8 # ) d.s.a.p.s.s.d.9.d.0.y.8.y.s.d.d.e.$.N                     ",
"                #.1.a.s.g.s.d.s.s.d.f.f.0.1 9 0 7 3 8 $ E 8 8 b 8 c.v.6.s.d.k.l.l.9.9.q.m.XXc.7.d.l.z.X.^ t                     ",
"                { e.h.d.s.s.f.f.s.s.p.0.9.: 5 u 7 5 5 5 V.b.W W v.C.6Xb.8.0.9.9.f.l.i..X=X X-.3.s.h.z.5.[ h                     ",
"                j O.X.g.d.p.p.s.0.s.s.s.0.; 5 u 4 u 5 y r x x.,X8XeX8X,X4.0.j.0.g.i.m.;X-X|.-.3.s.y.r.o.] h                     ",
"                h ^ [ t.s.f.s.p.p.s.p.p.s.1 % 8 8 6 s b.v.V.9XwXrXn.1XeXB.0.9.9.0.h.:XiX;X|.-.' s.a.g.q. .h                     ",
"                w ^ ..r.f.k.k.s.s.f.f.d.s.j.< + 7 X W V.V.<XrXrXrXW I eXc._ 0.0.i.c.-X;X-XY k 8.l.f.h.t.=.N                     ",
"                N $...p.k.d.f.s.s.f.d.d.d.t._ ) > o c.V.V.5XrXrXtXn.@ 1X> 3.s.y.m.=X X=X|.P / s.f.k.h.o.Z V                     ",
"                N #...e.h.k.s.s.p.h.s.s.8.f 5 , 7.# b.V.<XOXP P P e . O $ ; a.w.-. X X=XT f 7.p.g.h.d.q.} w                     ",
"                g  .;.a.z.z.l.k.s.g.g.s.: O +XI.t y M.V.C.5X,XW e . . r OXf ' / i }.}.|.h z f.g.g.a.e.O.l 9                     ",
"                Z ;.@.p.k.k.d.h.h.k.k.l.: c.P ;X:X4 R v.V.V.V.9XwX0X+ 1XV.R 1 < P }.Y T y 4.h.d.a.@.;.| l w                     ",
"                Z *.;.;.;.@.a.p.p.s.0.s.: U |.oXdXgXdX-XS.U r V.V.6X+ 9XM.E , e I.I.}.C < f.f.l.g.p.r.1.U.J                     ",
"                &.*. .1.e.s.d.d.s.p.p.s.- U D.Z..XeXtXfXgXdXr V.V.6XO 6Xv.- > C I.Y -.s _ l.f.h.g.f.d.w.$.B                     ",
"                Z ^ a.h.d.d.d.d.0.0.9.l.- U D.Z.}.0XrXrXfX=Xr b.V.6Xx.,Xe X O i i C h y d.f.h.0.f.z.k.X.j w                     ",
"                ^  .g.h.p.s.d.s.s.s.d.f.: Y I.S.}.1XeXwXtX+XX r E V.,Xs b 2 0 4 O 4 $ ; _ i.g.s.d.f.z.u.| g                     ",
"                } ..e.h.s.s.s.s.s.s.p.s.= oX0X>X.XOX<XrXrXS.5 b 4 X 7 b 0 O 3 @ 3 O + 3 w ~ 0.0.s.s.z.h.X.j                     ",
"                k { O.a.s.s.s.s.s.9.s.s.; n.wX7X,X>XoXqX6XD 7 8 b M b 8 5 2 r v e $ 3 8 a ~ p.s.s.s.h.u.;.h                     ",
"                k +.e.s.d.l.d.s.s.s.s.p.) I 1X9X<XF.Z.Z.P n O u 8 8 8 8 8 X 3 Q f 1 ; * f j.s.s.d.d.h.r.| h                     ",
"                A | +.p.s.l.d.s.d.l.l.d.h.z oXeX9XF.Z.Z.Y n O 4 6 6 8 7 + $ $ > ' f.0.9.z.k.g.d.z.l.h.O.#.B                     ",
"                A =.O.g.h.d.s.s.s.s.s.s.d.p./ oXOXD.Z.F.P i + $ 7 $ $ & & * : ' 9.9.9.d.d.s.s.s.s.a.e.1.;.F                     ",
"                &...g.z.d.d.d.d.s.h.h.s.9.9.3.z I T I.Y # > , , f < , ; o , 7.p.9.d.k.d.f.d.s.s.a.@. .;.$.g                     ",
"                k { r.k.f.l.l.l.h.h.h.f.9.9.s._ # C x.$ > ! ! ) / ) ) 1 * 1 3.s.s.s.9.9.l.l.f.h.g.a.r.O.[ g                     ",
"                a | O.g.z.l.f.d.s.d.f.k.l.9.s.d.~ c 9 ; ~ ! ! ~ ) ) ! ! ! ! 8.s.s.a.s.s.f.l.k.h.h.d.d.+.k 9                     ",
"                t } ..y.k.k.d.d.p.g.h.h.d.g.h.d.s.' / _ _ ` ) / z / ) _ ' 7.p.s.s.a.h.s.f.z.z.h.u.q.a.O.d 2                     ",
"                9 d o.w.e.e.u.r.e.r.a.e.w.e.r.g.g.q.e.t.5.` z (  .( X.7.t.r.g.u.a.e.u.g.h.h.q...{  .o.} g 9                     ",
"                0 G #.,.~.U.;.=.$.;.{ [ =.#.....O.1.2.m.1.=.&.$.[ $.=.{ | X.5.X.;.#.1.<.<.2.,.$.&.$.^ Z K q                     ",
"                q Q.L.).&X&XT.J.&.&.J.P.&.K k Z %.U.~.~.].Q.'.F &.R.K.*.&.=.h A P.J.^.U.U.~.'.{.'.`.K.U.F 5                     ",
"                9 G.E.].{.`.'.`.G.L.`.].`.T.B N H.).).'.{.[.[.F P.'.).!.(.G.p F ).).'.E.A.L.[.[.[.'.'.R.p X                     ",
"                9 V &.E.E.E.).(.H A.(.`.).(.H V H.R.(.)._.).!.A.H E.(.!.).T.N G.(.(.!.T.L F R.).!.(.R.H 9                       ",
"                D 0 Z T.R.E.E.R.K L H.R.R.E.H B H.R.R.R.(.R.R.F L R.R.(.E.H.q K R.R.R.G.n F T.(.E.E.E.H 0                       ",
"                Y.0 J (.).(.R.R.K B H.R.!.(.G n G.R.R.R.T.R.W.F b W.`.).(.H.q B R.R.R.G.p L T.R.E.(.`.A.D                       ",
"                @Xa J (.).(.E.R.G.G G.T.).'.A.p H T.E.R.R.R.R.H.0 J.).!.(.T.B H R.R.R.H.B G.R.R.E.(.T.B J                       ",
"                %Xp G T.E.R.R.R.H.H G.R.R.).A.p L.'.'.).R.R.(.H.q H R.R.R.T.G H.R.R.R.H.K L.R.R.R.R.P.N P.                      ",
"                *XC B P.R.R.R.R.H.J H.R.R.R.H n P.`.`.(.R.R.R.G.p K R.(.!.T.G G.R.R.R.G.G H.R.R.E.T.H V @X                      ",
"                  %XG G T.T.R.R.G.K T.R.R.R.H V L T.R.R.W.R.T.H.n F T.R.R.L.L J R.R.T.K N J T.E.R.H.G P.3X                      ",
"                  uX*XY.G.G.R.E.Q.>.A.P.K.T.P.P.G J H.H.J H J J Y.P.K.J.J.J Y.Y.G.H.A.P.Y.P.G.G.G.P.Y.2XpX                      ",
"                    2X#X$X#X2XsXyX2X%X$X#X*XsX2X%X@X].@X~.@X@X2XuX3X%X$X$X*X3X*X$X@X#XiXuXiX2X#X#X&X2XuX                        ",
"                        /./._._.[.yXpXpXpXuX2X    `.&X&X].(./.).pXuXpXpXpXuX  /.(.{.2XsX    '.(._._.                            ",
"                                                                                                                                ",
"                                                                                                                                ",
"                                                                                                                                ",
"                                                                                                                                ",
"                                                                                                                                "
};
