/* XPM */
static char *out[] = {
/* columns rows colors chars-per-pixel */
"64 64 223 2 ",
"   c None",
".  c #191F30",
"X  c #181E2F",
"o  c #1E2436",
"O  c #1C232F",
"+  c #252A39",
"@  c #2E343B",
"#  c #33383B",
"$  c #3A4538",
"%  c #435236",
"&  c #4C5B3B",
"*  c #48553E",
"=  c #55663B",
"-  c #576939",
";  c #65783D",
":  c #2C2E41",
">  c #2B3845",
",  c #333544",
"<  c #36364A",
"1  c #3A394D",
"2  c #363A49",
"3  c #3F3D51",
"4  c #343D52",
"5  c #413F54",
"6  c #394644",
"7  c #3B4354",
"8  c #394C53",
"9  c #3A4857",
"0  c #3E545A",
"q  c #364C4B",
"w  c #484845",
"e  c #57574B",
"r  c #434155",
"t  c #44495A",
"y  c #425A5D",
"u  c #435858",
"i  c #565755",
"p  c #465843",
"a  c #4A6348",
"s  c #556845",
"d  c #5B774A",
"f  c #4A6858",
"g  c #586557",
"h  c #5B7C5A",
"j  c #557659",
"k  c #4F725F",
"l  c #677B44",
"z  c #69695B",
"x  c #697A5A",
"c  c #797E5A",
"v  c #6F6853",
"b  c #4A4B61",
"n  c #495766",
"m  c #51596D",
"M  c #545D74",
"N  c #4C6B6C",
"B  c #496665",
"V  c #55646A",
"C  c #4B7667",
"Z  c #547668",
"A  c #4D6E72",
"S  c #586679",
"D  c #4E7274",
"F  c #527374",
"G  c #567A7A",
"H  c #597D7D",
"J  c #537976",
"K  c #656867",
"L  c #797665",
"P  c #646C73",
"I  c #68767C",
"U  c #6F7B70",
"Y  c #675C4F",
"T  c #85755C",
"R  c #877866",
"E  c #907D60",
"W  c #72863F",
"Q  c #6B823E",
"!  c #5E835C",
"~  c #5F8054",
"^  c #6C8343",
"/  c #698446",
"(  c #728442",
")  c #738C42",
"_  c #778E4C",
"`  c #799547",
"'  c #6B8C55",
"]  c #658A5C",
"[  c #678859",
"{  c #758954",
"}  c #6D935C",
"|  c #6C965C",
" . c #729456",
".. c #749B5B",
"X. c #799C5B",
"o. c #769259",
"O. c #7CA35D",
"+. c #7EA95D",
"@. c #76A25E",
"#. c #5D8464",
"$. c #5A8568",
"%. c #588478",
"&. c #4A8367",
"*. c #618463",
"=. c #638D63",
"-. c #648D6A",
";. c #6B9B61",
":. c #6A9566",
">. c #769D67",
",. c #699776",
"<. c #6E8875",
"1. c #76A367",
"2. c #7BA776",
"3. c #6FA06A",
"4. c #839C49",
"5. c #889849",
"6. c #869C57",
"7. c #8BA44C",
"8. c #87A64D",
"9. c #94AD4D",
"0. c #9BB94F",
"q. c #9BB34F",
"w. c #82A55B",
"e. c #84AA5B",
"r. c #8CAC5A",
"t. c #8AA756",
"y. c #92AE5A",
"u. c #94AD55",
"i. c #8EB256",
"p. c #8CB159",
"a. c #94B454",
"s. c #9BB654",
"d. c #9CB850",
"f. c #93B159",
"g. c #9BB358",
"h. c #A1B654",
"j. c #A3B852",
"k. c #A6B657",
"l. c #858574",
"z. c #8C9776",
"x. c #918D6C",
"c. c #AA966C",
"v. c #B29A72",
"b. c #AC9873",
"n. c #87A762",
"m. c #93AB66",
"M. c #BCA478",
"N. c #AFA274",
"B. c #A49A5E",
"V. c #C8A876",
"C. c #C6A978",
"Z. c #CDB17E",
"A. c #5D6D84",
"S. c #5B7A82",
"D. c #647487",
"F. c #757E81",
"G. c #5B8484",
"H. c #5E8B8B",
"J. c #5B8883",
"K. c #55919E",
"L. c #5B9389",
"P. c #618C8D",
"I. c #688985",
"U. c #7A8589",
"Y. c #659688",
"T. c #74948E",
"R. c #639494",
"E. c #669C9C",
"W. c #6A9E9E",
"Q. c #679895",
"!. c #769993",
"~. c #74A89A",
"^. c #70A492",
"/. c #5C98A2",
"(. c #679DA2",
"). c #6CA2A2",
"_. c #69A2A9",
"`. c #71A6A5",
"'. c #74AAAB",
"]. c #77ABA9",
"[. c #7BB2B2",
"{. c #78B1B0",
"}. c #81898B",
"|. c #9A998C",
" X c #949D9B",
".X c #8D9391",
"XX c #83A49C",
"oX c #9AA696",
"OX c #B8AC8A",
"+X c #B2AE93",
"@X c #87ACA3",
"#X c #9CA5A5",
"$X c #8BB3AA",
"%X c #93BAAE",
"&X c #90B1A7",
"*X c #8ABAB5",
"=X c #96BEB4",
"-X c #ABB5B5",
";X c #B1B6B4",
":X c #C7B488",
">X c #D3B986",
",X c #C8BD93",
"<X c #C1AD86",
"1X c #98C4B9",
"2X c #A6CBBD",
"3X c #DEC995",
"4X c #D8C796",
"5X c #CAC095",
"6X c #E3D29D",
"7X c #D7CDA6",
"8X c #E8DAA6",
"9X c #EFE1AB",
"0X c #F1E6B9",
"qX c #A3CEC1",
"wX c #A9D4C7",
"eX c #B3DECE",
"rX c #BDE8D4",
"tX c #BAE2CF",
"yX c #9DCDC5",
"uX c #C5C7C9",
"iX c #D4D4D5",
"pX c #F3F2EC",
"aX c #DCEED8",
/* pixels */
"                                                                                                                                ",
"                                                                                                                                ",
"                                                                                                                                ",
"                                                                                                                                ",
"                                                                                                                                ",
"                                                                                                                                ",
"                                                                                                                                ",
"                                                                                                                                ",
"                                                                                                                                ",
"                                                                                                                                ",
"                                                                                                                                ",
"                                                                                                                                ",
"                                                                                                                                ",
"                                                                                                                                ",
"                                                                                                                                ",
"                    # p h [ *.#.[ :.:.| ] ] } X. ...o.:.>.>.,.2.2.1.>.>.-.*.:.X. .} X.} :.:.:.] h j s h s                       ",
"                    d / e.y.t.n.w.t.p.a.r.w.i.a.a.8./ Z { x x ' p.f.i.f.O.+.i.a.a.a.s.y.e.r.p.w.O.'  .+.' j                     ",
"                  a ' w.g.h.h.s.a.f.s.h.s.a.a.s.5.= w m S M m V x 7.s.s.a.0.i.a.a.s.h.d.s.s.s.a.i.u.r.e...h                     ",
"                  u [ r.h.g.s.s.a.a.s.s.s.0.a.i.s , 5 M A.A.m M V z 9.a.0.0.a.i.i.s.d.h.s.s.a.i.a.a.r.O.| k                     ",
"                  f } f.k.g.s.s.a.f.f.p.a.0.0.` 6 5 M M M A.M m S m ) a.a.0.0.i.i.s.d.j.s.s.s.s.i.i.+.| ;.j                     ",
"                  j 1.p.g.j.j.j.g.s.s.s.s.0.0.W % 5 m t 3 b A.b m m ( s.0.0.0.a.a.s.i.a.0.0.j.s.g.g.g.p.1.#.C                   ",
"                  -.2.1.O.a.s.s.d.s.a.0.0.0.0.W 5 5 5 + . : A.A.b 9 ) d.0.0.0.a.q.a.i.a.s.0.0.s.a.s.d.g.1.%.J                   ",
"                  ,.3.1.w.i.a.s.d.a.i.i.i.a.a.Q # 5 5 1 . : m A.r : ^ a.0.a.i.a.i.a.i.a.q.0.d.s.a.a.i.f.1.Y.%.                  ",
"                  -.1.1.a.s.s.s.0.a.a.0.0.i.s $ + , 5 < v 5 b b r E c.5.a.i.i.i.a.s.s.0.d.s.j.a.a.a.s.s.e.$.y                   ",
"                  *.+.p.a.i.a.s.i.a.s.d.d.( $ < < < , , M.b.R R c.>X4Xv.9.9.0.j.j.j.s.d.t.6.z.n.i.s.k.h.X.! 0                   ",
"                  | e.f.s.s.a.s.s.a.a.a.s.& 2 5 3 < , i e z x.<X6X8X6X>X5.q.s.d.d.s.q.m.oXoXl.6.s.s.f.h.6.' a                   ",
"                  [ O.w.a.a.i.a.a.a.0.a.a.* < r 5 1 i v.c.C.6X8X9Xb.,X6XB.0.a.a.u.s.y.oX-X#XU _ a.a.p.t...] k                   ",
"                  f ! ] +.s.0.a.a.i.i.p.i.& , 5 5 : l.V.C.>X9X9X9XL U 8Xx.W 0.a.s.g.m.;X-X#X<.{ i.a.a.f.t.} f                   ",
"                  u ! ..r.s.j.h.a.a.j.j.s.4.% @ + o x.V.V.3X9X9X9Xz.@ 5X* 4.0.s.9.n.-X-X-X XU _ 0.d.j.g.t.*.B                   ",
"                  B $.| f.k.s.s.a.a.d.s.s.` - - % + M.V.>XOXz K z w X o @ & i.a.y.}. X#X#XP s 8.s.0.h.g.{ C B                   ",
"                  f ! @.r.g.h.0.a.a.s.p.& K t s ; g M.V.Z.3X:XR w . O e OXe ` 8.o. X#X#XU.g ) a.i.f.g.g.e./ q                   ",
"                  j ;.;.y.k.k.j.d.f.p._ # , uXI @ e v.V.V.V.Z.6X8X8X+ 5XM.v W 8.p F. X#XP s j.s.a.f.p.e.O.d 6                   ",
"                  C :.@.r.g.s.s.s.a.s.4.c l.P uX;X}.i R E T v.V.Z.3X+ 3XM.T Q ; t }.U }.g ; j.a.s.y...;.:.h q                   ",
"                  C &.:.:.;.+.r.p.a.a.` c I .X|.8XpXpXiX;X}.T V.V.4X@ 3Xv.e - & I }.}.P & 9.d.j.h.a.i.p.1.,.J                   ",
"                  J &.;.+.e.f.s.a.a.i./ x.U.A.A.+X7X9X0XpXM L M.V.3XR :Xw > + w U.U U.i l s.j.j.g.a.s.g.X.#.N                   ",
"                  C ] r.g.s.h.s.s.q.s.; l.U.A.A.5X9X9X9XuX5 o w T M.:Xm 9 o 2 7 t g V w 9.h.h.a.a.j.k.h...h 8                   ",
"                  ! | y.s.p.a.s.a.a.s.; z.+XU.D.<X7X9X9X;X9 S n 4 + + b 9 o b 9 + < $ = _ 8.s.a.a.s.s.k.f.} f                   ",
"                  ] } w.a.s.a.a.s.a.a./ x.4X7X|.+X<X,X8X+Xm < b M S M 5 : : w , # @ + < 0 l a.s.a.s.a.k.f.X.h                   ",
"                  h } w.f.a.a.a.a.a.a.` v 5X6X>X+X}. X,XR n 5 5 5 5 5 5 5 + Y x.5 # 2 9 u ^ a.a.0.a.a.s.y.o.f                   ",
"                  h +.r.s.s.s.s.a.i.a.8.Y |.8X>X|.D.A.P 2 2 5 5 3 3 5 5 + + # Y ; ; & $ ; q.a.a.i.a.a.g.r.;.B                   ",
"                  h ;.O.a.s.s.s.a.s.j.k.5.{ :X8X.XD.A..X5 : , , < , # + O @ $ - 8.a.d.d.d.j.h.a.s.k.k.g.1.$.B                   ",
"                  J =.w.g.s.s.s.a.i.s.s.s.) c ,XF.A.}.K 2 $ % % $ * & & O $ - 8.a.a.d.d.s.s.s.i.a.s.r.w.1.-.C                   ",
"                  $...y.h.s.s.s.s.a.a.f.s.0.- L M I <.# $ ; ( W ^ / Q l $ ; ` a.a.a.s.h.s.j.s.a.a.p.O.;.| #.f                   ",
"                  k } r.g.h.j.j.s.s.g.g.s.0.7.& i K * = ; W W ( ( ^ ^ ^ W W 9.a.a.a.a.d.d.j.j.s.s.p.p.r.+.] u                   ",
"                  f | w.u.k.j.s.s.s.s.s.d.j.s.4.l s l / ) ) W ( l W ( ) ` 7.a.9.a.a.i.a.s.0.j.h.g.s.g.g.w.d 6                   ",
"                  a [  .y.s.j.j.a.a.f.g.s.f.a.s.s.a.y.t.7.5.5.5.` ` 8.t.9.0.i.a.a.a.p.f.s.s.k.k.f.r.p.p.@.a >                   ",
"                  6 a  .w.n.r.r.e.w.r.y.e.w.+.r.g.a.n.r.f.f.6.6.w.w.w.p.a.y.r.p.a.r.e.a.a.f.g.t.' ' ' ..[ f q                   ",
"                  0 Z *.,.^.^.:.*.#.=.] =.#.! ......1.2.n.2.-.%.$.=.#.=.] } ..w.>.] *.>.>.3.2.,.%.%.Z $.k J 8                   ",
"                  n Q.Q.`.*X[.Q.J.%.G.J.Y.%.%.C C %.Y.^.~.].^.'.D %.E.L.%.%.$.f Z I.L.^.Y.Q.~.{.{.{.`.R.R.F >                   ",
"                  8 H Q.].].'.'.).G.P.'.'.).R.N B G.).~.'.[.[.[.D P.'.).(.W.I.n J (.`.'.E.G.H.'.*X{.'.'.(.0 o                   ",
"                  8 B G.W.E.(.).W.G H W.).).E.G N P.).W.).).).).G.G E.E.).).P.B %.(.W.).R.N G E.).).E.E.G >                     ",
"                  V 8 D R.E.E.E.Q.F F H.E.).E.G N H.E.E.E.E.E.W.A A Q.E.).E.H.0 F E.W.E.J.y D R.E.W.W.W.G 8                     ",
"                  I.q D.).`.W.W.E.D A H.R.).(.D y G.Q.(.E.Q.E.K.D y Q.).).E.H.y A Q.(.E.S.0 D R.E.E.).).H F                     ",
"                  !.y H (.).W.W.E.G.D G.R.).'.H u H Q.(.E.E.E.R.H.8 P.(.(.E.L.N G E.E.E.G.N G.E.E.E.).R.N I                     ",
"                  XXy F R.).E.E.E.L.G J.E.).).S.n R.].'.).(.E.).P.8 H E.E.E.R.J H.E.E.E.H.J R.E.E.E.E.J.B T.                    ",
"                  &XF N H.E.E.E.(.P.G H.E.).E.G 0 G.`.).E.E.E.R.H.y G E.E.W.R.F H.E.E.E.G.F H.E.E.E.L.G.B @X                    ",
"                    &XF F R.Q.R.Q.S.G R.E.E.E.G B F R.(.(.R.Q.R.H.n F R.Q.E.H.F G.E.E.L.G n H Q.E.Q.H.A T.2X                    ",
"                    tX=XU.J.H.Q.(.Q.%.S.H.R.R.I.<.F G H.L.G %.G %.T.P.H.G.G.H T.T.G.G.S.I.!.I.G.G.H.P.!.2XrX                    ",
"                      1X*X$X*X1XwXeX2X%X&X%X1XqX=X*X$X@X@X!.@X@X2XeXqX%X&X&X1X2X*X$X$X=XqXeXwX1X%X%X*X=XwX                      ",
"                          K./._.(.{.qXrXrXrXeX*X    _.*X*X'._.K.(.rXeXrXrXrXeX  K.(.{.*XyX      /.(.`.                          ",
"                                                                                                                                ",
"                                                                                                                                ",
"                                                                                                                                ",
"                                                                                                                                "
};
