/* XPM */
static char *out[] = {
/* columns rows colors chars-per-pixel */
"64 64 225 2 ",
"   c None",
".  c #161C2E",
"X  c #1E2334",
"o  c #1F2639",
"O  c #1B232F",
"+  c #212535",
"@  c #242935",
"#  c #292C3C",
"$  c #2E3938",
"%  c #313739",
"&  c #3A453A",
"*  c #424E3A",
"=  c #4C5B3A",
"-  c #5B6A3C",
";  c #5D723D",
":  c #64773C",
">  c #2C2F42",
",  c #2C3743",
"<  c #323444",
"1  c #363549",
"2  c #3B3A4D",
"3  c #363A49",
"4  c #3C3D51",
"5  c #413E53",
"6  c #413E40",
"7  c #394447",
"8  c #3E5449",
"9  c #3A4854",
"0  c #3F5659",
"q  c #2E4349",
"w  c #434848",
"e  c #475944",
"r  c #565847",
"t  c #434155",
"y  c #454959",
"u  c #425A5D",
"i  c #42565B",
"p  c #5A5B57",
"a  c #544E4A",
"s  c #675C54",
"d  c #4B6348",
"f  c #556744",
"g  c #5B7647",
"h  c #496758",
"j  c #586656",
"k  c #567759",
"l  c #4D7057",
"z  c #657843",
"x  c #69645A",
"c  c #746954",
"v  c #6A7757",
"b  c #7A765D",
"n  c #464D62",
"m  c #495666",
"M  c #52596C",
"N  c #535C72",
"B  c #4C6B6C",
"V  c #496765",
"C  c #58696B",
"Z  c #4C7568",
"A  c #547668",
"S  c #4D6E72",
"D  c #596879",
"F  c #4E7274",
"G  c #527374",
"H  c #567A7A",
"J  c #597D7D",
"K  c #537977",
"L  c #696C68",
"P  c #666D74",
"I  c #667578",
"U  c #737C7C",
"Y  c #73736A",
"T  c #87785A",
"R  c #867A65",
"E  c #917E62",
"W  c #72883F",
"Q  c #6F823E",
"!  c #5D835C",
"~  c #5F8054",
"^  c #6C8243",
"/  c #688348",
"(  c #728441",
")  c #758B45",
"_  c #7A9548",
"`  c #658A5C",
"'  c #6B8E5C",
"]  c #668856",
"[  c #748855",
"{  c #6D935C",
"}  c #6C965C",
"|  c #729456",
" . c #749B5B",
".. c #799C5B",
"X. c #74945B",
"o. c #7CA35D",
"O. c #7DA85D",
"+. c #5D8464",
"@. c #5A8467",
"#. c #598577",
"$. c #4A8367",
"%. c #638D63",
"&. c #638764",
"*. c #6B9B61",
"=. c #6A9566",
"-. c #779B67",
";. c #628A73",
":. c #699776",
">. c #7F8673",
",. c #76A367",
"<. c #7BA776",
"1. c #6FA06A",
"2. c #849949",
"3. c #839D57",
"4. c #82885D",
"5. c #8AA44C",
"6. c #88A64C",
"7. c #92AA4F",
"8. c #9BB94F",
"9. c #94B14D",
"0. c #8BAB53",
"q. c #82A55B",
"w. c #84AA5B",
"e. c #8CAC5A",
"r. c #88A557",
"t. c #92AE5A",
"y. c #94AD54",
"u. c #8EB256",
"i. c #8CB059",
"p. c #94B554",
"a. c #9BB654",
"s. c #9DB850",
"d. c #93B159",
"f. c #9BB358",
"g. c #A1B654",
"h. c #A3B852",
"j. c #A6B657",
"k. c #858369",
"l. c #918E6E",
"z. c #BC9F71",
"x. c #AB9975",
"c. c #87A763",
"v. c #93AC6C",
"b. c #BBA378",
"n. c #ABAA71",
"m. c #A79F5E",
"M. c #C3A575",
"N. c #C8A876",
"B. c #C7AB7B",
"V. c #5D6E85",
"C. c #597F80",
"Z. c #687687",
"A. c #747881",
"S. c #5B8484",
"D. c #5E8B8B",
"F. c #5B8883",
"G. c #55919E",
"H. c #5B9389",
"J. c #618C8D",
"K. c #678A86",
"L. c #7B8486",
"P. c #77878A",
"I. c #659688",
"U. c #74948E",
"Y. c #639494",
"T. c #669C9C",
"R. c #6A9E9E",
"E. c #679895",
"W. c #739892",
"Q. c #74A89A",
"!. c #70A492",
"~. c #5C98A2",
"^. c #679DA2",
"/. c #6CA2A2",
"(. c #69A2A9",
"). c #71A6A5",
"_. c #74AAAB",
"`. c #77ABA9",
"'. c #7BB2B2",
"]. c #78B1B0",
"[. c #838D8E",
"{. c #999A87",
"}. c #899291",
"|. c #939C9A",
" X c #898F8A",
".X c #83A59D",
"XX c #9AA490",
"oX c #B6AB8B",
"OX c #BCB28B",
"+X c #BAB396",
"@X c #AEA381",
"#X c #88ACA3",
"$X c #9BA4A4",
"%X c #8BB3AA",
"&X c #93B9AD",
"*X c #8ABAB5",
"=X c #96BEB4",
"-X c #A3A9AC",
";X c #AEB5B2",
":X c #979AA1",
">X c #C8B485",
",X c #C5BA92",
"<X c #D7BE8B",
"1X c #98C4B9",
"2X c #A6CBBD",
"3X c #D9C28E",
"4X c #D9C694",
"5X c #CFC69F",
"6X c #E3CF9B",
"7X c #D1CAA9",
"8X c #E3D5A3",
"9X c #ECDEA9",
"0X c #EADAA4",
"qX c #EFE1AB",
"wX c #F0E3B2",
"eX c #BDBEC1",
"rX c #A3CEC1",
"tX c #A9D4C7",
"yX c #B3DECE",
"uX c #BDE8D4",
"iX c #BAE2CF",
"pX c #9DCDC5",
"aX c #F3ECD3",
"sX c #EBEBE9",
"dX c #C7DDD2",
/* pixels */
"                                                                                                                                ",
"                                                                                                                                ",
"                                                                                                                                ",
"                                                                                                                                ",
"                                                                                                                                ",
"                                                                                                                                ",
"                                                                                                                                ",
"                                                                                                                                ",
"                                                                                                                                ",
"                                                                                                                                ",
"                                                                                                                                ",
"                                                                                                                                ",
"                                                                                                                                ",
"                                                                                                                                ",
"                                                                                                                                ",
"                    $ d k ] &.+.` =.=.} ` ` { ..| ..{ =.-.-.:.<.<.,.-.-.:.+.{ ..| { ..' =.=.=.` k l g v d                       ",
"                  8 g / w.t.r.r.q.e.e.d.e.w.u.p.p.u.u.O.2.6.c.d.v.i.d.u.O.w.u.p.p.d.f.t.e.w.i.q.o.| | O.' l                     ",
"                  e ' o.f.g.g.a.p.d.s.a.a.p.p.p.p.5.Q f j v v ) 0.s.s.a.p.p.p.p.p.a.h.s.p.a.f.p.p.0.e.w.*.k                     ",
"                  e ] e.g.f.a.p.d.u.a.a.p.p.p.9.2.f 6 y D N D C v _ s.f.8.p.p.p.u.8.s.g.s.s.p.p.p.p.e.,.} k                     ",
"                  h { d.j.f.a.a.a.p.d.d.p.8.8.p.e 1 y N V.D N M M j 2.u.8.8.p.u.p.p.s.g.s.f.a.p.u.u.O. .*.k                     ",
"                  k ,.i.f.h.h.a.a.f.f.a.8.h.8.6.& 5 N D V.V.N V.m M z a.8.8.8.p.p.p.p.p.s.s.h.a.f.a.f.e.,.+.Z                   ",
"                  ;.<.,.q.d.a.8.8.a.p.8.8.8.8.W 3 4 M n t n V.V.M D - 8.8.8.8.9.8.p.u.p.s.8.s.s.p.a.s.f.,.#.K                   ",
"                  ;.1.1.q.u.p.a.8.p.u.u.p.p.8.) 6 5 5 > o > N V.M t = d.p.p.u.p.u.p.u.p.p.s.s.a.p.u.p.d.,.I.#.                  ",
"                  @.,.O.d.a.a.a.p.p.8.p.8.p./ & + 2 5 1 > o n N 5 w - 7.a.u.u.u.p.p.a.8.s.s.a.f.p.p.a.f.w.+.u                   ",
"                  +.O.e.p.d.p.a.p.p.s.h.8._ * 3 # 1 2 < l.T 5 t x x.B.m.s.8.s.g.h.h.s.s.e.c.XXv.d.a.g.j. .] i                   ",
"                  { w.f.a.p.p.a.a.p.p.u.8.: w 5 1 3 > % l.B.z.z.B.4X3Xb.5.p.a.s.8.8.h.d.{.$X}.c.p.p.p.g.3.` d                   ",
"                  k o...p.a.u.p.p.8.p.p.p.- 7 t 1 2 w E c x l.,X0X9X0X4X2.p.p.p.p.p.0.v.;X$X}.4.8.p.u.e.X.` l                   ",
"                  h ` ` w.p.8.p.u.u.u.u.u.: 3 t 5 1 x b.b.B.8X9XqXY x.0Xz.6.p.8.8.8.n.-X;X$XP.-.u.p.u.y.e.{ h                   ",
"                  h !  .e.a.h.g.p.p.g.g.f.6.* > 1 X k.M.N.3XqXqXqX>.p 8Xb _ 8.8.a.t.{.;X;X$XU [ a.h.h.f.r.] m                   ",
"                  V @. .t.j.a.a.p.p.s.s.a._ ) ; * X x.B.N.4XqXqXqXx.o k.$ W p.9.0.c.-X$X-XL.j ) p.8.f.j.' k B                   ",
"                  h !  .e.j.g.p.p.u.a.0.= w e _ r.& b.B.3X>X7 X X X . o p r p.i.c. X|.$X$XP g y.u.p.f.f.0.~ 7                   ",
"                  l *.*.e.j.j.h.h.p.d.g @ |.[.w - s b.N.N.3X9XoXp . O x 3Xr W 9./ C |.$X[.j ) s.d.d.e.w.o.~ 7                   ",
"                  Z =.o.e.f.a.a.f.f.g.: R x -X-Xn 6 E M.M.N.B.3X8X8X@ 4Xb.c W _ = P }.L.P f 5.f.f.0.o.*.*.k 8                   ",
"                  Z $.=.*.*.o.i.u.p.p.; >.|. X;XaXsXeXU P 3 M.N.M.4X@ 4Xb.T : _ 9 }.L.L.p : 8.8.a.a.u.i.c.:.K                   ",
"                  #.$.*.O.w.d.a.8.u.i.g >.P.Z.P.7XwXaXaXsXm M.N.B.4X% 4Xl.7 $ f P L.U P e 5.h.h.f.d.a.f.-.A B                   ",
"                  Z ` e.f.a.g.a.8.p.a.z k.A.V.V.5XqXqXqXdXt s x.b.3XOX@X< o > , L y U C ; a.h.f.a.s.h.j...k 8                   ",
"                  k X.d.a.u.p.a.d.u.p.z l.|.Z.V.,X0X9XqXeXt 3 o a b R 2 n + n 4 < < y e ) r.a.d.p.p.a.j.d.{ h                   ",
"                  ` } w.a.p.d.p.8.8.p.; x.8X+XP.oX>X8XqX{.9 n M m 3 4 M # + $ 3 5 # + @ $ d 6.8.8.p.p.j.d...k                   ",
"                  k { o.d.p.p.u.u.p.p._ b +X8X>X,X{.+X5X{.M 1 5 t n 5 5 5 < 3 s a # < 3 9 j _ p.p.8.p.f.t.{ h                   ",
"                  k O.e.a.a.a.a.p.p.p.p.r l.8X<XoXA.V.V.a m 1 5 5 5 5 5 1 # % r T = = & w g 7.d.p.p.p.f.e.{ V                   ",
"                  k *.O.u.f.h.h.p.p.j.j.9.[ OX4X+XZ.Z.Z.M i % 1 4 1 1 > O O 3 # f 2.9.2.2.9.g.p.a.h.j.f.O.@.V                   ",
"                  A =.3.f.a.a.p.p.p.p.a.a.2.4.5X{.Z.Z.}.y 3 $ % % % & & O $ & = 5.a.s.8.a.a.p.p.p.a.e.w.,.;.Z                   ",
"                  #.X.t.j.a.a.s.a.d.p.d.p.8.Q k.Y Z.P.x % = Q W ^ / ^ : & : : _ u.p.g.h.a.h.a.a.d.e.,.*.} +.h                   ",
"                  Z { e.f.a.h.h.h.a.f.f.8.8.9.: w P L $ = W W W ( ^ ^ ( W W 6.p.p.p.p.8.8.s.h.g.p.d.u.e.O.` u                   ",
"                  h { o.f.h.h.s.a.p.a.g.h.s.s.7.f v = ; ( ( ( ( ^ ( ^ ) _ 7.8.p.a.p.i.u.p.8.h.g.a.a.j.f.O.g q                   ",
"                  d /  .t.g.h.s.a.p.d.f.f.f.d.a.y.2.5.r.5.5.2.2._ _ 6.0.9.p.u.p.p.p.i.f.8.h.h.j.d.e.i.e. .d $                   ",
"                  7 d | r.c.r.e.w.o.e.e.w.w.O.e.d.p.e.w.f.t.3.3.O.q.q.e.y.y.e.u.u.t.q.y.d.d.f.r.| ] `  .] l q                   ",
"                  9 A +.:.!.!.:.` +.%.` %.+.!  .X...1.<.v.<.&.#.@.%.+.%.` ' ..o. .%.&.-.1.,.<.:.@.#.@.@.Z K 9                   ",
"                  m T.E.).*X'.E.F.#.S.F.I.#.K k Z #.I.Q.Q.`.Q._.F #.E.H.J #.@.l A K.I.!.I.E.Q.`.].'./.T.Y.G ,                   ",
"                  q I E._.`._._.).S.J.)._.).T.B V S././._.'.'.].F J._./.R.R.D.m K /.(._.R.C.J.].'.]._._.^.0 X                   ",
"                  9 V #.T.^.^./.^.H #.R././.T.H B D.R.R./././.T.S.H T.T././.J.V #.^.R.R.Y.B G T./.^.T.T.H ,                     ",
"                  G 9 G Y.T.T.T.T.G S D.T.T.T.J B H.T.T.T.T.T.T.S S T.T./.T.D.0 G T.T.T.F.u G Y.T.R.R.R.H 9                     ",
"                  U.9 S./.).R.R.T.F B J.T.^.^.S u S.T.T.T.Y.T.Y.F 0 R.)./.R.D.0 S T.T.T.C.u S G.T.^./.).J G                     ",
"                  .X0 I R./.^.T.T.S.G S.E./._.C.i H Y.R.T.T.T.T.D.9 F.R.^.T.D.B H T.T.T.S.B S.^.T.T.R.Y.B I                     ",
"                  #Xu K Y.R.R.T.T.J.H D.T.R./.H m Y.`._./.T.T.T.D.0 J T.T.T.Y.K D.T.T.T.D.G Y.T.T.T.T.F.V U.                    ",
"                  &XG B D.T.T.T.T.J.H D.T.T.T.H u F.).).^.T.T.T.S.u H T.T.R.Y.G D.T.T.T.S.G D.T.^.T.Y.H V #X                    ",
"                    %XC K Y.Y.E.E.C.H J.^.^.T.K V G Y.T.T.Y.T.Y.D.m G Y.T.T.F.C S.T.E.Y.G V J E.T.T.D.G U.2X                    ",
"                    iX=XU.S.D.E.^.E.I C.D.D.Y.Y.;.G H D.D.J J H #.U.J.D.S.S.#.U.U.S.S.C.K.U.K.K.S.F.K.W.2XuX                    ",
"                      1X*X%X*X1XtXyXrX=X%X&X1XrX=X&X#X#X#XQ.#X#X2XiXrX*X%X&X1XrX*X%X%X=XrXyXrX1X&X*X*X1XtX                      ",
"                          G.~.(.^.'.rXuXuXuXiX*X    (.*X*X_.^.G.^.uXyXuXuXuXyX  G.^.].*XpX      ~.^.(.                          ",
"                                                                                                                                ",
"                                                                                                                                ",
"                                                                                                                                ",
"                                                                                                                                "
};
