/* XPM */
static char *image_part_004[] = {
/* columns rows colors chars-per-pixel */
"64 64 175 2 ",
"   c None",
".  c #131826",
"X  c #151B2D",
"o  c #111626",
"O  c #1B1F33",
"+  c #1C2134",
"@  c #1F2438",
"#  c #222635",
"$  c #252A36",
"%  c #232639",
"&  c #252A3B",
"*  c #292D3B",
"=  c #2C2E37",
"-  c #2E323D",
";  c #39383F",
":  c #33323A",
">  c #2D2E42",
",  c #252E41",
"<  c #273043",
"1  c #2F3044",
"2  c #2F384C",
"3  c #323246",
"4  c #35354A",
"5  c #38374C",
"6  c #333A4C",
"7  c #3A3A4E",
"8  c #3A3A43",
"9  c #343E52",
"0  c #3C3B51",
"q  c #413E40",
"w  c #413E53",
"e  c #3F4146",
"r  c #3B424E",
"t  c #3E4552",
"y  c #3E465B",
"u  c #3B485D",
"i  c #444040",
"p  c #46484A",
"a  c #4A4B4D",
"s  c #514A47",
"d  c #534E49",
"f  c #4F504F",
"g  c #56524D",
"h  c #444156",
"j  c #434B56",
"k  c #46445A",
"l  c #45495F",
"z  c #494B5E",
"x  c #554E59",
"c  c #4A525E",
"v  c #50555F",
"b  c #595555",
"n  c #60594F",
"m  c #665E53",
"M  c #6E6151",
"N  c #63615A",
"B  c #6A695F",
"V  c #726553",
"C  c #796A56",
"Z  c #7A6A5F",
"A  c #79705F",
"S  c #404C61",
"D  c #4A4C62",
"F  c #4D546A",
"G  c #4F586E",
"H  c #4B5166",
"J  c #515960",
"K  c #50576D",
"L  c #51596F",
"P  c #5B5C63",
"I  c #545D73",
"U  c #5A6369",
"Y  c #566278",
"T  c #59667C",
"R  c #5A687F",
"E  c #566272",
"W  c #716F63",
"Q  c #767264",
"!  c #787567",
"~  c #7B796B",
"^  c #646D70",
"/  c #677075",
"(  c #6A7275",
")  c #6D7779",
"_  c #727572",
"`  c #7C7D72",
"'  c #757C7B",
"]  c #85735B",
"[  c #8A785E",
"{  c #827867",
"}  c #917D60",
"|  c #817D7A",
" . c #8A8671",
".. c #8C8A79",
"X. c #938D75",
"o. c #988D72",
"O. c #A88F69",
"+. c #A48D6A",
"@. c #AA906A",
"#. c #B2966C",
"$. c #A4997B",
"%. c #B19F7A",
"&. c #B19C77",
"*. c #B7A279",
"=. c #BCA379",
"-. c #C7A675",
";. c #C8A775",
":. c #CAAA76",
">. c #CBAD7A",
",. c #C3AA7C",
"<. c #CFB17E",
"1. c #D0B17C",
"2. c #5C6C84",
"3. c #617288",
"4. c #6E7C8A",
"5. c #697683",
"6. c #7A858D",
"7. c #7F8889",
"8. c #788288",
"9. c #818785",
"0. c #838C8C",
"q. c #8C908D",
"w. c #91938A",
"e. c #848790",
"r. c #879091",
"t. c #8B9492",
"y. c #939B9C",
"u. c #9C9D98",
"i. c #A49D80",
"p. c #B8B297",
"a. c #9497A0",
"s. c #97A1A0",
"d. c #9AA4A4",
"f. c #9FA8A8",
"g. c #A4ADAE",
"h. c #B6B6A8",
"j. c #A5AEB0",
"k. c #A9ACB3",
"l. c #A9B3B4",
"z. c #AFB9BA",
"x. c #B3BCBE",
"c. c #B3B5BA",
"v. c #CCB485",
"b. c #C5B58B",
"n. c #CBB98D",
"m. c #D1B582",
"M. c #D4B986",
"N. c #D4BE8D",
"B. c #D6C08E",
"V. c #DCC48F",
"C. c #CCC299",
"Z. c #D3C293",
"A. c #DAC592",
"S. c #D6CA9D",
"D. c #DBCD9D",
"F. c #E2CD98",
"G. c #E5D19B",
"H. c #DACFA2",
"J. c #DED2A3",
"K. c #E3D6A5",
"L. c #E9D7A1",
"P. c #E6D9A6",
"I. c #ECDBA6",
"U. c #EEDEA8",
"Y. c #EFE1AB",
"T. c #F1E3AD",
"R. c #F3E7B8",
"E. c #F3E6B5",
"W. c #B7C0C2",
"Q. c #BCC1C4",
"!. c #C4C8C8",
"~. c #D9DBDB",
"^. c #EFECDF",
"/. c #F7EFD2",
"(. c #FCF3D2",
/* pixels */
"                                                                                                                                ",
"                                                                                                                                ",
"                                                                                                                                ",
"                                                                                                                                ",
"                                                                                                                                ",
"                                                                                                                                ",
"                                                                                                                                ",
"                                                                                                                                ",
"                                                                                                                                ",
"                                                                                                                                ",
"                                                                                                                                ",
"                                                                                                                                ",
"                                                                                                                                ",
"                                                                                                                                ",
"                                                                                                                                ",
"                                                                                                                                ",
"                                                                                                                                ",
"                                                        z z k                                                                   ",
"                                                  + > l T R Y I D k                                                             ",
"                                                % 5 k I 2.T I T 2.I k                                                           ",
"                                              & w h I 2.2.2.2.L K 2.F                                                           ",
"                                              3 h k H 7 7 l 2.2.D I l                                                           ",
"                                              & 3 7 4 > + % G 2.D 4 @                                                           ",
"                                              X X + 0 7 ; : 0 K 7 s V                                                           ",
"                                                + % 3 - +.@.b x Z =.N.>.                  j.                                    ",
"                                                > 7 3 * A %.&.*.N.G.F.<.              z.l.8.                                    ",
"                                              X 3 h 7 o.C m X.C.Y.J.K.G.>.          x.d.s.)                                     ",
"                                                + 4 a v.:.>.I.T.Y.W X.Y.,.        Q.W.l.y.)                                     ",
"                                                  O N m.-.m.U.T.T. .f P.Q         z.W.l.t.^                                     ",
"                                                  X { <.;.M.S.S.D.X.* Q $       x.s.l.f.( *                                     ",
"                                          & z +   $ $.:.M.A.! e - # X X N a     g.y.g.t.t                                       ",
"                                          - y.a.6 * *.:.>.M.A.b. .b # ~ Z.n   j r.d.d./ @                                       ",
"                                          ~ _ u.Q.e.| { [ [ } >.A.Z.p b.1.] X r 0.7.t.r                                         ",
"                                          _ 8.w.h./.^.~.c.k.P #.:.b.a b.:.C + ( 0.0.( +                                         ",
"                                          _ 3.2.6.K.T.R.(.~.v #.>.n.B N.] # t 0.' 0.r                                           ",
"                                          ( 3.2.4.J.T.Y.E.!.9 V #.B.D.o.6 + J U U ) %                                           ",
"                                          ..t.3.4.n.L.Y.T.h.9 6 8 d g t u @ 6 & j 6                                             ",
"                                          i.Y.p.q.b.M.I.T.t.9 l F S y y 3 & 2 3 * + & ,                                         ",
"                                          X.T.V.v.u.q.p.C.' 6 7 k l k h w & i 8 > > S S                                         ",
"                                          a D.L.m.q.2.2.U j 9 0 h h h w 1 $ O.M X # 6 <                                         ",
"                                            X.Y.D.0.2.2.9.c 2 > 3 3 1 % # * q =                                                 ",
"                                              $.H.5.2.6.` 9 + X X . X X % > X                                                   ",
"                                              - Q E 6.` $ X . . .   . . . .                                                     ",
"                                                X c ` $ o                                                                       ",
"                                                  * #                                                                           ",
"                                                                                                                                ",
"                                                                                                                                ",
"                                                                                                                                ",
"                                                                                                                                ",
"                                                                                                                                ",
"                                                                                                                                ",
"                                                                                                                                ",
"                                                                                                                                ",
"                                                                                                                                ",
"                                                                                                                                ",
"                                                                                                                                ",
"                                                                                                                                ",
"                                                                                                                                ",
"                                                                                                                                ",
"                                                                                                                                ",
"                                                                                                                                ",
"                                                                                                                                ",
"                                                                                                                                ",
"                                                                                                                                "
};
