/* XPM */
static char *image_part_002[] = {
/* columns rows colors chars-per-pixel */
"64 64 171 2 ",
"   c None",
".  c #141826",
"X  c #10172A",
"o  c #151B2D",
"O  c #1A1F31",
"+  c #1D2234",
"@  c #242737",
"#  c #222638",
"$  c #25293C",
"%  c #292D3D",
"&  c #2C313C",
"*  c #33353D",
"=  c #38373D",
"-  c #2D2E42",
";  c #262F42",
":  c #2E3245",
">  c #2C3649",
",  c #313344",
"<  c #353A43",
"1  c #353649",
"2  c #38374C",
"3  c #333A4D",
"4  c #393A4C",
"5  c #393C42",
"6  c #3E3C50",
"7  c #423F54",
"8  c #3E4045",
"9  c #3F4651",
"0  c #3C465B",
"q  c #3D485C",
"w  c #44454A",
"e  c #48494B",
"r  c #4C474D",
"t  c #504945",
"y  c #56504A",
"u  c #5F564D",
"i  c #434055",
"p  c #424A54",
"a  c #44465B",
"s  c #484454",
"d  c #4F5150",
"f  c #49515A",
"g  c #545553",
"h  c #5A5A56",
"j  c #5C5D5B",
"k  c #605F59",
"l  c #646057",
"z  c #63625C",
"x  c #6A655D",
"c  c #756856",
"v  c #7C6D59",
"b  c #414B60",
"n  c #494D63",
"m  c #4D5167",
"M  c #4E546A",
"N  c #4E5869",
"B  c #475366",
"V  c #50566C",
"C  c #555B61",
"Z  c #545D73",
"A  c #5D656B",
"S  c #556275",
"D  c #576379",
"F  c #5A6572",
"G  c #676966",
"H  c #6C6B62",
"J  c #616268",
"K  c #756C62",
"L  c #7B7668",
"P  c #7A7768",
"I  c #626B71",
"U  c #626673",
"Y  c #6D7678",
"T  c #777A76",
"R  c #86755D",
"E  c #8A775D",
"W  c #8A785D",
"Q  c #897F68",
"!  c #847D69",
"~  c #927F62",
"^  c #8B846E",
"/  c #9C896D",
"(  c #978669",
")  c #838071",
"_  c #8E8A75",
"`  c #868577",
"'  c #9C957A",
"]  c #B3986D",
"[  c #A79674",
"{  c #A19678",
"}  c #AB9F7E",
"|  c #AB9474",
" . c #B49B74",
".. c #BCA67C",
"X. c #C3A473",
"o. c #C8A775",
"O. c #C9A977",
"+. c #CBAC79",
"@. c #CFB17E",
"#. c #D3B47F",
"$. c #5C6C84",
"%. c #677789",
"&. c #6E7B8A",
"*. c #697683",
"=. c #767F81",
"-. c #777D88",
";. c #7A8384",
":. c #7A858C",
">. c #7F8989",
",. c #828B8C",
"<. c #888F8F",
"1. c #8C918E",
"2. c #92968E",
"3. c #879190",
"4. c #8A9393",
"5. c #939D9D",
"6. c #96A09F",
"7. c #B0A887",
"8. c #B5AB89",
"9. c #BFB48E",
"0. c #A2A191",
"q. c #B2AB91",
"w. c #B8B69D",
"e. c #BCB99E",
"r. c #9AA4A4",
"t. c #9EA7A8",
"y. c #9EA8A8",
"u. c #A2ABAD",
"i. c #A7A9B0",
"p. c #A7B0B1",
"a. c #AAB4B5",
"s. c #AFB9BA",
"d. c #B1B2B1",
"f. c #B3BCBE",
"g. c #C4AF84",
"h. c #CEB584",
"j. c #C1B58E",
"k. c #CAB78B",
"l. c #D5BA87",
"z. c #D7BC88",
"x. c #D9BF8B",
"c. c #D0B583",
"v. c #C4BA94",
"b. c #CDBD91",
"n. c #D2C192",
"m. c #DEC793",
"M. c #DEC994",
"N. c #D0C599",
"B. c #D6C898",
"V. c #DBCC9B",
"C. c #E1CC96",
"Z. c #E7D49E",
"A. c #CAC5A6",
"S. c #DACFA1",
"D. c #DAD1A7",
"F. c #C2C0B3",
"G. c #E6D9A6",
"H. c #EEDEA6",
"J. c #ECDFA9",
"K. c #EFE1AB",
"L. c #F1E2AB",
"P. c #F4E7B6",
"I. c #F6E9B9",
"U. c #B6BFC1",
"Y. c #B7C0C2",
"T. c #B8C1C3",
"R. c #D6D6CB",
"E. c #CDD0D3",
"W. c #D8D7D3",
"Q. c #E6E2CC",
"!. c #E8E4D4",
/* pixels */
"                                                                                                                                ",
"                                                                                                                                ",
"                                                                                                                                ",
"                                                                                                                                ",
"                                                                                                                                ",
"                                                                                                                                ",
"                                                                                                                                ",
"                                                                                                                                ",
"                                                                                                                                ",
"                                                                                                                                ",
"                                                                                                                                ",
"                                                                                                                                ",
"                                                                                                                                ",
"                                                                                                                                ",
"                                                                                                                                ",
"                                                          7 i                                                                   ",
"                                                      % i M Z Z M                                                               ",
"                                                  o $ i m D $.$.$.M                                                             ",
"                                                  $ 7 M $.$.D M V D a                                                           ",
"                                                + 4 i M M M D $.M Z n                                                           ",
"                                                O 1 i i 1 - 6 D $.n 3                                                           ",
"                                                  + : 7 7 , @ a D i @                                                           ",
"                                                  o + 6 2 R ~ r i s v /           U.s.,.                                        ",
"                                                  $ $ 1 % Q h. ./ | l.M.+.      U.u.r.Y                                         ",
"                                              O - , , w ( y l ^ B.H.K.C.@.      f.y.6.Y                                         ",
"                                            o - i 6 2 P l.X...S.K.G.8.G.m.    Y.T.f.5.Y                                         ",
"                                            O 1 i i , { @.o.x.L.L.V.8 8.Z.W   p.p.a.,.p                                         ",
"                                              + : % < g.O.o.C.K.K.J.g ^ j.* u.5.t.r.I                                           ",
"                                              X X X l c.+.C.9.z k L & & < $ 5.5.u.4.9                                           ",
"                                            $ U 4 X ! +.O.z.n.' g + o + h x I 4.5.Y +                                           ",
"                                            w =.i.-.J x v R K L b.8.w H M.~ I ;.3.f                                             ",
"                                            _ ` T F.!.W.d.d.E.J ] V.h } #.E A >.=.$                                             ",
"                                            z &.%.<.D.P.I.I.R.N ( k.d k.o.c p ;.A                                               ",
"                                            j &.$.$.e.L.K.L.Q.D E M.v.n.u % < A <                                               ",
"                                            j :.$.$.q.C.J.L.A.N t [ j.H 3 + # & O +                                             ",
"                                            w v.w.<.0.h.M.L.A.S : 1 , 0 : # - - $ B >                                           ",
"                                            5 N.L.h.v.<.1.2.) B 3 n i 7 6 , * + - b ;                                           ",
"                                              _ K.m.g.&.$.$.C q : 7 i i 2 = =   O +                                             ",
"                                              < 9.L.n.&.$.%.T 0 : 6 4 - + +                                                     ",
"                                                e 7.S.*.$.1.g + O + O o o o o o                                                 ",
"                                                  & ! F :.j o                                                                   ",
"                                                    + 3 G +                                                                     ",
"                                                        .                                                                       ",
"                                                                                                                                ",
"                                                                                                                                ",
"                                                                                                                                ",
"                                                                                                                                ",
"                                                                                                                                ",
"                                                                                                                                ",
"                                                                                                                                ",
"                                                                                                                                ",
"                                                                                                                                ",
"                                                                                                                                ",
"                                                                                                                                ",
"                                                                                                                                ",
"                                                                                                                                ",
"                                                                                                                                ",
"                                                                                                                                ",
"                                                                                                                                ",
"                                                                                                                                ",
"                                                                                                                                ",
"                                                                                                                                ",
"                                                                                                                                ",
"                                                                                                                                "
};
