/* XPM */
static char *image_part_001[] = {
/* columns rows colors chars-per-pixel */
"64 64 169 2 ",
"   c None",
".  c #161B2D",
"X  c #1A1E2F",
"o  c #191F31",
"O  c #1C2234",
"+  c #222635",
"@  c #242836",
"#  c #282A37",
"$  c #232639",
"%  c #262A3C",
"&  c #292C3C",
"*  c #2F313D",
"=  c #2C2D41",
"-  c #273044",
";  c #2E3143",
":  c #2E364A",
">  c #313445",
",  c #353A43",
"<  c #36364A",
"1  c #353C4C",
"2  c #3B3A4D",
"3  c #343D52",
"4  c #3E3C51",
"5  c #413E53",
"6  c #3F4146",
"7  c #3F4554",
"8  c #3F4856",
"9  c #3C455A",
"0  c #3B485D",
"q  c #444041",
"w  c #47484A",
"e  c #4A4B4D",
"r  c #444549",
"t  c #514A47",
"y  c #534E49",
"u  c #4F504F",
"i  c #56524D",
"p  c #444055",
"a  c #454459",
"s  c #494558",
"d  c #464C5B",
"f  c #444A53",
"g  c #49515B",
"h  c #50595F",
"j  c #5A5B57",
"k  c #60584F",
"l  c #655C52",
"z  c #6B5F52",
"x  c #62615B",
"c  c #6A695F",
"v  c #6E645A",
"b  c #7A6A57",
"n  c #746754",
"m  c #7A715F",
"M  c #444C62",
"N  c #4B4E63",
"B  c #4B5066",
"V  c #4D556C",
"C  c #4F586E",
"Z  c #515A6E",
"A  c #545C64",
"S  c #545D73",
"D  c #5A6269",
"F  c #566077",
"G  c #59667D",
"H  c #5A687F",
"J  c #576379",
"K  c #61656A",
"L  c #626B6F",
"P  c #746F65",
"I  c #757264",
"U  c #787567",
"Y  c #7A7768",
"T  c #7C7969",
"R  c #616973",
"E  c #636B79",
"W  c #6E7474",
"Q  c #6D7779",
"!  c #7E7F75",
"~  c #747773",
"^  c #84735B",
"/  c #857E6A",
"(  c #7F827C",
")  c #8E816E",
"_  c #998464",
"`  c #9F8E6E",
"'  c #8A8671",
"]  c #948D75",
"[  c #988D72",
"{  c #9A957D",
"}  c #B1956B",
"|  c #B69A6D",
" . c #A49476",
".. c #A79C7C",
"X. c #BFA375",
"o. c #C7A675",
"O. c #C8A775",
"+. c #CAAA77",
"@. c #C4AA7C",
"#. c #CBAC79",
"$. c #CFB17E",
"%. c #D0B17C",
"&. c #5C6C84",
"*. c #5F7087",
"=. c #627288",
"-. c #6D7B8A",
";. c #757D82",
":. c #778082",
">. c #7B8485",
",. c #79848D",
"<. c #7F898A",
"1. c #818A8C",
"2. c #878886",
"3. c #86908F",
"4. c #8D928E",
"5. c #969486",
"6. c #8B9493",
"7. c #879193",
"8. c #919B9B",
"9. c #A5A18E",
"0. c #A7A797",
"q. c #B8B398",
"w. c #9BA4A4",
"e. c #9EA7A8",
"r. c #9FA8A8",
"t. c #A2A4A2",
"y. c #A4ADAE",
"u. c #ABB4B6",
"i. c #B2BBBD",
"p. c #B2B4BB",
"a. c #C5B58A",
"s. c #C8B388",
"d. c #CBB789",
"f. c #D1B583",
"g. c #D3B986",
"h. c #D3BD8C",
"j. c #C9BF97",
"k. c #C6BB93",
"l. c #D0BF92",
"z. c #D5C08E",
"x. c #D3C293",
"c. c #DCC794",
"v. c #DFC894",
"b. c #D0C498",
"n. c #D6CA9D",
"m. c #DCCF9F",
"M. c #E1CB95",
"N. c #E3CF9A",
"B. c #E5D19B",
"V. c #D9CCA0",
"C. c #DFD3A4",
"Z. c #E3D6A3",
"A. c #EBDBA5",
"S. c #EEDEA8",
"D. c #E6D9A6",
"F. c #EFE1AB",
"G. c #F2E3AC",
"H. c #F0E6BD",
"J. c #F3E6B3",
"K. c #B5BEC0",
"L. c #B9C2C4",
"P. c #C1C4C3",
"I. c #CFCEC9",
"U. c #CACED1",
"Y. c #D4D7DC",
"T. c #F7EBC0",
"R. c #E3E2DE",
"E. c #F9F1D4",
"W. c #F5F1E0",
/* pixels */
"                                                                                                                                ",
"                                                                                                                                ",
"                                                                                                                                ",
"                                                                                                                                ",
"                                                                                                                                ",
"                                                                                                                                ",
"                                                                                                                                ",
"                                                                                                                                ",
"                                                                                                                                ",
"                                                                                                                                ",
"                                                                                                                                ",
"                                                                                                                                ",
"                                                                                                                                ",
"                                                                                                                                ",
"                                                                                                                                ",
"                                                                                                                                ",
"                                                                                                                                ",
"                                                                                                                                ",
"                                                  + > B S S V N a                                                               ",
"                                              . % 2 a Z &.G J &.F N                                                             ",
"                                              % 5 a F &.&.&.S B G S p                                                           ",
"                                            O 2 p N S M N F *.Z B V <                                                           ",
"                                            O < 5 a < % $ 7 &.H d :                                                             ",
"                                              o O > 5 < + % C S < t b                                                           ",
"                                            o $ $ + < * _ l 5 s z X.h.#.                                                        ",
"                                          . & p 5 & = # m  .)  .g.B.M.$.              K.i.7.                                    ",
"                                          . = p p 4 2 [ b l ] b.F.C.Z.N.#.          i.e.w.Q                                     ",
"                                            O 2 p 4 e d.+.#.A.G.F.P ] F.@.        L.K.y.8.Q                                     ",
"                                              O ; = x f.o.f.S.G.G.' u D.I         K.L.u.6.Q                                     ",
"                                            .   . . / $.O.g.n.n.m.] # I @       K.e.u.y.:.7                                     ",
"                                          & ;.1   @ ..#.g.c.U 6 * + . . x e     u.8.y.8.g                                       ",
"                                          r 2.p.R > ` | +.f.z.a.' j + T x.k   R 8.w.r.;.&                                       ",
"                                          ! ( 5.I.P.t.2.P v v @.v.x.w a.%.^ . > 1.6.8.g                                         ",
"                                          W -.1.0.H.E.W.R.Y.K } +.a.e a.+.b . D 1.>.;.%                                         ",
"                                          W =.&.-.C.G.F.T.U.d | #.d.c h.^ @ > <.>.3.g                                           ",
"                                          ~ =.&.-.V.G.F.J.P.3 n } z.m.] 1 O A Q L >.&                                           ",
"                                          { q.,.-.s.M.F.G.t.3 1 , y i 8 0 O 1 , h d                                             ",
"                                          ..G.l.9.q.s.A.G.4.3 d V M 9 9 > % 3 = ; O O O                                         ",
"                                          Y F.v.$.4.-.6.5.K 3 2 a a a p 5 $ # > > % 9 9                                         ",
"                                          , k.S.h.4.&.&.R 8 3 2 p p p 5 > @ _ z o & 9 3                                         ",
"                                            I Z.m.,.&.=.2.d ; = > > ; $ O % z q     O                                           ",
"                                              I j.E *.4.x - . . . . . . + ; .                                                   ",
"                                                w Z 4.x . . .     . .   . X                                                     ",
"                                                  f j .                                                                         ",
"                                                                                                                                ",
"                                                                                                                                ",
"                                                                                                                                ",
"                                                                                                                                ",
"                                                                                                                                ",
"                                                                                                                                ",
"                                                                                                                                ",
"                                                                                                                                ",
"                                                                                                                                ",
"                                                                                                                                ",
"                                                                                                                                ",
"                                                                                                                                ",
"                                                                                                                                ",
"                                                                                                                                ",
"                                                                                                                                ",
"                                                                                                                                ",
"                                                                                                                                ",
"                                                                                                                                ",
"                                                                                                                                ",
"                                                                                                                                "
};
