/* XPM */
static char *image_part_006[] = {
/* columns rows colors chars-per-pixel */
"64 64 170 2 ",
"   c None",
".  c #141927",
"X  c #151B2C",
"o  c #181E2F",
"O  c #191E30",
"+  c #1D2234",
"@  c #202437",
"#  c #252936",
"$  c #222639",
"%  c #24293C",
"&  c #2A2C3C",
"*  c #292B35",
"=  c #2D313E",
"-  c #31333D",
";  c #39373F",
":  c #3D3A3D",
">  c #413D3F",
",  c #262E41",
"<  c #2C2D41",
"1  c #273043",
"2  c #2E3143",
"3  c #2E354A",
"4  c #2F394D",
"5  c #303143",
"6  c #343A47",
"7  c #3B3D43",
"8  c #353549",
"9  c #38374B",
"0  c #373E4C",
"q  c #3B394E",
"w  c #3E3C51",
"e  c #343F53",
"r  c #423F54",
"t  c #3C434D",
"y  c #3E4146",
"u  c #3A4355",
"i  c #374258",
"p  c #3C445A",
"a  c #3D495E",
"s  c #4A4543",
"d  c #43464A",
"f  c #46484A",
"g  c #4C4C4C",
"h  c #454449",
"j  c #524C47",
"k  c #564E48",
"l  c #59534C",
"z  c #434055",
"x  c #46465C",
"c  c #474E59",
"v  c #4C545D",
"b  c #545A5E",
"n  c #595956",
"m  c #605F59",
"M  c #63625B",
"N  c #69685E",
"B  c #6B6459",
"V  c #746A5A",
"C  c #424D62",
"Z  c #4A4C62",
"A  c #4D5264",
"S  c #4D5369",
"D  c #465369",
"F  c #50576D",
"G  c #51596F",
"H  c #535B63",
"J  c #535D73",
"K  c #5B616B",
"L  c #566178",
"P  c #58657B",
"I  c #5C6978",
"U  c #60696E",
"Y  c #6E6C61",
"T  c #776962",
"R  c #6F7069",
"E  c #646D71",
"W  c #697277",
"Q  c #6F787B",
"!  c #7E7E74",
"~  c #8A795F",
"^  c #867E68",
"/  c #877865",
"(  c #8D826A",
")  c #84806D",
"_  c #9B8A6C",
"`  c #9D8665",
"'  c #8E8873",
"]  c #938D75",
"[  c #989076",
"{  c #9B9379",
"}  c #A78E68",
"|  c #A28965",
" . c #B4986D",
".. c #AA9B79",
"X. c #B39B73",
"o. c #BB9D70",
"O. c #C7A775",
"+. c #CAA977",
"@. c #C4AC7E",
"#. c #CBAC79",
"$. c #CEB07D",
"%. c #D0B27D",
"&. c #5C6D85",
"*. c #617288",
"=. c #6C7B8A",
"-. c #767E82",
";. c #7A8484",
":. c #7A858D",
">. c #7F898A",
",. c #7D8899",
"<. c #838C8C",
"1. c #858686",
"2. c #86908F",
"3. c #999684",
"4. c #898C96",
"5. c #869090",
"6. c #8C9392",
"7. c #8E9897",
"8. c #8E9899",
"9. c #969B94",
"0. c #949E9D",
"q. c #9D9D96",
"w. c #A59E81",
"e. c #ABA28A",
"r. c #B4A783",
"t. c #B3AA8F",
"y. c #B6AA85",
"u. c #A9A896",
"i. c #BCB69A",
"p. c #9B9EA5",
"a. c #9BA5A5",
"s. c #9FA8A8",
"d. c #A1ABAB",
"f. c #A6AFB0",
"g. c #ABB3B5",
"h. c #ADB5BB",
"j. c #B1BABC",
"k. c #C3AD81",
"l. c #CBB485",
"z. c #C5B78E",
"x. c #C4B88F",
"c. c #D3B682",
"v. c #D7BD89",
"b. c #D8BE89",
"n. c #D6BB86",
"m. c #C4BA93",
"M. c #C6BF9C",
"N. c #DAC28E",
"B. c #CFC69F",
"V. c #DDC591",
"C. c #DFC994",
"Z. c #DCCC9B",
"A. c #D3C79B",
"S. c #E5D29E",
"D. c #DCD0A0",
"F. c #CFCBB4",
"G. c #D6D1B2",
"H. c #EBDAA4",
"J. c #EEDFA8",
"K. c #E5D8A5",
"L. c #EFE1AA",
"P. c #F1E3AC",
"I. c #F3E7B8",
"U. c #B8C1C3",
"Y. c #C6C7CA",
"T. c gray81",
"R. c #EFE7C4",
"E. c #E9E7DE",
"W. c #FAF3DA",
"Q. c #FFFBE8",
/* pixels */
"                                                                                                                                ",
"                                                                                                                                ",
"                                                                                                                                ",
"                                                                                                                                ",
"                                                                                                                                ",
"                                                                                                                                ",
"                                                                                                                                ",
"                                                                                                                                ",
"                                                                                                                                ",
"                                                                                                                                ",
"                                                                                                                                ",
"                                                                                                                                ",
"                                                                                                                                ",
"                                                                                                                                ",
"                                                                                                                                ",
"                                                                                                                                ",
"                                                  % C S Z x                                                                     ",
"                                              o < z J &.L P S                                                                   ",
"                                              + w J &.&.J J P x                                                                 ",
"                                              2 z Z Z F &.J J S                                                                 ",
"                                              < z z 9 q L &.S G                                                                 ",
"                                            X + q z 9 $ Z &.S S 3                                                               ",
"                                          o $ @ < z r + 2 L J 9 #                                                               ",
"                                          $ r q < z 9 j 7 p x h ` k.+.                                                          ",
"                                          % z 9 9 w = X.X.T / X.V.N.#.                      g.                                  ",
"                                          + q w z 9 7 l ^ _ y.J.J.H.C.#.                h.f.6.                                  ",
"                                            % q r & ( } ~ r.K.P.] w.J.@.              U.d.s.;.                                  ",
"                                              + $ & r.#.#.S.P.P.{ d D.(             U.U.j.a.;.                                  ",
"                                                  - k.+.#.H.L.P.A.= Y 7 X           g.g.j.7.U                                   ",
"                                      1 K %       f @.+.c.[ m m g o X d N         j.0.s.s.W $                                   ",
"                                    + d p.p.0     M v.#.V.z.] M y # 7 x.X.*       8.0.d.5.t                                     ",
"                                    7 3.! q.Y.4.A n / | o.$.n.C.Z.' M V.o.>     0 <.0.0.K                                       ",
"                                    7 -.=.<.F.W.E.T.g.1.B +.O.O.c.{ M v.o.s   + W <.;.>.2                                       ",
"                                    7 -.&.&.9.L.P.I.Q.h.g  .+.+.%...) l.l %   6 <.;.2.v                                         ",
"                                    7 ;.&.&.6.J.L.L.R.,., 7 V } #.Z.Z.V , + X H Q E -.%                                         ",
"                                    n B.9.*.1.v.J.P.G.J 1 i 3 6 j l g u D $ 4 0 = b t                                           ",
"                                    N L.S.e.i.l.C.P.i.D < 9 p S C C C S 3 $ e u % = +                                           ",
"                                    7 m.H.%.t.:.u.M.3.a 9 z r z Z S Z r w - : & 5 < $ i ,                                       ",
"                                      ] P.v.t.&.&.I c a 9 z z z z r z z q + s ` - $ 8 C ,                                       ",
"                                      f m.H.q.&.&.<.b i & q w w w w q < + < ; k     + +                                         ",
"                                        g A.1.&.:.! u % X O + + + + O X O 2 @                                                   ",
"                                          g c :.! # +     . X o X .                                                             ",
"                                            t R #             . X X                                                             ",
"                                                                                                                                ",
"                                                                                                                                ",
"                                                                                                                                ",
"                                                                                                                                ",
"                                                                                                                                ",
"                                                                                                                                ",
"                                                                                                                                ",
"                                                                                                                                ",
"                                                                                                                                ",
"                                                                                                                                ",
"                                                                                                                                ",
"                                                                                                                                ",
"                                                                                                                                ",
"                                                                                                                                ",
"                                                                                                                                ",
"                                                                                                                                ",
"                                                                                                                                ",
"                                                                                                                                ",
"                                                                                                                                ",
"                                                                                                                                ",
"                                                                                                                                "
};
