/* XPM */
static char *image_part_005[] = {
/* columns rows colors chars-per-pixel */
"64 64 173 2 ",
"   c None",
".  c #151B2D",
"X  c #131826",
"o  c #191F31",
"O  c #1C2234",
"+  c #1E2538",
"@  c #202437",
"#  c #272A37",
"$  c #232639",
"%  c #252A3C",
"&  c #2A2C3C",
"*  c #282A35",
"=  c #2E323E",
"-  c #33373F",
";  c #38373B",
":  c #2C2E42",
">  c #262F43",
",  c #2E3347",
"<  c #2F3649",
"1  c #323344",
"2  c #343A45",
"3  c #3C3D44",
"4  c #353549",
"5  c #333A4D",
"6  c #3B3B4D",
"7  c #333D51",
"8  c #3E3C51",
"9  c #433F40",
"0  c #413F54",
"q  c #3F4145",
"w  c #3D414D",
"e  c #3F4551",
"r  c #3A4459",
"t  c #3E4A5F",
"y  c #4B4543",
"u  c #494A4B",
"i  c #474242",
"p  c #534C47",
"a  c #5B544D",
"s  c #434055",
"d  c #434A55",
"f  c #46475D",
"g  c #48495F",
"h  c #474C56",
"j  c #4C515A",
"k  c #5B5A56",
"l  c #5C5D5C",
"z  c #63584D",
"x  c #655B51",
"c  c #5F615F",
"v  c #62615B",
"b  c #6D6256",
"n  c #736654",
"m  c #454C61",
"M  c #494B60",
"N  c #4E546A",
"B  c #4D5167",
"V  c #585C67",
"C  c #50576D",
"Z  c #51596F",
"A  c #555967",
"S  c #545D73",
"D  c #5B636A",
"F  c #5C6166",
"G  c #566177",
"H  c #59667D",
"J  c #5A687F",
"K  c #676A69",
"L  c #726762",
"P  c #7E7765",
"I  c #696F76",
"U  c #6A7376",
"Y  c #727B7D",
"T  c #747773",
"R  c #87745A",
"E  c #867E6A",
"W  c #8F7B68",
"Q  c #8A7960",
"!  c #88826D",
"~  c #968164",
"^  c #9C8868",
"/  c #8D8772",
"(  c #918C75",
")  c #9C9174",
"_  c #9B957C",
"`  c #9E987D",
"'  c #A58C67",
"]  c #A78E68",
"[  c #A7906B",
"{  c #A29B7F",
"}  c #B69C72",
"|  c #B5A27B",
" . c #C5A574",
".. c #C8A775",
"X. c #C9A976",
"o. c #CBAC7A",
"O. c #CFB07C",
"+. c #D1B37F",
"@. c #5D6E85",
"#. c #5F7087",
"$. c #5F7088",
"%. c #617187",
"&. c #657588",
"*. c #687789",
"=. c #6B7A89",
"-. c #6A7682",
";. c #767880",
":. c #717E8B",
">. c #7A8282",
",. c #7F8688",
"<. c #7F8989",
"1. c #848D8E",
"2. c #858A8E",
"3. c #908F80",
"4. c #86908F",
"5. c #8B918E",
"6. c #8A9493",
"7. c #929C9B",
"8. c #929895",
"9. c #A49D85",
"0. c #AAA283",
"q. c #B4AA86",
"w. c #B9AE89",
"e. c #B7AB86",
"r. c #BEB58E",
"t. c #A9A796",
"y. c #A4A799",
"u. c #B9B498",
"i. c #9AA4A3",
"p. c #9EA7A8",
"a. c #9EA8A8",
"s. c #A2ABAD",
"d. c #A4A6AD",
"f. c #ABADB3",
"g. c #A7B1B1",
"h. c #ACB6B7",
"j. c #B2BBBD",
"k. c #C2AF83",
"l. c #C9AF80",
"z. c #C7B287",
"x. c #C6B48A",
"c. c #C8B689",
"v. c #CDB280",
"b. c #D1B683",
"n. c #D8BF8B",
"m. c #D5BB87",
"M. c #CBBC92",
"N. c #BEC1BF",
"B. c #DAC18C",
"V. c #CBC197",
"C. c #DBC997",
"Z. c #E2CC97",
"A. c #E4D09A",
"S. c #E8D49F",
"D. c #CAC4A1",
"F. c #D5CBA2",
"G. c #DCD1A4",
"H. c #E0D4A3",
"J. c #EBDAA4",
"K. c #EEDEA8",
"L. c #EFE0AA",
"P. c #F2E4AD",
"I. c #F4E7B5",
"U. c #F4E8B9",
"Y. c #B6BFC0",
"T. c #BEBEC0",
"R. c #B9C2C4",
"E. c #CBCFD1",
"W. c #D8DBDF",
"Q. c #DDDCD4",
"!. c #ECE5C9",
"~. c #F8EFCC",
"^. c #F8F4E5",
/* pixels */
"                                                                                                                                ",
"                                                                                                                                ",
"                                                                                                                                ",
"                                                                                                                                ",
"                                                                                                                                ",
"                                                                                                                                ",
"                                                                                                                                ",
"                                                                                                                                ",
"                                                                                                                                ",
"                                                                                                                                ",
"                                                                                                                                ",
"                                                                                                                                ",
"                                                                                                                                ",
"                                                                                                                                ",
"                                                                                                                                ",
"                                                          s 0                                                                   ",
"                                                    @ 6 N S Z g                                                                 ",
"                                                O : 8 B H @.$.H f                                                               ",
"                                              & 6 s S @.H S S H N                                                               ",
"                                            O 6 s M G S H @.S C S                                                               ",
"                                            O 6 s s 4 & 8 S @.N m                                                               ",
"                                            . % 6 s 8 % O M J s %                                                               ",
"                                              . @ 0 6 a z 6 M 6 n ^                                                             ",
"                                              @ $ 6 1 } O.~ L W l.C.o.                                                          ",
"                                            o 1 : 4 q a E ) k.A.J.A.m.                      j.j.s.                              ",
"                                            O 6 8 6 e.' Q q.H.P.r.V.J.v.                R.h.i.7.I                               ",
"                                            O 6 0 w c.o.o.S.P.P.( u H.c.;               R.j.p.1.K                               ",
"                                            . : 8 3 k.X.o.J.P.P.C.- q./ .             j.j.Y.i.>.                                ",
"                                      5 e     o O k b.X.b.w.` { ( # q % %           j.i.a.g.1.j                                 ",
"                                    O j d.A     . ! +.o.Z.q.v - o . O L E           s.7.s.7.D                                   ",
"                                    l 3.I T.2.f o P o...X.b.C.M.0.k k C.[ *       6 1.i.i.>.1                                   ",
"                                    l :.,.t.!.Q.f.;.L b } X.X.o.B._ v n. .i     . D <.1.6.d                                     ",
"                                    l =.@.*.D.I.~.^.W.V R  .X...+.) v n.' 3 %   d 2.Y 4.D O                                     ",
"                                    T &.@.*.F.P.L.U.E.7 $ a ] ..+.w.0.| 3 O + % Y U <.Y %                                       ",
"                                    _ y.&.=.M.J.L.I.N.5 % > = x ~ c.e.h t % t < e d Y w                                         ",
"                                    9.P.u.5.x.B.K.L.8.5 4 4 5 r 5 2 & 7 < O 5 t : 2 2 .                                         ",
"                                    ( P.B.x.5.9.G.G.I , 0 s s s f f s 0 8 & y & 1 : o % %                                       ",
"                                    k H.Z.z.=.#.-.c m , s s s s s s s s 6 # i ~ p % : m r                                       ",
"                                      ( J.M.*.@.%.F t % : 6 8 8 8 8 6 : O & # n 9 . O 1 %                                       ",
"                                      3 r.u.@.%.5.K r O . o O O O O o . O 4 % .                                                 ",
"                                        u K #.5.v % +   . . . . . . .     O                                                     ",
"                                          , >.v .                 X . .                                                         ",
"                                            -                                                                                   ",
"                                                                                                                                ",
"                                                                                                                                ",
"                                                                                                                                ",
"                                                                                                                                ",
"                                                                                                                                ",
"                                                                                                                                ",
"                                                                                                                                ",
"                                                                                                                                ",
"                                                                                                                                ",
"                                                                                                                                ",
"                                                                                                                                ",
"                                                                                                                                ",
"                                                                                                                                ",
"                                                                                                                                ",
"                                                                                                                                ",
"                                                                                                                                ",
"                                                                                                                                ",
"                                                                                                                                ",
"                                                                                                                                ",
"                                                                                                                                ",
"                                                                                                                                "
};
