/* XPM */
static char *image_part_003[] = {
/* columns rows colors chars-per-pixel */
"64 64 172 2 ",
"   c None",
".  c #141926",
"X  c #111728",
"o  c #151B2D",
"O  c #181E2F",
"+  c #191E30",
"@  c #1D2234",
"#  c #202437",
"$  c #232639",
"%  c #252A3C",
"&  c #2A2D3D",
"*  c #2A2C36",
"=  c #2D313B",
"-  c #313037",
";  c #34373F",
":  c #3C3A3E",
">  c #2C2D41",
",  c #272D41",
"<  c #2E3144",
"1  c #2D3549",
"2  c #323245",
"3  c #343945",
"4  c #3D3E44",
"5  c #343549",
"6  c #38374C",
"7  c #3A3A4D",
"8  c #373C50",
"9  c #3E3D51",
"0  c #413F54",
"q  c #3E4146",
"w  c #3C434D",
"e  c #374257",
"r  c #3B4257",
"t  c #3E4A5F",
"y  c #424245",
"u  c #4B4D4D",
"i  c #45484E",
"p  c #554E4A",
"a  c #434055",
"s  c #444A53",
"d  c #45455A",
"f  c #444B59",
"g  c #48495E",
"h  c #524B56",
"j  c #4C545D",
"k  c #545554",
"l  c #5B5858",
"z  c #63594F",
"x  c #635E54",
"c  c #61625D",
"v  c #6C675E",
"b  c #69685F",
"n  c #434D63",
"m  c #4A4D63",
"M  c #445166",
"N  c #4D5267",
"B  c #4C5369",
"V  c #47556B",
"C  c #51586E",
"Z  c #555E65",
"A  c #535C72",
"S  c #5A6368",
"D  c #556177",
"F  c #566279",
"G  c #59677D",
"H  c #616367",
"J  c #746D62",
"K  c #79786D",
"L  c #727063",
"P  c #636B72",
"I  c #687175",
"U  c #6D7679",
"Y  c #6E787A",
"T  c #757977",
"R  c #89775F",
"E  c #83715A",
"W  c #817C6C",
"Q  c #897C64",
"!  c #917C63",
"~  c #89816C",
"^  c #92876E",
"/  c #8A8A7E",
"(  c #938E76",
")  c #9D8F71",
"_  c #999379",
"`  c #A08865",
"'  c #A78E68",
"]  c #B5996D",
"[  c #AF9B77",
"{  c #A89E7E",
"}  c #BBA57B",
"|  c #BFA274",
" . c #C7A775",
".. c #C9A876",
"X. c #CCAD7A",
"o. c #D0AF7B",
"O. c #CEB17E",
"+. c #D0B27F",
"@. c #5C6D84",
"#. c #5F7087",
"$. c #687789",
"%. c #6B7A8A",
"&. c #647488",
"*. c #757E81",
"=. c #7C8686",
"-. c #76818B",
";. c #7C878F",
":. c #7E8889",
">. c #838483",
",. c #848C8F",
"<. c #8D9088",
"1. c #979789",
"2. c #919285",
"3. c #828690",
"4. c #8C9593",
"5. c #929C9B",
"6. c #9D9E9F",
"7. c #A39D87",
"8. c #B0A88F",
"9. c #BCAF8E",
"0. c #B7A984",
"q. c #BCB18C",
"w. c #B3AE94",
"e. c #BCB493",
"r. c #BFBA9E",
"t. c #BAB69A",
"y. c #9C9EA4",
"u. c #949EA0",
"i. c #9AA3A4",
"p. c #A1ABAB",
"a. c #BDBAA4",
"s. c #AFB8BA",
"d. c #ABB4B6",
"f. c #B2BBBD",
"g. c #C3AD81",
"h. c #CBB282",
"j. c #C4B58C",
"k. c #C9B589",
"l. c #CCB98C",
"z. c #D1B683",
"x. c #D2BF8E",
"c. c #D8BC88",
"v. c #C0B696",
"b. c #CEC49D",
"n. c #DEC792",
"m. c #DFCB97",
"M. c #DCCC9B",
"N. c #D3C89B",
"B. c #E2CE99",
"V. c #E3CC96",
"C. c #E6D39D",
"Z. c #DCCFA0",
"A. c #DCD2A5",
"S. c #C0C2BA",
"D. c #E3D6A4",
"F. c #E6D9A7",
"G. c #ECDBA4",
"H. c #EDDEA9",
"J. c #EFE2AB",
"K. c #F2E4AD",
"L. c #F3E5B0",
"P. c #B5BEC0",
"I. c #B7C0C2",
"U. c #B9C2C4",
"Y. c #C1C2C5",
"T. c #DFDCCD",
"R. c #CACED0",
"E. c #DFDFDB",
"W. c #D4D7DC",
"Q. c #F7EBC0",
"!. c #F7EECE",
"~. c #F4EFDB",
/* pixels */
"                                                                                                                                ",
"                                                                                                                                ",
"                                                                                                                                ",
"                                                                                                                                ",
"                                                                                                                                ",
"                                                                                                                                ",
"                                                                                                                                ",
"                                                                                                                                ",
"                                                                                                                                ",
"                                                                                                                                ",
"                                                                                                                                ",
"                                                                                                                                ",
"                                                                                                                                ",
"                                                                                                                                ",
"                                                                                                                                ",
"                                                          5 g d                                                                 ",
"                                                      % 5 n G F A g                                                             ",
"                                                    & d A @.@.C G A                                                             ",
"                                                  # 9 C B B G D N D d                                                           ",
"                                                  > a d 2 7 B @.N F g                                                           ",
"                                                o % a a 2 & m @.B C 8                                                           ",
"                                              + > # 2 a 9 @ < F A r @                                                           ",
"                                              % a & % a 5 y & m m 2 :                                                           ",
"                                              % a 5 2 5 p | R h l ! } h.            P.u.                                        ",
"                                              @ 7 9 0 < 4 ) } [ h.c.B.z.        I.d.p.Y                                         ",
"                                                % 9 9 W Q z J _ H.J.G.B.X.      P.i.i.U                                         ",
"                                                  @ & { o...m.J.K.q.( H.z.    U.U.s.5.Y                                         ",
"                                                    3 g.....C.K.K.7.y D.0.-   f.f.f.4.S                                         ",
"                                                    l h. .O.M.N.Z.q.= ( k     i.p.p.U @                                         ",
"                                            @ &     ~ O.X.B.( q ; y O @ & q i.5.p.5.j                                           ",
"                                            % y.3.7 Q ]  .O.x.q.L = O u 0.x P 5.i.*.%                                           ",
"                                            c T 6.Y.y.>.J v J J x.j.4 q.c.E P =.4.Z o                                           ",
"                                            T -.<.a.!.~.T.E.W.H ] l.i k.X.R I =.:.<                                             ",
"                                            H $.@.-.A.K.K.Q.R.f ] l.b l.` c Y =.P O                                             ",
"                                            l %.@.#.r.K.J.L.S.f ' m.D.^ 3 3 w I w                                               ",
"                                            c 4.$.#.8.V.H.K.a.M : x W f V @ % w @                                               ",
"                                            b F.b.7.e.k.M.K.t.n e M n V 1 $ > $ @ e <                                           ",
"                                            y N.G.+.9.-.,.1.K n 8 B m 0 9 & & > < V 1                                           ",
"                                              ( J.n.k.%.@.G s t < 0 a a 6 y : o # ,                                             ",
"                                              4 e.H.v.&.@.;./ n < 9 7 < @ *                                                     ",
"                                                u { w.@.$.2.i $ + @ + o O o                                                     ",
"                                                  = i D >.q X           . o O                                                   ",
"                                                    X s k X                 O                                                   ",
"                                                      .                                                                         ",
"                                                                                                                                ",
"                                                                                                                                ",
"                                                                                                                                ",
"                                                                                                                                ",
"                                                                                                                                ",
"                                                                                                                                ",
"                                                                                                                                ",
"                                                                                                                                ",
"                                                                                                                                ",
"                                                                                                                                ",
"                                                                                                                                ",
"                                                                                                                                ",
"                                                                                                                                ",
"                                                                                                                                ",
"                                                                                                                                ",
"                                                                                                                                ",
"                                                                                                                                ",
"                                                                                                                                ",
"                                                                                                                                ",
"                                                                                                                                "
};
