/* XPM */
static char *result[] = {
/* columns rows colors chars-per-pixel */
"32 64 175 2 ",
"   c #161C2E",
".  c #181D2F",
"X  c #1A1F31",
"o  c #1D2333",
"O  c #24252F",
"+  c #232633",
"@  c #262837",
"#  c #2C2B31",
"$  c #222638",
"%  c #242B3A",
"&  c #292C3D",
"*  c #312F36",
"=  c #2B313D",
"-  c #33323A",
";  c #262E41",
":  c #2D2F41",
">  c #2C3342",
",  c #2E3A44",
"<  c #2C364A",
"1  c #333345",
"2  c #393745",
"3  c #343C46",
"4  c #353649",
"5  c #383749",
"6  c #353C4A",
"7  c #3C3A4C",
"8  c #3D3E46",
"9  c #3D3D52",
"0  c #403D4F",
"q  c #413D51",
"w  c #3B4146",
"e  c #36424B",
"r  c #3A454D",
"t  c #3E484F",
"y  c #374154",
"u  c #3D4254",
"i  c #3C4C53",
"p  c #3C4559",
"a  c #3D4A5E",
"s  c #3F4D61",
"d  c #43434D",
"f  c #48494D",
"g  c #414155",
"h  c #434D53",
"j  c #4C4B53",
"k  c #43465A",
"l  c #444A5D",
"z  c #484B5E",
"x  c #455356",
"c  c #495357",
"v  c #43555A",
"b  c #4A5559",
"n  c #465A5E",
"m  c #4D5A5B",
"M  c #545355",
"N  c #515B5D",
"B  c #5E5E5F",
"V  c #56575C",
"C  c #434D61",
"Z  c #494E63",
"A  c #445164",
"S  c #495165",
"D  c #495B60",
"F  c #46566B",
"G  c #4B556A",
"H  c #4D5A6D",
"J  c #46586C",
"K  c #51596D",
"L  c #535B66",
"P  c #4D5B71",
"I  c #525F75",
"U  c #655F65",
"Y  c #4C6465",
"T  c #4F6C6A",
"R  c #566262",
"E  c #5B6566",
"W  c #52646A",
"Q  c #5E6768",
"!  c #516A69",
"~  c #5C6969",
"^  c #53706D",
"/  c #4F6176",
"(  c #4F6078",
")  c #536275",
"_  c #53637B",
"`  c #55687D",
"'  c #5A6A7D",
"]  c #567471",
"[  c #5C7573",
"{  c #676364",
"}  c #6A6467",
"|  c #626C6C",
" . c #6B6769",
".. c #736E68",
"X. c #706B66",
"o. c #67706F",
"O. c #77706D",
"+. c #7A736E",
"@. c #677070",
"#. c #6B7473",
"$. c #657E7A",
"%. c #67727F",
"&. c #707876",
"*. c #7C7C72",
"=. c #847E71",
"-. c #75807A",
";. c #888174",
":. c #878276",
">. c #958D7B",
",. c #566980",
"<. c #5A6C82",
"1. c #5B7186",
"2. c #5E7389",
"3. c #5E798B",
"4. c #697682",
"5. c #6D7B85",
"6. c #62748B",
"7. c #637A8E",
"8. c #677683",
"9. c #647A91",
"0. c #697D93",
"q. c #6E8A84",
"w. c #718D86",
"e. c #7C8889",
"r. c #749189",
"t. c #7D988F",
"y. c #668293",
"u. c #698297",
"i. c #6C849A",
"p. c #6E8B9E",
"a. c #708A9F",
"s. c #7E9A90",
"d. c #728CA2",
"f. c #7493A5",
"g. c #779AAB",
"h. c #789CAB",
"j. c #7796AA",
"k. c #7AA1AF",
"l. c #7FA9B6",
"z. c #848E8B",
"x. c #8F9283",
"c. c #8B948D",
"v. c #959586",
"b. c #969E90",
"n. c #A69D86",
"m. c #A99F87",
"M. c #8FA18B",
"N. c #93A48C",
"B. c #83A196",
"V. c #8CA59A",
"C. c #9EA491",
"Z. c #AAA589",
"A. c #A3AD8F",
"S. c #ADA88B",
"D. c #B4AB8E",
"F. c #BAB48F",
"G. c #A2A893",
"H. c #A9AF97",
"J. c #B5AC90",
"K. c #BCB192",
"L. c #BFB896",
"P. c #B0B396",
"I. c #99B1A4",
"U. c #AFBEA5",
"Y. c #C1B794",
"T. c #C1BA95",
"R. c #AFC0AA",
"E. c #CAC29B",
"W. c #CDCA9D",
"Q. c #D0C79C",
"!. c #D3CB9D",
"~. c #D8D19F",
"^. c #DBD4A1",
"/. c #E2DDA4",
"(. c None",
/* pixels */
"(.(.(.(.(.(.(.(.(.(.(.(.(.(.(.(.(.(.(.(.(.(.(.(.(.(.(.(.(.(.(.(.",
"(.(.(.(.(.(.(.(.(.(.(.(.(.(.(.(.(.(.(.(.(.(.(.(.(.(.(.(.(.(.(.(.",
"(.(.(.(.(.(.(.(.(.(.(.(.(.(.(.(.(.(.(.(.(.(.(.(.(.(.(.(.(.(.(.(.",
"(.(.(.(.(.(.(.(.(.(.(.(.(.(.(.(.(.(.(.(.(.(.(.(.(.(.(.(.(.(.(.(.",
"(.(.(.(.(.(.(.(.(.(.(.(.(.(.(.(.(.(.(.(.(.(.(.(.(.(.(.(.(.(.(.(.",
"(.(.(.(.(.(.(.(.(.(.(.(.(.(.(.(.(.(.(.(.(.(.(.(.(.(.(.(.(.(.(.(.",
"(.(.(.(.(.(.(.(.(.(.(.(.(.(.(.(.(.(.(.(.(.(.(.(.(.(.(.(.(.(.(.(.",
"(.(.(.(.(.(.(.(.(.(.(.(.(.(.(.(.(.(.(.(.(.(.(.(.(.(.(.(.(.(.(.(.",
"(.(.(.(.(.(.(.(.(.(.(.(.(.(.(.(.(.(.(.(.(.(.(.(.(.(.(.(.(.(.(.(.",
"(.(.(.(.(.(.(.(.(.(.(.(.(.(.(.(.(.(.(.(.(.(.(.(.(.(.(.(.(.(.(.(.",
"(.(.(.(.(.(.(.(.(.(.(.(.(.(.(.(.(.(.(.(.(.(.(.(.(.(.(.(.(.(.(.(.",
"(.(.(.(.(.(.(.(.(.(.(.(.(.(.(.l k (.(.(.(.(.(.(.(.(.(.(.(.(.(.(.",
"(.(.(.(.(.(.(.(.(.(.(.(.4 <.6.6.` I G 4 (.(.(.(.(.(.(.(.(.(.(.(.",
"(.(.(.(.(.(.(.(.K S (.(.< u.h.j.a.i.6.4 (.(.Z K (.(.(.(.(.(.(.(.",
"(.(.(.(.(.(.I 7.9._ y . 1 a H K K S C 1 . g <.i.7.I (.(.(.(.(.(.",
"(.(.(.(.(.<.i.p.6.P < O + & q 0 q q & @ + < _ u.d.p.' (.(.(.(.(.",
"(.(.(.(.C d.f.7.H 9 > O O & 0 0 0 5 & + O : Z _ f.f.u.p (.(.(.(.",
"(.(.(.(.& W 7.C q q 4 @ : 5 0 q q 0 7 : @ 1 q q H y.W % (.(.(.(.",
"(.(.(.(.O # # 4 q q 8 7 q 7 5 5 2 4 7 q 0 2 7 q 5 # * O (.(.(.(.",
"(.(.Z p % # # 4 q q 9 5 1 3 = = t t > # 1 0 0 0 1 # # % a G (.(.",
"(.Z 2.,.H = + 4 d 5 4 h b c 3 b | R r = 3 3 2 q 1 O % J 7.0.Z (.",
"(.K i.<._ ; 1 q 5 3 v R o.c c | &.| t m N c = - 2 # ; _ 7.i.K (.",
"(.) p.u.J + - 7 h R R Q | L | #.&.N Q | R c % 3 - # o P 0.9.Z (.",
"(.' j.d.( o # w R o.| E N | #.#.| b o.Q | h e m 6 # o I a.0.H (.",
"(.C 2.f.P o + h ~ #.| e N | | | N | @.| #.c R E x O X v u.h.) (.",
"(.& g z 4   % n R o.N r R | | b | @.#.@.E R @.@.N % . 4 z H > (.",
"(.X 4 0 1 ; > b N L b | | #.Q t | #.@.| N o.@.o.D > ; : 9 4 X (.",
"(.(.& 1 s _ P i h h Q | #.#.h L @.@.E m E &.~ m h ) ,.s 1 ; (.(.",
"(.(.  ; ( u.f.7.v t ~ #.| R m #.#.| | N #.| l A 9.d.p._ ;   (.(.",
"(.(.(.$ p ,.k.f.p.A t ~ V t L E | | h c &.d J d.d.d.g.C $ (.(.(.",
"(.(.(.: g Z y.l.y.6 6 m e s C A v P _ l m e l h.h.p.' u : (.(.(.",
"(.(.(.+ 9 I _ 3.p 7 3 6 F <.9.i.i.d.j._ 3 3 5 v <.,.) 9 $ (.(.(.",
"(.(.(.(.; P _ ) k 2 + ; I 2.a.f.f.h.k.F & O 1 k _ _ S & (.(.(.(.",
"(.(.(.(.$ G I p : * # ; 9 P ,.i.p.p._ 9 & # # > A ) C & (.(.(.(.",
"(.(.(.(.(.9 I ) G 5 $ $ k I ,.I ` ( P q & + 6 F ( _ u (.(.(.(.(.",
"(.(.(.(.(.o 4 G _ C 4 9 s Z G P ,._ G C p 5 Z ) G 4 o (.(.(.(.(.",
"(.(.(.(.(.X f 0 5 1 k ,.,._ S S ( ) _ _ K q 4 7 9 f   (.(.(.(.(.",
"(.(.(.(.(.(.;.n...j 4 C G P p 9 k G ,.I C : j ..m.:.(.(.(.(.(.(.",
"(.(.(.(.(.(.M Y.Q.K.>.X.V M j f 0 h C S B =.Y.Q.Y.M (.(.(.(.(.(.",
"(.(.(.(.(.(.0 J.T.!.^.^.!.T.T.J.Z.S.F.!.!.^./.^.K.w (.(.(.(.(.(.",
"(.(.(.(.(.(.f J.Q.~.^.W.P.z.5.8.4.5.c.G.W.~.!.!.!.f (.(.(.(.(.(.",
"(.(.(.(.(.$ 5 v.^./.S.%.e.c.b.H.H.G.C.z.8.J.!.!.S.3 % (.(.(.(.(.",
"(.(.(.(.(.; e ..~.F.} x.A.N.U.U.R.U.M.A.x. .L.E. .e , (.(.(.(.(.",
"(.(.(.(.(.6 n j n.=.O.*.t.$.V.I.I.V.$.z.-.+.:.S.h n , (.(.(.(.(.",
"(.(.(.(.(.% [ -.{ U L ! s.$.s.B.B.t.$.s.! { B } -.[ % (.(.(.(.(.",
"(.(.(.(.(.o ] t.x.O.c ] r.r.[ D D [ r.w.^ c +.x.c.] o (.(.(.(.(.",
"(.(.(.(.(.o e ! s.~ , w.q.e % & : & i q.w., Q t.! e o (.(.(.(.(.",
"(.(.(.(.(.o r 3 w.q.v w.D $ 5 7 k p o m r.v q.w.e i o (.(.(.(.(.",
"(.(.(.(.(.o i x ^ n n q.e 1 z l G G 1 6 q.D Y ] i i + (.(.(.(.(.",
"(.(.(.(.(.o e v ^ Y i [ 6 a H G P ) k 4 [ i Y ^ v e o (.(.(.(.(.",
"(.(.(.(.(.(., r ! T e T 6 G ) P I _ G e T e T ^ r , (.(.(.(.(.(.",
"(.(.(.(.(.(.o , n ! i q.v Z ,.P P P k v q.i T s = o (.(.(.(.(.(.",
"(.(.(.(.(.(.(.o w i , Y y u I P H G q r Y , i e o (.(.(.(.(.(.(.",
"(.(.(.(.(.(.(.(.o % % e e 4 S G k k 4 6 e % & + (.(.(.(.(.(.(.(.",
"(.(.(.(.(.(.(.(.(.(.  , 6 % 6 7 > : $ 3 ,   (.(.(.(.(.(.(.(.(.(.",
"(.(.(.(.(.(.(.(.(.(.(.$ = (.(.(.(.(.(.= % (.(.(.(.(.(.(.(.(.(.(.",
"(.(.(.(.(.(.(.(.(.(.(.(.(.(.(.(.(.(.(.(.(.(.(.(.(.(.(.(.(.(.(.(.",
"(.(.(.(.(.(.(.(.(.(.(.(.(.(.(.(.(.(.(.(.(.(.(.(.(.(.(.(.(.(.(.(.",
"(.(.(.(.(.(.(.(.(.(.(.(.(.(.(.(.(.(.(.(.(.(.(.(.(.(.(.(.(.(.(.(.",
"(.(.(.(.(.(.(.(.(.(.(.(.(.(.(.(.(.(.(.(.(.(.(.(.(.(.(.(.(.(.(.(.",
"(.(.(.(.(.(.(.(.(.(.(.(.(.(.(.(.(.(.(.(.(.(.(.(.(.(.(.(.(.(.(.(.",
"(.(.(.(.(.(.(.(.(.(.(.(.(.(.(.(.(.(.(.(.(.(.(.(.(.(.(.(.(.(.(.(.",
"(.(.(.(.(.(.(.(.(.(.(.(.(.(.(.(.(.(.(.(.(.(.(.(.(.(.(.(.(.(.(.(.",
"(.(.(.(.(.(.(.(.(.(.(.(.(.(.(.(.(.(.(.(.(.(.(.(.(.(.(.(.(.(.(.(."
};
