/* XPM */
static char *result[] = {
/* columns rows colors chars-per-pixel */
"64 64 210 2 ",
"   c #181E2F",
".  c #1D2633",
"X  c #1E2936",
"o  c #1F2838",
"O  c #1B2538",
"+  c #232D34",
"@  c #222D3B",
"#  c #25323C",
"$  c #2D3C3A",
"%  c #283538",
"&  c #2D403D",
"*  c #35463C",
"=  c #384B3E",
"-  c #243541",
";  c #293B42",
":  c #2B3D49",
">  c #253E50",
",  c #2E454A",
"<  c #2F4B48",
"1  c #3A4E42",
"2  c #31444D",
"3  c #344B4C",
"4  c #384F4B",
"5  c #3D5242",
"6  c #3D544B",
"7  c #3C584A",
"8  c #364D53",
"9  c #344C56",
"0  c #2E505F",
"q  c #3B5454",
"w  c #3A545A",
"e  c #3D5C5D",
"r  c #3E5957",
"t  c #3C625C",
"y  c #346057",
"u  c #3C5860",
"i  c #3F6761",
"p  c #3F6C63",
"a  c #366275",
"s  c #425944",
"d  c #415B55",
"f  c #425C5D",
"g  c #42575C",
"h  c #4A6245",
"j  c #4D694A",
"k  c #496347",
"l  c #516C48",
"z  c #54714C",
"x  c #5C7B4E",
"c  c #58754C",
"v  c #45645B",
"b  c #48675B",
"n  c #406F5F",
"m  c #4B6C5C",
"M  c #476155",
"N  c #4E745B",
"B  c #53745B",
"V  c #57795B",
"C  c #5A7C5B",
"Z  c #577856",
"A  c #617F4F",
"S  c #425C61",
"D  c #486465",
"F  c #4D6B63",
"G  c #436B6A",
"H  c #4C6A6B",
"J  c #426B64",
"K  c #516E6E",
"L  c #4C726B",
"P  c #447B6B",
"I  c #467867",
"U  c #557867",
"Y  c #4A6C71",
"T  c #456C70",
"R  c #4D7474",
"E  c #4B7E74",
"W  c #477777",
"Q  c #547474",
"!  c #537976",
"~  c #54777C",
"^  c #567B79",
"/  c #5A7D7B",
"(  c #587575",
")  c #5E8155",
"_  c #5E825B",
"`  c #5E895F",
"'  c #638453",
"]  c #698D54",
"[  c #62865C",
"{  c #668B5C",
"}  c #698D5B",
"|  c #678657",
" . c #738B5A",
".. c #6D9255",
"X. c #6C935C",
"o. c #6F995D",
"O. c #739957",
"+. c #75945B",
"@. c #739C5D",
"#. c #799E5C",
"$. c #789858",
"%. c #75A25E",
"&. c #7AA55D",
"*. c #7EAA5E",
"=. c #7EA457",
"-. c #4A846C",
";. c #528262",
":. c #548B65",
">. c #5A8E63",
",. c #588767",
"<. c #5D9264",
"1. c #5C9269",
"2. c #4B8275",
"3. c #478370",
"4. c #538371",
"5. c #59847D",
"6. c #54897A",
"7. c #5F947C",
"8. c #638B61",
"9. c #64876B",
"0. c #639663",
"q. c #6C9D61",
"w. c #62966B",
"e. c #69996A",
"r. c #709C65",
"t. c #618C73",
"y. c #618D79",
"u. c #6C9E74",
"i. c #67987A",
"p. c #71997C",
"a. c #6FA064",
"s. c #73A261",
"d. c #78A663",
"f. c #7AA962",
"g. c #76A46B",
"h. c #7CAA6C",
"j. c #7BA76D",
"k. c #6EA175",
"l. c #71A37A",
"z. c #76A776",
"x. c #7FB07E",
"c. c #8A9F5A",
"v. c #9BB94E",
"b. c #82A65C",
"n. c #84AD5C",
"m. c #8AAE5C",
"M. c #86A859",
"N. c #9BA558",
"B. c #92AB5C",
"V. c #98A859",
"C. c #8DB256",
"Z. c #87B05A",
"A. c #8BB159",
"S. c #94B553",
"D. c #9AB653",
"F. c #97B850",
"G. c #9BB850",
"H. c #93B25A",
"J. c #9BB35A",
"K. c #A0B94F",
"L. c #A3B656",
"P. c #AAB757",
"I. c #A3B951",
"U. c #ABB954",
"Y. c #A3B559",
"T. c #ABB659",
"R. c #AFB858",
"E. c #B2B956",
"W. c #B0B759",
"Q. c #B3B858",
"!. c #82AE64",
"~. c #80AA68",
"^. c #82B06E",
"/. c #82B27B",
"(. c #85B275",
"). c #3C7385",
"_. c #5C8282",
"`. c #568B83",
"'. c #5D8B83",
"]. c #598589",
"[. c #5C8B8A",
"{. c #5B948B",
"}. c #5D9485",
"|. c #458192",
" X c #458698",
".X c #628682",
"XX c #648985",
"oX c #628D8D",
"OX c #698E8C",
"+X c #6A8A85",
"@X c #65958B",
"#X c #658C91",
"$X c #659694",
"%X c #669C9C",
"&X c #669C99",
"*X c #729492",
"=X c #73A089",
"-X c #6BA39E",
";X c #75AA91",
":X c #7EB39D",
">X c #6DA4A3",
",X c #71A4A3",
"<X c #73AAA6",
"1X c #74ABAA",
"2X c #75ABAB",
"3X c #79B1AC",
"4X c #7CB2B2",
"5X c #85BCBD",
"6X c #81B7B6",
"7X c None",
/* pixels */
"7X7X7X7X7X7X7X7X7X7X7X7X7X7X7Xe w f , 9 m r 3 m w 7X7X7X7X7XK ( ( 7X7X7X7X7X7Xf 2 9 B q : w d 7X7X7X7X7X7X7X7X7X7X7X7X7X7X7X7X7X",
"7X7X7X$ = # w 8 ~ _.e D .XXXF O.C v [ C @.} _ @.v H _./ _.,.y.1X1X=Xp.+XXXOX5.H v _ f.} v C %.m m ,..X.XH C B f g 7X$ *   7X7X7X",
"7X7X7Xl n.k Z C ]._.C } j.u.8.*._ B &.*.n.=.*.&.@.s.i.h.z.!.u.;X6X(.!./.z.x.r.V X.*.*.&.@.[ n._ [ !.i.k.u.*.V s 1 + ] ] = 7X7X7X",
"7X7X+ = &.&.b.&.C ~.r.b.A.%.=.n.M.&.@.n.S.F.S.C.Z.Z.b.H.H.n.g.!.M.^.n.n.A.C.q.@.Z.n.Z.S.n.b.S.m.%.b.f.f.n.=.X.b.] s &.&...6 7X7X",
"7Xj ..' m.m.Y.P.N.T.D.A.S.G.v.G.Z.H.S.v.v.v.v.S.G.F.S.S.G.H.m.L.S.S.S.D.v.H.m.S.S.C.v.v.F.K.U.T.H.H.J.H.L.S.Z.n.A O.*.n.O.C b 7X",
"7Xh O.m.Y.P.T.Q.I.J.J.n.L.U.E.Q.T.U.H.C.C.S.C.S.S.F.G.v.v.U.D.J.Z.D.E.E.E.U.P.J.C.C.F.C.S.S.G.K.I.v.K.L.Y.C.m.J.H.H.H.!.@.@.V 7X",
"7X+ h $.T.K.K.G.G.S.C.S.v.K.I.I.K.K.C.n.S.S.m.J.Z.C.H.G.v.v.S.S.S.v.K.I.I.I.I.S.M.C.S.m.J.m.F.v.v.v.v.S.C.S.S.S.P.W.H.n.&.B w 7X",
"7X1 *.n.H.v.S.S.G.v.v.S.G.C.S.C.C.v.v.F.v.v.I.I.v.v.S.S.C.D.v.v.F.S.S.C.S.C.S.v.F.v.v.K.I.v.v.v.G.C.D.v.G.F.S.S.I.U.H.!.Z.} f 7X",
"7X3 j b.J.P.J.Y.G.D.C.m.C.C.L.H.n.S.v.v.C.A.S.S.G.I.P.J.J.I.G.S.m.A.C.D.J.m.C.v.v.S.A.C.S.v.K.U.Y.J.P.S.v.Z.n.S.D.m.q.r.&.[ f 7X",
"7Xf V b.R.T.H.L.S.F.v.F.C.C.H.A.v.v.v.v.S.C.C.F.S.L.I.H.D.D.S.v.v.C.C.H.C.S.v.v.v.S.C.A.S.S.H.U.J.H.G.S.v.v.S.D.C.*.q.>.C } v 7X",
"O d f.m.Y.Q.I.v.K.U.U.L.m.m.H.H.S.v.v.v.v.v.S.D.S.v.v.G.G.I.U.K.P.H.Z.H.H.S.v.v.v.v.v.F.S.F.F.v.v.F.v.U.U.U.D.m.H.S.m.*.&.&.F 7X",
"X d q.n.J.L.U.U.E.P.P.Y.E.E.E.E.U.K.U.v.C.C.Z.D.S.Z.C.v.v.U.P.T.Y.T.Q.W.E.E.I.I.v.F.A.C.S.H.Z.A.F.v.I.U.P.T.Y.Q.T.P.T.H.n.s.4.7X",
"Z @.d.f.n.H.U.E.I.F.A.Z.J.L.S.G.v.K.v.v.S.S.I.U.H.C.S.v.v.K.v.S.C.C.I.H.K.K.v.I.v.F.S.L.I.J.A.S.v.v.v.G.S.C.m.L.D.G.E.L.Z.s.P L ",
"K =X;Xl.a.q.n.G.v.v.v.v.F.v.G.G.v.v.v.v.v.v.v.v.S.S.v.v.v.v.v.v.D.D.F.v.v.v.v.v.v.v.v.v.v.v.S.v.F.v.v.v.v.v.S.S.G.v.K.J.z.7.5.K ",
"K i.!.d.0.s.M.n.A.S.v.v.C.C.S.S.S.v.v.F.v.A.S.v.C.n.Z.C.S.v.v.v.v.F.A.S.S.S.v.v.v.v.C.C.v.S.n.n.A.S.v.v.v.v.v.C.C.S.D.!.q.-.`./ ",
"~ }.e.w.%.C.S.S.v.K.v.v.C.Z.C.m.H.S.A.n.A.S.A.C.S.C.S.F.S.v.K.I.S.S.Z.C.n.H.S.C.n.Z.S.C.C.S.C.S.F.F.v.K.I.v.S.Z.C.Z.C.Z.h.k.$XH ",
"7X5.e.f.&.H.I.H.P.E.Y.D.C.C.v.F.I.v.m.Z.C.F.S.v.I.I.v.U.J.L.E.P.H.S.Z.v.v.K.v.C.Z.Z.S.F.D.K.I.v.K.L.H.E.T.J.S.A.S.v.I.L.!.s.K : ",
"~ y.&.*.Z.L.U.L.I.J.G.G.v.v.v.v.v.v.S.S.S.m.F.L.L.L.I.K.I.L.D.H.K.v.v.v.v.v.v.F.S.F.Z.S.G.L.L.U.K.U.L.L.S.L.v.v.v.v.L.L.m.>.3 @ ",
"H U @.n.S.F.F.v.S.S.S.S.G.I.K.U.U.D.Z.C.C.H.C.C.G.S.v.S.v.v.S.S.S.F.I.I.U.U.L.A.C.C.B.H.m.D.S.G.v.F.v.F.S.S.S.G.I.U.U.Y.#.%.@.q ",
"S [ *.m.J.I.Z.Z.S.L.J.n.Z.I.K.L.I.v.v.I.P.E.T.I.K.I.K.C.n.C.I.Y.m.n.G.K.L.I.K.v.G.T.U.U.U.K.K.K.S.Z.A.D.L.H.n.S.K.G.L.J.C C C ; ",
"N *.b.J.L.I.v.S.S.v.K.v.F.F.C.Z.v.v.v.v.G.L.v.v.K.I.G.v.F.S.v.I.v.F.v.C.n.S.v.v.v.D.G.v.v.v.I.L.v.F.S.F.I.I.F.F.S.Z.C.L.#.B C 3 ",
"6 } f.J.Y.Z.F.C.n.Z.D.F.v.F.F.F.v.S.C.n.S.C.S.S.A.S.Z.S.S.n.m.C.F.v.v.F.F.v.v.C.C.C.D.S.S.A.S.S.C.S.A.n.A.F.v.v.v.S.G.P.V.&.n.| ",
": C f.+.$.Y.J.C.M.C.C.S.v.v.v.v.v.v.F.S.F.S.A.C.Z.L.D.B.A.Z.Z.S.C.v.v.v.v.v.v.v.S.S.S.Z.C.A.H.L.H.A.A.M.C.A.F.v.G.S.n. .C C } v ",
"q %.&.V %.J.I.v.S.v.S.S.F.C.S.A.S.C.v.v.v.C.v.v.v.I.I.K.v.F.F.v.S.F.C.S.C.C.C.F.v.v.S.S.v.v.v.I.K.v.v.S.v.S.F.S.S.C.m.b.M.C w 9 ",
"2 [ [ m X.m.S.G.S.A.C.Z.A.A.Z.n.n.A.F.v.v.v.v.K.I.U.U.P.K.v.A.C.n.A.C.n.n.m.n.S.v.v.F.v.v.K.U.E.L.U.D.S.C.A.n.S.n.C.A.D.L.} { S ",
"; u C @.X.m.C.G.U.I.I.S.D.v.v.D.Z.S.S.v.v.v.v.v.I.U.H.S.K.U.I.I.v.F.v.v.G.S.A.S.v.v.v.v.v.I.I.D.C.G.I.I.I.G.S.v.v.G.J.D.T.M.[ r ",
"- t B [ &.Y.P.v.U.D.J.Z.L.U.U.E.L.T.S.C.S.S.C.S.S.v.v.v.v.U.Y.J.n.H.U.E.U.P.L.L.S.C.v.C.S.S.F.v.v.v.I.P.J.H.Z.U.U.U.T.J. .B Y H ",
"7Xw E U b.L.Q.U.G.A.S.C.I.I.K.I.U.I.C.n.S.C.m.B.n.v.v.v.v.v.C.S.S.D.K.K.I.U.I.S.n.A.S.n.J.m.S.v.v.v.v.S.C.S.S.I.K.U.U.P.&.8 ]./ ",
"H ].1.e.&.C.Y.J.G.v.v.S.v.C.H.S.C.v.v.F.v.v.K.I.F.v.v.S.S.S.v.v.F.F.S.S.S.A.v.v.v.v.F.v.U.G.v.v.D.S.S.v.v.G.F.F.C.D.J.B.| 5 8 D ",
"e W _ &.n.C.H.Y.D.G.S.Z.C.C.Y.C.n.S.v.v.C.C.S.F.v.K.U.J.J.L.S.S.m.A.C.D.D.m.C.v.v.S.C.C.S.v.v.U.L.H.Y.D.G.Z.Z.C.H.Y.A.C.=.=.x % ",
"2 t V >.q.M.J.P.D.F.v.S.S.A.D.H.F.v.v.v.C.A.C.F.S.L.L.H.D.G.D.v.F.C.C.H.m.S.v.v.v.S.A.A.S.S.D.P.D.H.I.C.D.G.S.C.H.Y.Y.D.C.@.s   ",
", N *.a.q.J.T.U.I.P.I.L.m.m.C.A.S.v.v.v.v.v.S.v.v.v.v.v.G.v.L.I.U.S.m.m.H.S.v.v.v.v.v.F.F.F.F.v.D.v.v.I.I.I.D.Z.J.Z.m.%.o.n.c 7X",
"7Xt <.%.m.H.U.U.U.P.Q.Y.T.T.E.E.U.I.I.v.S.C.C.H.S.A.C.v.v.U.U.T.Y.T.T.E.E.U.K.U.v.F.C.C.C.H.m.C.F.v.U.U.T.T.L.L.D.*.f.&._ z 1 7X",
"5.3.<.*.*.m.Y.U.I.D.C.Z.J.Y.D.K.I.K.K.v.C.D.L.U.m.A.S.v.v.I.G.S.Z.B.U.H.K.L.K.K.v.F.C.L.T.D.A.S.F.v.v.K.S.C.B.T.b.0.<.<.>.) z # ",
"! 3.:.<.<.q.s.%.C.F.S.S.D.v.v.v.v.v.v.v.v.v.v.v.v.S.v.v.v.v.v.v.v.S.v.F.v.v.v.v.v.v.v.v.v.v.S.v.v.v.v.v.v.C.C.D.A.Z.n.&.f.d.g.d ",
"L P P <.s.0.<.q.n.m.n.S.C.S.S.F.S.v.v.F.G.C.S.v.C.n.Z.C.v.v.v.v.v.D.C.S.F.S.v.v.v.v.C.S.v.S.n.Z.C.S.v.v.v.K.I.D.S.C.C.n.*.k.$X^ ",
"^ `.P :.r.n.*.m.C.G.v.v.C.Z.A.Z.S.S.C.n.C.S.Z.S.S.C.S.S.D.v.v.K.v.S.Z.A.n.S.C.S.A.A.C.A.C.S.m.S.F.S.v.v.K.I.P.J.J.C.D.J.+._ ! ~ ",
"K ~ ;.&.m.!.J.H.U.E.D.S.C.C.v.S.L.D.A.Z.Z.G.S.S.v.I.v.U.H.D.E.P.S.S.A.v.F.L.G.C.Z.n.F.F.S.K.K.G.I.D.H.E.U.J.S.A.L.I.U.Y.*.&.m w ",
"( ! [ m.Y.D.G.U.I.J.L.G.v.v.v.v.v.v.S.S.S.C.v.L.L.T.K.K.P.L.L.D.G.v.v.v.G.G.G.F.S.S.A.S.G.L.L.U.K.T.L.I.H.L.v.v.G.U.P.m.{ B w @ ",
"! T m &.B.Y.D.S.v.S.S.S.v.I.K.U.U.S.Z.A.Z.B.C.C.S.D.v.G.v.v.S.S.S.F.K.K.U.U.D.A.m.C.m.H.C.D.S.G.v.D.v.v.S.F.S.v.K.I.I.Y.[ B [ 3 ",
"e N [ m.T.Y.m.m.S.L.J.m.Z.I.K.I.U.v.v.L.I.E.P.I.v.I.K.A.A.C.I.J.m.n.G.K.L.I.I.v.v.P.T.U.U.G.K.K.S.Z.A.D.L.B.Z.H.I.I.I.U.m.&.} 9 ",
"| n.@.n.T.P.v.S.S.K.I.D.S.v.C.m.F.v.v.v.G.K.K.v.I.I.K.G.S.S.v.U.G.S.D.S.n.S.v.v.v.G.K.K.v.K.U.K.F.F.S.v.U.K.S.F.S.Z.H.U.D.&.Z d ",
"d C C #.m.H.D.S.n.A.S.F.v.v.S.F.v.F.C.A.S.S.D.S.Z.D.A.S.F.n.A.S.v.v.v.S.S.v.v.C.C.C.S.S.D.A.S.C.C.F.A.Z.C.F.v.v.v.S.G.E.A.n.b.C ",
"4 V b #.n.Z.A.m.n.A.C.S.v.v.v.v.v.v.F.C.F.C.A.A.m.D.D.B.Z.Z.n.C.C.v.v.v.v.v.v.v.S.S.S.C.A.n.S.L.H.A.Z.n.C.A.F.v.v.v.I.Q.Y.@.X.b ",
"B n.q.X.*.C.S.C.S.v.S.F.v.S.S.C.S.S.v.v.F.C.v.v.v.K.I.G.F.F.F.D.S.v.S.S.C.S.S.S.v.v.S.S.v.F.v.K.K.G.F.D.S.S.D.F.S.S.H.J.!.%.B w ",
"q C &.Z.A.T.U.G.S.C.C.n.C.Z.Z.b.n.A.S.v.v.F.v.G.K.U.T.P.K.v.A.S.Z.m.C.n.n.n.n.S.v.v.F.F.v.L.U.T.L.I.v.C.S.C.n.C.n.Z.m.H.J.!.[ f ",
"8 X.f.Z.S.H.D.I.I.L.K.S.S.v.v.S.A.C.S.v.v.v.v.G.I.U.H.S.G.U.G.L.F.F.v.F.v.C.C.S.v.v.v.v.v.I.U.D.H.G.I.K.G.G.S.F.S.G.L.J.J.b.{ S ",
"b [ X.&.M.C.C.G.U.L.J.Z.L.U.U.T.L.P.D.S.S.S.S.v.F.v.v.v.G.U.L.L.A.H.U.U.U.L.Y.L.S.C.v.S.F.F.v.v.v.v.U.T.L.H.A.U.U.E.Q.m.f._ J D ",
"7Xw F C %.J.L.L.v.A.C.S.G.I.I.U.U.K.C.n.S.A.m.H.m.v.v.v.v.v.C.C.C.S.U.K.U.L.I.S.n.A.S.n.H.m.S.v.v.v.v.S.A.C.S.I.I.I.U.Y.n.s.-.L ",
"H [.4.<.m.Y.L.D.v.v.v.v.v.S.S.S.C.v.v.S.v.F.I.K.F.v.v.F.S.D.v.v.v.v.F.S.F.S.v.v.F.v.v.G.P.v.v.v.v.S.S.v.v.v.F.v.C.L.Y.m.*.k.[.! ",
"Q 7.f.&.J.T.H.J.G.v.C.n.S.m.L.m.n.F.v.v.C.S.S.F.G.K.I.J.H.I.v.S.m.A.C.J.J.n.C.v.v.S.C.S.F.v.K.I.L.B.L.v.F.A.A.C.H.Y.&.f.f.e.9.7X",
"[.7.o.m.T.T.H.L.H.F.F.S.S.C.D.S.S.v.v.v.C.Z.A.F.H.L.U.H.J.J.S.v.S.S.C.H.S.S.v.v.v.S.Z.Z.S.S.J.U.D.J.K.C.F.F.S.S.H.=.:.>.0.>.,.7X",
"Q G B m.Q.T.v.G.K.I.U.D.m.m.m.C.S.v.v.v.v.v.S.G.v.v.v.v.v.v.I.K.K.S.n.m.C.S.v.v.v.v.v.F.S.G.F.v.D.S.v.v.K.U.H.n.n.*.f.s.q.r.{ f ",
"D m &.!.H.J.v.K.U.U.E.T.T.Y.T.Q.U.K.I.v.S.S.Z.S.C.C.C.v.G.U.E.T.T.T.T.T.Q.U.L.K.v.F.C.C.C.D.Z.S.v.v.U.E.T.E.T.T.D.L.Y.T.m.X.B 8 ",
"2 v 8.n.m.L.U.K.I.D.H.n.J.P.D.I.I.I.I.v.C.S.L.P.H.Z.C.v.v.K.G.S.A.B.T.J.L.K.K.K.v.F.C.L.L.J.Z.C.F.v.v.I.S.H.m.L.C.D.U.D.m.@.b # ",
"7X, B { B.Q.Q.K.v.v.v.S.S.v.D.G.v.v.v.v.v.G.v.K.F.F.v.v.v.v.v.v.F.S.v.v.v.v.v.v.v.v.v.v.K.v.S.v.v.v.v.v.K.G.D.C.J.Y.P.C.&.%.[ - ",
". s { X.{ B.Y.G.v.v.G.G.S.S.S.I.T.I.G.G.I.C.S.v.S.Z.Z.S.v.K.K.v.G.F.S.S.S.S.v.v.G.G.C.S.v.F.n.A.C.S.v.v.U.Q.T.H.G.T.J.S.*.[ e 7X",
"% O.] *.m.Y.Y.P.I.U.I.H.S.m.C.B.H.H.J.H.Y.Y.J.S.J.A.H.J.I.U.K.E.I.S.n.C.Z.H.S.S.A.C.S.A.C.S.Z.J.D.G.K.I.U.Q.Y.A.C.Z.n.Z.n.&.1 7X",
"+ 1 % z m.D.m.C.Y.A.J.n.m.Y.T.J.Z.f.*.!.A.Q.J.F.D.!.A.Y.J.Y.N.N.J.Z.Z.D.Y.U.G.H.A.Z.F.D.J.I.H.P.Q.Y.H.Q.Q.J.H.O.&.n.&.f.x = < X ",
"@ q $ ] b.&.f.s.n.&.f.f.*.!.B.n.*.*.n.b.!.J.U.P.J.*.*.H.J.!.C X.*.X.C.m.m.H.L.P.J.D.C.Y.R.m.f.H.Y.n.!.H.H.=.&.z l O.x n.' , y X ",
"7X@ * &.O.j 0.,.[ C &._ %.o.%.@.} *.@.%.%.f.Z.Z.s.q.n.n.f.f.{ N m [ &.C r.o.M.M.&.H.m.b.b.X.V o.f.f.q.b.f...7 $ < < * O.c # - 7X",
"7X> : 6 1 G {.<X#XN @.m ;.4.U } b X.N m @.A.} %.<.%.h.j.l.8.C H W b m p P n b C 8.#.b.%.[ @.v 0.*.1.e.d.7.;.P P {.2.p 4 < < a 7X",
"7X).9 G W %X4X4X6X#XR R P 2.R t I ! p G C | t F 6.l.:X3X4X[.#X4X<XP E }.3.6.G G C b } B ! ! p @X1.`.`.}.1X{.>X3X4X3X<X2.t 0  X7X",
"7X7X).).$X[.2X>X>X4X2X-X5.Q ! `.&X>X`._.Y / L L .X&X-X,X4X5X5X6XOXF Q ,X1X4X-X<X].H H K OX4X1X1X{._.XX_.#X$X%X>X2X>X[.+X*X|. X7X"
};
