/* XPM */
static char *result[] = {
/* columns rows colors chars-per-pixel */
"64 64 214 2 ",
"   c #151B2D",
".  c #1C2535",
"X  c #212C35",
"o  c #212B39",
"O  c #25323F",
"+  c #28373B",
"@  c #37493D",
"#  c #2B3B46",
"$  c #2D3E49",
"%  c #283643",
"&  c #303E48",
"*  c #2D414C",
"=  c #2C4046",
"-  c #33444C",
";  c #35494D",
":  c #354B46",
">  c #3E574A",
",  c #354B52",
"<  c #3A4D53",
"1  c #344F5B",
"2  c #3D5255",
"3  c #3D545B",
"4  c #3E5B5C",
"5  c #395555",
"6  c #3B615F",
"7  c #3F5D61",
"8  c #3E6760",
"9  c #435A45",
"0  c #41565A",
"q  c #425C5D",
"w  c #435D53",
"e  c #404F57",
"r  c #4B6749",
"t  c #536F49",
"y  c #55724D",
"u  c #5B7A4E",
"i  c #44625A",
"p  c #4A6A5B",
"a  c #476759",
"s  c #526E59",
"d  c #4D745C",
"f  c #54765B",
"g  c #56795C",
"h  c #5A7D5B",
"j  c #587655",
"k  c #445D61",
"l  c #495F62",
"z  c #456264",
"x  c #4B6465",
"c  c #426A62",
"v  c #4B656A",
"b  c #4D6A6B",
"n  c #4A6E65",
"m  c #526E6D",
"M  c #4C736B",
"N  c #447D6B",
"B  c #467568",
"V  c #53706F",
"C  c #557A66",
"Z  c #4E6F71",
"A  c #466D71",
"S  c #4D7574",
"D  c #48757E",
"F  c #547574",
"G  c #567B7A",
"H  c #597D7D",
"J  c #597876",
"K  c #657F7C",
"L  c #5D835D",
"P  c #5F8050",
"I  c #60814F",
"U  c #6A8D53",
"Y  c #61855B",
"T  c #648A5C",
"R  c #6A8F5D",
"E  c #648453",
"W  c #778F5A",
"Q  c #6D945D",
"!  c #6D965A",
"~  c #739B5C",
"^  c #7A9C5B",
"/  c #729659",
"(  c #75A25E",
")  c #7BA45D",
"_  c #7EAA5E",
"`  c #7DA357",
"'  c #5B8667",
"]  c #5D9264",
"[  c #4B8275",
"{  c #59877A",
"}  c #538A74",
"|  c #618869",
" . c #639462",
".. c #6B9C62",
"X. c #679966",
"o. c #719C69",
"O. c #719F60",
"+. c #62877B",
"@. c #679776",
"#. c #70997A",
"$. c #6FA061",
"%. c #72A261",
"&. c #73A46D",
"*. c #7AA765",
"=. c #7AA976",
"-. c #6BA17C",
";. c #809F5C",
":. c #9BB94E",
">. c #82A55C",
",. c #8EA55A",
"<. c #84AD5C",
"1. c #8AAE5C",
"2. c #88AC56",
"3. c #93AE5B",
"4. c #97A558",
"5. c #8DB256",
"6. c #87B05A",
"7. c #8BB159",
"8. c #94B553",
"9. c #9AB653",
"0. c #9BB850",
"q. c #94B25A",
"w. c #9BB359",
"e. c #A0B94F",
"r. c #A3B656",
"t. c #A9B657",
"y. c #A3B951",
"u. c #AAB954",
"i. c #A3B559",
"p. c #AAB659",
"a. c #AEB858",
"s. c #B2B956",
"d. c #B1B858",
"f. c #82AE62",
"g. c #85B271",
"h. c #3D7C90",
"j. c #4B7A83",
"k. c #568383",
"l. c #5B8484",
"z. c #5E8B8A",
"x. c #5E8888",
"c. c #5D918E",
"v. c #4C8C9B",
"b. c #428295",
"n. c #589197",
"m. c #648583",
"M. c #6E8B85",
"N. c #628C8C",
"B. c #698B89",
"V. c #718F89",
"C. c #639282",
"Z. c #63938E",
"A. c #6C9786",
"S. c #74948D",
"D. c #629494",
"F. c #6B9695",
"G. c #649A96",
"H. c #669D9D",
"J. c #699E9E",
"K. c #699799",
"L. c #7D9C94",
"P. c #749A98",
"I. c #75A489",
"U. c #6AA29D",
"Y. c #69A298",
"T. c #7AA69D",
"R. c #5D99A4",
"E. c #5A97A3",
"W. c #639DA5",
"Q. c #729FA1",
"!. c #6CA2A3",
"~. c #6AA4AB",
"^. c #71A5A3",
"/. c #72AAA4",
"(. c #70A7A8",
"). c #73AAAB",
"_. c #79ADAD",
"`. c #7AB0AA",
"'. c #79AEB1",
"]. c #7CB3B4",
"[. c #839F98",
"{. c #83A29A",
"}. c #88A99E",
"|. c #81B286",
" X c #8BADA2",
".X c #8EB2A7",
"XX c #94B7AB",
"oX c #80B5B6",
"OX c #85BCBC",
"+X c #83B9B8",
"@X c #9BBFB1",
"#X c #9DC3B5",
"$X c #8EC2BE",
"%X c #A4CABB",
"&X c #88BFC0",
"*X c #8BC2C3",
"=X c #96C9C2",
"-X c #9CCCC4",
";X c #A4D4C9",
":X c #ADDBCE",
">X c #A9D3C5",
",X c #B3DDCD",
"<X c #B1D6C6",
"1X c #ACD7C9",
"2X c #B7E0CE",
"3X c #B5E2D1",
"4X c #BBE5D4",
"5X c #BEE8D6",
"6X c #BFEBD8",
"7X c #C1EBD6",
"8X c #C2EDD9",
"9X c #C7F1DC",
"0X c #C8F2DD",
"qX c None",
/* pixels */
"qXqXqXqXqXqXqXqXqXF l qXqXqXq p i q 2 5 g a > g 4 qXqXqXm m V m.N.+.K m qXqXJ z , 4 L r * i f qXqXqXqXqXqXi k qXqXqXqXqXqXqXqXqX",
"qXqXqX9 E @ i a l.l.a C #.A.C ) L p ~ Q <.~ ! ^ g ' C.@.C.o.@./._.g.=.I.A.I.@.n f ~ _ ! L L >.g C o.C.C.' / f 2 ; X r y + qXqXqX",
"qXqXX 9 f./ ) ^ C *.o.) 1.( ` <.( / ( 6.5.8.8.5.6.1.*.q.q.f.&.*.g.g.f.f.1.7.~ ! 6._ 6.5.<.^ 5.>.~ _ *._ <._ T / u @ _ ~ I > qXqX",
"qXr / U 1.3.i.p.4.t.i.2.8.0.y.r.q.8.q.:.8.:.8.8.8.8.8.9.0.w.q.r.8.8.9.9.y.w.1.8.8.5.:.:.9.0.y.u.w.q.9.w.r.q.6.1.U ^ 7.6./ T p qX",
"qX@ y >.t.u.y.u.e.q.5.5.r.u.u.u.y.u.5.6.8.q.7.8.5.8.w.0.:.e.9.8.5.9.u.u.u.u.u.9.6.5.8.2.8.7.9.e.:.:.:.9.q.q.7.9.i.p.q.<.( L p qX",
"qX@ / f.w.:.8.8.:.:.8.8.:.5.8.8.5.:.:.8.:.9.9.y.8.:.8.8.8.0.8.8.8.8.:.q.8.q.9.0.8.:.8.8.r.8.0.0.:.9.8.:.:.8.8.8.r.d.q.>.<.T 4 qX",
"qX< r >.r.t.w.r.0.8.q.5.5.5.r.q.5.8.:.:.7.6.5.8.:.e.u.w.w.y.8.9.5.5.5.w.9.7.5.:.:.8.7.7.8.0.0.u.w.q.i.9.:.5.5.9.8.7.....O.Y q qX",
"qXi Q <.p.d.w.0.0.y.y.9.5.7.5.5.5.:.:.:.:.:.8.0.8.0.:.9.9.0.0.y.e.5.7.5.5.5.:.:.:.:.8.8.0.8.8.e.0.9.0.9.:.e.8.7.5.<.) ..Q ~ a qX",
". i %.6.w.r.u.e.u.u.u.i.i.i.p.u.y.y.y.:.8.8.5.8.q.5.5.:.:.u.u.u.i.r.r.p.u.u.y.y.:.8.8.q.q.8.7.5.:.:.u.u.t.p.i.r.p.i.i.q.<.%.C qX",
"f o.&.*.f.3.r.u.y.0.q.7.9.r.8.y.0.:.e.:.8.9.y.y.8.5.:.:.:.:.:.q.q.q.r.9.:.:.e.e.:.0.9.:.y.9.8.8.:.:.:.:.9.q.5.y.9.9.u.w.f.&.N M ",
"V A.=.=. ...<.5.q.:.:.:.8.8.8.:.9.:.:.:.:.8.:.:.5.5.5.8.:.:.:.:.:.8.8.9.:.8.8.:.:.:.8.8.:.:.7.5.8.8.:.:.:.:.:.8.9.:.0.q.&.[ x.G ",
"G +.X.X.( 1.9.5.8.0.:.0.5.7.5.7.8.8.5.7.5.5.5.5.5.7.8.8.8.:.y.y.:.8.6.7.1.5.9.8.6.5.5.5.5.8.7.q.8.8.:.:.e.8.8.6.7.7.q.1.*.@.Z.Z ",
"F +...*.*.w.u.q.u.t.9.9.8.q.:.:.y.0.5.7.7.9.9.0.e.u.:.u.9.i.u.i.9.8.5.:.9.:.:.9.5.5.8.8.8.e.y.y.e.r.9.d.i.9.9.5.9.:.t.i.f...c % ",
"S } ( <.5.9.0.y.0.q.9.9.:.:.:.e.y.8.5.5.5.5.5.w.0.9.e.:.e.:.9.8.:.:.e.:.e.y.0.5.5.5.7.q.8.0.8.y.:.e.y.0.8.9.9.:.:.e.y.r._ ! f ; ",
"k L _ 1.9.0.7.5.9.9.9.1.5.y.y.r.y.0.8.0.r.p.t.0.:.y.:.q.7.5.r.9.7.7.:.:.r.u.e.:.:.y.t.t.r.y.0.y.8.7.5.9.i.q.6.q.y.0.t.w.Y L Y = ",
"s ) _ q.r.9.:.8.q.9.:.8.:.:.5.7.:.:.:.8.9.0.0.0.0.:.9.:.9.5.9.e.:.8.:.8.7.8.:.8.8.8.:.:.:.0.y.9.:.8.5.8.0.:.:.:.9.5.q.u.;.L T 9 ",
"* h ) ,.,.q.w.5._ 6.5.8.:.:.:.:.:.:.5.5.8.5.5.5.6.9.q.q.5.6.6.5.5.:.:.:.:.:.:.8.5.8.8.5.5.6.q.9.5.5.1.<.7.5.:.:.:.:.8.,.W Q ) f ",
"5 ~ ) h ~ w.y.0.8.9.8.8.:.8.8.5.8.5.:.:.:.5.8.:.0.y.y.9.8.8.8.8.8.8.8.8.5.5.8.8.:.:.5.8.:.8.:.u.y.9.:.5.9.8.8.8.5.6.<.^ ^ f i < ",
"# g L f  .<.8.:.0.5.8.7.5.5.5.7.6.5.9.:.:.:.:.:.y.u.i.9.y.:.q.8.5.5.q.5.5.2.7.8.:.:.:.:.:.e.u.t.9.y.:.8.8.5.7.8.5.9.7.9.p.^ T q ",
"# 6 h ! ~ w.9.0.u.r.y.5.0.y.y.y.q.9.8.9.:.:.8.:.0.y.8.:.:.u.y.t.q.8.y.y.y.9.w.9.:.8.8.9.0.:.:.8.9.:.y.u.r.9.5.y.e.e.y.w.4.R n 7 ",
"$ 7 B ' >.r.s.y.0.5.q.5.y.y.y.y.y.y.5.<.5.5.7.8.6.:.:.:.:.0.8.5.5.8.e.y.e.u.y.9.6.5.8.6.q.7.9.:.:.:.:.9.5.5.5.y.y.u.u.r./ < j.H ",
"k k.' $.*.q.w.i.0.:.9.5.8.q.9.q.5.:.:.:.:.8.0.y.:.:.:.8.q.0.:.:.8.8.8.8.9.7.8.:.8.:.:.8.y.:.:.:.:.q.9.:.:.9.5.:.q.0.3.q.U r w 0 ",
", 8 d Q *.2.w.r.9.9.8.5.5.5.r.5.5.9.:.:.7.6.5.9.0.t.u.w.9.r.9.8.5.5.q.9.8.7.8.:.:.8.6.5.8.:.0.u.9.q.r.q.:.8.7.5.q.r.w.w.2._ y % ",
"- B ( ..Q w.p.u.y.y.y.r.5.5.q.q.9.:.:.:.:.:.8.8.8.0.:.8.8.0.y.e.y.q.7.q.5.8.:.:.:.:.8.8.8.:.8.:.9.9.:.y.y.y.9.7.q.1.1.>.~ _ r # ",
"1 8 ] _ _ q.u.u.u.t.i.w.p.p.p.u.y.e.y.:.8.5.8.w.q.7.5.:.:.u.u.r.i.i.u.p.a.u.y.y.:.8.5.9.q.8.6.5.:.:.e.u.i.i.i.r.8.( ..$.L y > = ",
"S [ ] $.$._ 1.3.9.0.5.5.8.:.9.:.:.:.:.:.8.0.0.y.8.8.8.:.:.:.:.8.q.5.:.8.:.y.:.:.:.:.8.:.y.9.5.8.:.:.:.:.9.7.7.r.<.( ~ ..X.~ R : ",
"B [ 8 ] $.X.] ~ <.7.7.8.5.8.8.:.8.:.:.:.0.5.8.0.5.2.5.8.8.:.:.:.:.:.5.8.8.8.0.:.:.:.8.8.:.8.1.5.q.8.:.:.:.0.y.8.q.5.5.<._ &.Z.M ",
"S } [ ] %._ <.1.9.y.0.9.5.6.5.7.9.8.5.6.7.8.5.8.9.8.8.8.9.:.y.t.:.5.6.5.5.q.8.8.6.6.5.5.5.9.5.8.:.:.8.y.u.0.r.q.w.9.9.i.~ R F Z ",
"v S ' <.3.q.w.r.y.i.9.9.9.8.:.:.0.0.8.5.5.8.8.e.e.u.:.u.r.r.t.9.9.:.8.:.:.:.:.9.5.5.8.9.9.y.u.y.0.t.9.p.w.9.0.8.y.u.u.3.~ R 4 * ",
"Z A f >.w.r.9.9.0.8.8.9.0.0.y.u.u.8.7.5.q.1.q.8.9.9.:.:.0.:.8.9.9.8.y.0.y.u.0.7.5.q.5.q.q.9.8.0.:.0.0.0.8.9.9.0.y.y.u.w.T s g - ",
"a Y T 1.p.p.5.7.8.r.w.7.5.y.0.9.y.0.8.e.y.u.y.y.:.y.y.5.7.5.y.i.5.7.9.0.9.0.e.:.:.y.t.t.y.y.:.y.9.7.5.9.r.q.6.8.0.9.9.p.5.) Y , ",
"j ~ R ) w.i.9.8.5.8.y.0.:.8.5.5.0.0.8.8.8.0.0.9.8.0.8.9.9.7.8.0.:.8.:.8.5.8.:.9.8.5.:.0.0.8.:.9.8.:.5.5.9.:.:.:.9.5.9.s.q._ / s ",
"5 g p Q <.7.5.5.6.7.5.8.:.:.:.:.:.:.8.5.:.5.5.5.6.9.q.5.7.<.6.q.5.:.:.:.:.:.:.8.5.8.8.5.5.6.8.w.q.5.7.6.5.5.:.:.:.:.y.d.w.~ ~ p ",
"p ( ~ ~ <.q.9.8.8.8.8.q.:.5.5.7.5.5.:.:.:.8.8.:.:.y.u.t.:.:.8.8.5.9.8.5.7.5.5.:.:.:.8.8.:.:.:.y.y.0.:.q.:.5.8.8.5.5.7.w.1.*.g 3 ",
"; Y _ 6.5.w.r.:.:.q.9.5.5.5.q.7.2.5.8.:.:.:.:.e.y.u.r.9.:.:.8.9.5.5.8.5.5.7.5.5.:.:.:.:.:.e.u.t.9.y.:.9.8.q.5.8.5.5.8.w.w.<.T q ",
"i Y Q ) 1.5.5.y.u.0.9.5.y.e.u.u.9.r.8.8.8.8.8.8.9.0.8.:.e.u.r.9.5.9.y.u.u.i.9.0.8.8.:.5.8.8.:.:.8.:.y.t.i.8.5.u.y.u.u.q.>.T B z ",
"5 k A L ) w.i.y.0.q.8.8.0.y.0.r.y.e.q.7.8.8.7.w.7.:.:.:.:.:.8.8.8.:.y.y.y.r.y.9.6.5.8.7.w.5.8.:.:.:.0.0.q.8.8.y.y.y.u.w.<.%.} S ",
"b C.X...q.p.q.w.0.:.8.5.9.5.9.5.6.8.:.:.8.8.:.:.:.:.0.9.q.r.:.8.5.5.q.q.8.7.8.:.:.:.8.:.y.:.:.:.0.q.9.0.:.5.5.8.q.i.7.f._ @.+.z ",
"z.{ Q <.i.a.q.r.9.8.:.5.5.5.9.q.5.:.:.:.5.6.5.8.9.9.u.w.w.9.8.9.8.5.7.8.q.5.8.:.:.8.6.5.8.8.9.u.w.q.r.8.:.8.5.5.q.>.] ] ] ] ' 3 ",
"F n Y 1.p.t.:.:.y.y.u.y.q.3.q.w.0.:.:.:.:.:.5.9.8.9.:.9.:.e.y.u.u.8.q.q.w.8.:.:.:.:.8.8.8.0.8.:.:.0.:.y.y.u.0.q.<.7.<.>.%.~ T 4 ",
"2 p ( _ 5.w.y.y.u.y.w.3.r.t.r.u.y.y.y.:.5.5.q.i.q.7.5.:.:.y.y.9.w.w.u.p.u.u.e.u.:.9.7.9.w.w.6.6.0.:.y.u.i.w.w.p.q.r.p.i.7.Q p $ ",
"* - f R ,.a.s.0.0.0.8.9.9.0.9.0.e.:.:.0.:.:.:.y.8.q.:.:.:.:.:.9.8.q.0.8.:.:.:.:.:.:.8.:.0.0.q.:.:.:.:.:.0.9.q.8.8.t.u.5.<.~ f % ",
"% y ! ! Q w.i.y.0.y.0.0.q.5.8.i.i.9.t.0.y.q.0.0.8.6.5.q.0.y.0.y.:.:.5.q.8.5.8.:.8.:.8.5.0.9.6.7.5.8.:.0.u.s.u.5.0.w.q.5._ R @ O ",
". y r U 1.i.w.9.r.i.r.1.7.q.9.q.1.<.7.<.q.p.w.8.w.6.q.i.w.u.r.t.r.5.7.8.q.r.9.q.2.6.8.8.q.9.5.i.u.9.w.a.s.u.w._ <.<._ <.U L : . ",
"= 0 + E f.` _ ( f.>.f.) f.2.q.1._ _ _ _ 6.w.r.t.q._ 6.7.w.,.h Q ) ~ 6.7.7.w.i.i.q.8.q.9.p.3.) q.i.7.f.q.q._ ) y t ! I *.I + B # ",
"o - < U I a X.{ C f >.h Q ..Q ~ T _ Q Q ~ f.>.<.$.$._ f.*.*.R a p L Q f  .] W ) ~ 5.<.>.^ ~ f Q f.%.( *.$.] > : 4 5 : P r 6 n., ",
". k ^.F 8 H.].OX'.{ C 8 N [ V d 8 C p 8 R ^ d L ' &.|.I.T.{ } Z.c.8 N S N N 8 p T Y ^ T C | z @.$.} @.A.Y.} G.Y.U.Y.c.B B N.F O ",
". 2 B./.].OX&XOX].~.!.Q.{ { U.U._.].U.z.q * S c.U./.(.'.OX+X$X*XN.= K.+X!.`.G.H.F.j.; < K.'.!.+X!.U.G./.*X$X*X*X$X$X).].OXP.,   ",
"  X 0 F H.Q.W.U.!.].*XoXk H OX&XOX].).H.J % 3 Q.+X~.!.].].+X].(.z.0 G (.(.!.`.]._.m.0 H H.!.(.(.).'.z.= j.oX+X].!.H.(.'.^.z X   ",
"qX% v H H.H.H.H.!.!.!.N.- 0 D.Q.!.H.H.H.l.q l l.!.Q.H.H.H.U.W.H.G.V l.W.H.H.W.W.H.D.m j.H.H.H.U.~.'.l., J H.K.H.H.H.H.H.D.x o qX",
"qX& q m D.H.H.H.H.H.H.D.k l l.H.H.H.H.H.N.x m G.H.H.H.H.H.H.H.H.H.v F D.H.H.H.H.H.K.q F H.H.H.H.H.G.m v Z.W.H.H.H.H.H.N.v & . qX",
"qXK O 0 H G.H.H.H.H.W.G.k ; J c.H.H.H.H.l.- x K.H.H.H.H.H.H.H.W.z.# v P.F.U.!.U.H.N., z H.H.H.H.H.z.x , l.G.H.H.!.!.^.^.N.0 e qX",
"qX{.O J F.F.D.J.!.Q.G.N.v & l.U.H.H.H.G.l o 2 D.U.H.H.H.D.z.D.z.G z 3 ).].].(.!.H.D.3 2 c.W.H.H.H.D.k * l.D.H.H.Q.).].).l.< K qX",
"qX@X- m.oX*X+X'.!.H.H.H.l., F H.H.W.(._.Q.< < { G.H.H.H.G.D.H.G.H.k.& x.H.H.H.H.H.H.q x G.H.H.H.H.H.q v W.H.H.H.H.H.H.D.m - S.qX",
"qX<Xe x m.!.!.H.H.H.H.W.D.x V z.G.Q.).).K.2 < m.D.Q.W.H.W.U.H.H.H.m.< G H.H.H.H.W.H.b H H.H.H.H.H.D.v l.H.H.H.H.H.H.H.l.v & P.qX",
"qX<Xe b G H.H.H.H.W.H.H.G.V F G.H.H.H.W.N.< 0 _.+X]._.U.H.H.H.H.H.j.2 G H.U.H.H.H.G.F z.!.H.H.H.H.G.V z.H.H.H.H.H.H.G.F l & %XqX",
"qX7Xm x G G.H.H.H.U.H.H.G.m V G.H.H.H.H.z.2 e M.(.!.W.H.H.H.H.H.H.J e G H.H.H.Q.H.N.m l.H.H.H.H.H.G.F l.H.H.H.H.H.H.H.H q l 4XqX",
"qX0X[.e v l.H.H.H.H.H.W.Z.m l.H.H.H.H.!.x.3 l j._.(.U.H.H.H.H.D.z.H z F G.H.H.!._.K.m F D.H.H.H.H.l.x m z.H.H.H.W.G.G z # {.,XqX",
"qXqX5Xm.2 b x.D.D.G.G.c.J q H H.W.H.H.D.F x x m D.H.H.H.G.D.G.D.D.x.l m z.H.H.H.G.l.m G G.H.H.D.z.l.< v z.H.H.H.G.D.H x M.5X6XqX",
"qXqXqX7X.XV.N.H z.G.Q.!.{.[.V j.l.z.c.D.{ .XM.m b H z.z.G V J F m +.{.B.z.c.k.H J m L.{.J l.l.H J J }.{.m.H G G z.N.B. X7X9XqXqX",
"qXqXqX,X:X3X1X#X#X>X2X5X8X8X#XV.M.S.L..X%X9X,X%X}.M.H +.J K M.L.@X2X9X,X^.S.V.M.L.@X5X8X%X.XV.S..X<X8X,X,X%X%X XXX#X-X8X8X8XqXqX",
"qXqXqXqXR.'.).'.=X4X;X:X7X5X4X8X8X7X8X9X8X$X+X=X:X,X,X,X,X3X2X;X-X4X8X3X7X7X8X8X9X0X;X~.+X;X,X8X8X8X8X8X3X-X;X:X:XOX'.+XqXqXqXqX",
"qXqXqXqXqXqXqXb.v.R.W.v.~.-X3X9X0X0X5X,XoXqXqXqXR.).OX+X~.~.E.v.v.R.qX:X5X0X0X0X0XqXqXh.j.v.~.+X=XOXqXqXqXqXv.v.R.W.qXqXqXqXqXqX",
"qXqXqXqXqXqXqXqXqXj.qXqXqXqXqXH G m.v 1 i < * q qXqXqXqXqXj.D S qXqXqXqXqXqXqXqXqXqXp , qXqXqXqXqXqXqXqXqXqXqXqXqXqXqXqXqXqXqXqX"
};
